<?xml version="1.0" standalone="no"?>
<!DOCTYPE svg PUBLIC "-//W3C//DTD SVG 1.1//EN" "http://www.w3.org/Graphics/SVG/1.1/DTD/svg11.dtd" >
<svg xmlns="http://www.w3.org/2000/svg">
<metadata>
This is a custom SVG webfont generated by Fontspring.
</metadata>
<defs>
<font id="webfontT5fEfi6G" horiz-adv-x="1634" >
<font-face units-per-em="2048" ascent="1536" descent="-512" />
<missing-glyph horiz-adv-x="557" />
<glyph unicode=" "  horiz-adv-x="557" />
<glyph unicode="&#x09;" horiz-adv-x="557" />
<glyph unicode="&#xa0;" horiz-adv-x="557" />
<glyph unicode="!" horiz-adv-x="505" d="M139 377l201 1063h145l-215 -1063h-131zM53 0l33 158h158l-33 -158h-158z" />
<glyph unicode="&#x22;" horiz-adv-x="610" d="M467 1116l65 344h121l-67 -344h-119zM217 1116l68 344h121l-68 -344h-121z" />
<glyph unicode="#" horiz-adv-x="1452" d="M182 0l148 399h-291l43 115h289l149 401h-289l41 115h291l152 410h125l-152 -410h354l152 410h125l-152 -410h287l-41 -115h-289l-147 -401h285l-41 -115h-287l-148 -399h-127l150 399h-354l-148 -399h-125zM498 514h352l149 401h-354z" />
<glyph unicode="$" horiz-adv-x="1064" d="M-2 178l94 101q4 -6 13.5 -18.5t42 -41.5t69.5 -51.5t96.5 -40.5t122.5 -18q147 0 247.5 82.5t100.5 209.5q0 90 -60 152.5t-146 102.5l-172 83q-86 43 -146.5 122t-60.5 192q0 170 126 283.5t320 125.5l37 191h117l-39 -195q123 -12 213 -64.5t90 -138.5q0 -4 -6 -53 l-19 -88h-133l10 53q6 25 7 43q0 57 -69 89t-165 32q-162 0 -252 -80t-90 -192q0 -82 60.5 -138.5t146.5 -94.5t172 -82t146.5 -126.5t60.5 -201.5q0 -180 -127 -304t-332 -137l-37 -186h-117l37 193q-70 8 -131 31.5t-101 50t-69.5 53t-42.5 43.5z" />
<glyph unicode="%" horiz-adv-x="1449" d="M446 895q-115 0 -184 68.5t-69 183.5q0 121 102 219t231 98q115 0 183.5 -69.5t68.5 -180.5q0 -125 -101.5 -222t-230.5 -97zM-10 0l1362 1440h157l-1362 -1440h-157zM455 1010q80 0 140 61.5t60 142.5q0 57 -37.5 96.5t-99.5 39.5q-78 0 -140.5 -62.5t-62.5 -142.5 q0 -57 39.5 -96t100.5 -39zM713 227q0 121 102.5 219.5t231.5 98.5q115 0 183 -69.5t68 -180.5q0 -125 -101 -222.5t-230 -97.5q-115 0 -184.5 68.5t-69.5 183.5zM836 225q0 -59 38.5 -97t102.5 -38q80 0 140.5 60.5t60.5 142.5q0 59 -39 98t-101 39q-78 0 -140 -62.5 t-62 -142.5z" />
<glyph unicode="&#x26;" horiz-adv-x="1273" d="M39 340q0 147 97 272t249 164v4q-6 2 -16.5 7.5t-35 24.5t-44 45t-35.5 73t-16 102q0 188 140 310t343 122l182 -26l-57 -117q-61 16 -127 16q-135 0 -235.5 -85t-100.5 -222q0 -201 266 -201h303l41 205h140l-39 -205h194l-24 -122h-195l-41 -213q-102 -518 -555 -519 q-203 0 -318.5 100.5t-115.5 264.5zM186 356q0 -115 76 -183.5t213 -68.5q336 0 412 394l41 209h-303q-180 0 -309.5 -94.5t-129.5 -256.5z" />
<glyph unicode="'" horiz-adv-x="364" d="M217 1116l68 344h121l-66 -344h-123z" />
<glyph unicode="(" horiz-adv-x="530" d="M195 -195q-98 260 -99 545q0 639 416 1145h135q-424 -535 -424 -1149q0 -281 96 -541h-124z" />
<glyph unicode=")" horiz-adv-x="534" d="M-98 -195q424 535 424 1149q0 281 -97 541h125q98 -260 99 -545q0 -639 -416 -1145h-135z" />
<glyph unicode="*" horiz-adv-x="952" d="M309 690l-100 80l242 250v4l-277 84l64 125l274 -109l49 316h139l-75 -316l319 107l19 -129l-324 -90v-4l141 -242l-114 -78l-127 260h-4z" />
<glyph unicode="+" horiz-adv-x="1241" d="M440 0l103 522h-473l22 119h471l105 522h125l-103 -522h471l-22 -119h-471l-103 -522h-125z" />
<glyph unicode="," horiz-adv-x="468" d="M-92 -199l188 367h152l-223 -367h-117z" />
<glyph unicode="-" horiz-adv-x="858" d="M121 518l22 127h582l-25 -127h-579z" />
<glyph unicode="." horiz-adv-x="440" d="M27 0l30 164h158l-31 -164h-157z" />
<glyph unicode="/" horiz-adv-x="827" d="M-51 -86l831 1606h140l-832 -1606h-139z" />
<glyph unicode="0" horiz-adv-x="1234" d="M111 440q0 96 14 204t45 225.5t83 222t121.5 188.5t170 134t217.5 50q403 0 403 -467q0 -119 -19.5 -249t-68.5 -270t-120.5 -249.5t-186.5 -181.5t-256 -72q-403 0 -403 465zM256 440q0 -334 262 -334q106 0 194.5 62.5t143.5 159t93 219.5t53.5 234.5t15.5 213.5 q0 338 -260 338q-127 0 -227.5 -88t-158 -226t-87 -288t-29.5 -291z" />
<glyph unicode="1" horiz-adv-x="880" d="M-27 0l23 127h321l207 1057l17 80h-4q-20 -31 -91 -86l-182 -152l-71 90l389 324h135l-256 -1313h315l-24 -127h-779z" />
<glyph unicode="2" horiz-adv-x="1144" d="M96 0q-61 0 -82.5 26.5t-21.5 88.5q0 104 52 192t136 151.5t186 121.5l201 111q100 54 184.5 112.5t136.5 135.5t52 165q0 104 -66.5 164.5t-185.5 60.5q-109 0 -188.5 -47t-93.5 -117l-13 -59h-135l18 96q25 131 153 196.5t278 65.5q178 0 280.5 -94t102.5 -254 q0 -123 -70 -228.5t-174.5 -174t-224.5 -138.5l-226 -124q-104 -55 -173.5 -129t-69.5 -154q0 -25 8 -33t33 -8h595q45 0 54 45l18 96h135l-26 -143q-14 -66 -50 -95.5t-102 -29.5h-721z" />
<glyph unicode="3" horiz-adv-x="1120" d="M-8 172l94 96q4 -6 14.5 -17t43 -39t69.5 -49.5t93 -39t116 -17.5q162 0 284.5 109t122.5 262q0 123 -85 187.5t-218 64.5l-96 -6l-22 86l466 455l64 51v4q-43 -6 -68 -6h-426q-45 0 -53 -45l-18 -97h-133l28 144q23 125 148 125h733l-21 -101l-520 -501 q59 -2 118.5 -20.5t119 -55.5t96.5 -106.5t37 -163.5q0 -209 -163 -363t-394 -154q-236 0 -402 166z" />
<glyph unicode="4" horiz-adv-x="1173" d="M-4 397l18 95l879 948h158l-179 -918h228l-25 -125h-227l-78 -397h-141l78 397h-711zM201 522h530l123 631l27 102h-4q-37 -51 -68 -84l-608 -645v-4z" />
<glyph unicode="5" horiz-adv-x="1099" d="M2 164l92 90q12 -16 36 -41t104.5 -66t173.5 -41q170 0 301 118t131 282q0 127 -85 202.5t-225 75.5q-70 0 -139 -19.5t-104 -39.5l-35 -20l-88 34l176 578q20 68 53 95.5t96 27.5h472q66 0 89 -31t9 -96l-27 -142h-133l21 97q10 45 -37 45h-367q-39 0 -53 -45l-98 -326 l-31 -86h4q90 53 227 53q186 0 304 -111.5t118 -287.5q0 -221 -174 -378t-410 -157t-376 158z" />
<glyph unicode="6" horiz-adv-x="1165" d="M92 492q0 137 52.5 299.5t147.5 315.5t251.5 255t341.5 102q74 0 142.5 -15t98.5 -30l31 -14l-70 -119q-84 47 -204 47q-213 0 -372 -172t-226 -407h4q68 78 170 123t211 45q178 0 283.5 -103.5t105.5 -273.5q0 -221 -149.5 -395.5t-383.5 -174.5q-203 0 -318.5 142 t-115.5 375zM238 465q0 -141 78.5 -250t213.5 -109q160 0 270.5 126t110.5 307q0 119 -71.5 188.5t-200.5 69.5q-139 0 -270 -96.5t-131 -235.5z" />
<glyph unicode="7" horiz-adv-x="1040" d="M74 0l856 1241l59 72v4q-29 -4 -74 -4h-546q-47 0 -56 -45l-18 -97h-133l26 144q14 66 49 95.5t101 29.5h846l-21 -99l-930 -1341h-159z" />
<glyph unicode="8" horiz-adv-x="1181" d="M55 350q0 252 322 457q8 4 10 6q-137 98 -137 244q0 160 136 283.5t355 123.5q188 0 293 -85t105 -232q0 -80 -35 -161t-89 -144.5t-85 -93t-60 -54.5q164 -106 164 -262q0 -190 -160.5 -323.5t-384.5 -133.5q-190 0 -312 100.5t-122 274.5zM762 754q37 29 79 69.5 t96 133t54 180.5q0 92 -68.5 145t-185.5 53q-147 0 -244.5 -80.5t-97.5 -195.5q0 -39 17.5 -73t39 -57.5t65.5 -51t73 -41.5l87 -42zM205 360q0 -117 83 -186.5t208 -69.5q150 0 269.5 90.5t119.5 231.5q0 47 -21.5 87t-68.5 72.5t-87 54.5t-111 54.5t-105 50.5 q-287 -164 -287 -385z" />
<glyph unicode="9" horiz-adv-x="1167" d="M57 35l64 119q84 -47 205 -48q211 0 369.5 173.5t226.5 408.5h-4q-66 -78 -169.5 -123t-211.5 -45q-178 0 -282.5 102.5t-104.5 272.5q0 221 148 395t382 174q205 0 320.5 -141t115.5 -375q0 -137 -52 -300t-147.5 -315.5t-252 -255t-340.5 -102.5q-74 0 -140.5 14.5 t-97.5 30.5zM565 643q139 0 272.5 97.5t133.5 234.5q0 141 -78 249.5t-213 108.5q-162 0 -273.5 -126t-111.5 -306q0 -119 71.5 -188.5t198.5 -69.5z" />
<glyph unicode=":" horiz-adv-x="434" d="M188 866l31 164h158l-31 -164h-158zM20 0l31 164h158l-31 -164h-158z" />
<glyph unicode=";" horiz-adv-x="546" d="M268 866l33 164h158l-31 -164h-160zM-37 -199l168 367h152l-203 -367h-117z" />
<glyph unicode="&#x3c;" horiz-adv-x="1241" d="M109 530v103l925 414v-138l-753 -325v-4l753 -326v-137z" />
<glyph unicode="=" horiz-adv-x="1241" d="M135 700v119h955v-119h-955zM135 344v119h955v-119h-955z" />
<glyph unicode="&#x3e;" horiz-adv-x="1241" d="M203 117v137l753 326v4l-753 325v138l925 -414v-103z" />
<glyph unicode="?" horiz-adv-x="940" d="M274 377l19 92q18 94 75.5 173t124.5 132l131 106q65 52 107.5 117.5t42.5 143.5q0 84 -60.5 138t-164.5 54q-63 0 -130 -21.5t-100 -41.5l-34 -23l-60 111q16 12 47 30.5t120 48t173 29.5q162 0 260.5 -86t98.5 -225q0 -100 -45 -183t-113 -140.5t-137.5 -109.5 t-127 -117.5t-71.5 -139.5l-18 -88h-138zM190 0l33 162h162l-33 -162h-162z" />
<glyph unicode="@" horiz-adv-x="1560" d="M63 369q0 352 271.5 615t632.5 263q207 0 312 -91t105 -234q0 -31 -8 -80l-123 -627h146l-23 -115h-530q-162 0 -260.5 95.5t-98.5 236.5q0 182 145.5 318.5t354.5 136.5h258q4 25 4 43q0 82 -77.5 140t-221.5 58q-297 0 -520 -231t-223 -528q0 -223 136 -362.5 t364 -139.5l-23 -121q-270 0 -445.5 174.5t-175.5 448.5zM631 440q0 -100 63.5 -162.5t167.5 -62.5h254l109 563h-250q-135 0 -239.5 -103.5t-104.5 -234.5z" />
<glyph unicode="A" horiz-adv-x="1339" d="M-84 0l25 127h36q27 0 41.5 8t28.5 37l719 1268h154l225 -1274q4 -25 15 -32t36 -7h37l-25 -127h-88q-61 0 -82.5 22.5t-36.5 96.5l-59 340h-571l-193 -340q-41 -74 -72.5 -96.5t-95.5 -22.5h-94zM434 584h494l-92 514l-19 186h-4q-53 -119 -92 -186z" />
<glyph unicode="B" horiz-adv-x="1236" d="M119 86q0 23 10 74l225 1153h-133l25 127h600q156 0 247 -80t91 -221q0 -127 -73 -229.5t-185 -149.5v-4q82 -31 133 -107t51 -188q0 -158 -95 -275.5t-235 -160.5q-72 -25 -172 -25h-379q-110 0 -110 86zM401 815h344q119 0 205 88t86 213q0 92 -54 144.5t-155 52.5 h-329zM274 156q0 -29 37 -29h310q74 0 116 16q100 33 163 121t63 199q0 113 -66 171t-180 58h-340l-94 -487q-9 -37 -9 -49z" />
<glyph unicode="C" horiz-adv-x="1431" d="M92 596q0 219 110.5 418.5t308.5 324.5t429 125q115 0 222.5 -27.5t188.5 -93t81 -155.5q0 -29 -11 -76l-12 -72h-135l14 80q3 13 3 26q0 55 -52 96q-63 50 -144 68.5t-155 18.5q-279 0 -489.5 -216t-210.5 -511q0 -217 127 -354t350 -137q297 0 495 182l68 -111 q-100 -94 -257 -150.5t-321 -56.5q-276 0 -443 176.5t-167 444.5z" />
<glyph unicode="D" horiz-adv-x="1478" d="M119 86q0 23 10 74l225 1153h-133l25 127h563q289 0 452.5 -148.5t163.5 -427.5q0 -227 -105.5 -423.5t-306 -318.5t-454.5 -122h-332q-108 0 -108 86zM274 156q0 -29 37 -29h242q217 0 385 104.5t253 269.5t85 355q0 227 -128 342t-364 115h-286l-217 -1108 q-7 -29 -7 -49z" />
<glyph unicode="E" horiz-adv-x="1159" d="M119 86q0 23 10 74l225 1153h-133l25 127h819q106 0 106 -84q0 -33 -10 -80l-20 -105h-133l10 62q8 45 8 49q0 31 -39 31h-489l-103 -525h541l-25 -126h-542l-88 -457q-6 -29 -7 -49q0 -29 37 -29h506q47 0 55 45l17 96h135l-29 -147q-12 -66 -46 -93.5t-95 -27.5h-627 q-108 0 -108 86z" />
<glyph unicode="F" horiz-adv-x="1040" d="M94 0l258 1313h-133l25 127h762q106 0 106 -84q0 -33 -10 -80l-21 -105h-133l10 62q8 45 9 49q0 31 -39 31h-432l-107 -541h524l-26 -127h-522l-127 -645h-144z" />
<glyph unicode="G" horiz-adv-x="1484" d="M90 584q0 229 118 432t319.5 325.5t433.5 122.5q264 0 442 -151l27 -25l-87 -106q-14 16 -43.5 40.5t-130 65.5t-213.5 41q-287 0 -501.5 -220t-214.5 -517q0 -219 126 -350t334 -131q82 0 164 22.5t140.5 53t104.5 62.5t71 54l22 23l29 145q8 37 8 47q0 31 -39 31h-90 l23 123h143q109 0 108 -84q0 -23 -12 -80l-98 -508h-133l22 111l15 59h-4q-72 -74 -205 -134.5t-293 -60.5q-264 0 -425 169.5t-161 439.5z" />
<glyph unicode="H" horiz-adv-x="1540" d="M94 0l240 1227q2 8 4 21.5t4 21.5t2 12q0 31 -41 31h-84l25 127h147q106 0 107 -84q0 -33 -11 -80l-96 -492h828l104 541q14 61 47 88t94 27h160l-25 -127h-92q-43 0 -51 -45l-248 -1268h-143l127 657h-827l-127 -657h-144z" />
<glyph unicode="I" horiz-adv-x="616" d="M-14 0l24 127h133l232 1186h-135l24 127h412l-25 -127h-137l-231 -1186h137l-27 -127h-407z" />
<glyph unicode="J" horiz-adv-x="1019" d="M-6 291q0 31 12 117l8 53h144l-8 -49q-10 -55 -11 -93q0 -109 60.5 -158.5t152.5 -49.5q111 0 200 71.5t120 225.5l162 827q6 31 6 47q0 31 -39 31h-355l27 127h416q106 0 106 -84q0 -6 -10 -78l-174 -889q-20 -111 -69.5 -193.5t-114 -130t-134 -69t-143.5 -21.5 q-152 0 -254 82t-102 234z" />
<glyph unicode="K" horiz-adv-x="1218" d="M94 0l240 1227q2 8 4 21.5t4 21.5t2 12q0 31 -41 31h-84l25 127h147q106 0 107 -84q0 -33 -11 -80l-90 -461h172q82 0 125 51l459 574h172l-489 -604q-20 -27 -42 -46.5t-32 -27.5l-12 -6v-4q27 -23 43 -82l153 -494q16 -49 78 -49h66l-27 -127h-102q-61 0 -94 26.5 t-52 84.5l-162 524q-14 53 -116 53h-164l-135 -688h-144z" />
<glyph unicode="L" horiz-adv-x="1083" d="M119 86q0 23 10 74l207 1067q2 8 4 21.5t4 21.5t2 12q0 31 -41 31h-84l25 127h147q106 0 107 -84q0 -33 -11 -80l-208 -1071q-6 -29 -7 -49q0 -29 37 -29h477q47 0 56 45l18 96h133l-26 -147q-14 -66 -48 -93.5t-96 -27.5h-598q-108 0 -108 86z" />
<glyph unicode="M" horiz-adv-x="1753" d="M-66 0l27 127h74q43 0 53 45l348 1268h142l217 -838l36 -172h5q53 94 104 172l543 838h151l-141 -1235q-4 -37 -4 -49q0 -29 35 -29h75l-24 -127h-125q-61 0 -87 22.5t-26 73.5q0 20 4 49l99 854l33 201h-5q-66 -129 -112 -201l-484 -731h-129l-198 731q-18 72 -37 205 h-4q-25 -129 -45 -205l-240 -880q-18 -63 -49 -91t-90 -28h-146z" />
<glyph unicode="N" horiz-adv-x="1546" d="M-39 0l27 127h86q45 0 53 45l248 1268h125l534 -1030l86 -187h4q10 111 27 187l176 915q23 115 143 115h158l-24 -127h-93q-43 0 -51 -45l-246 -1268h-127l-536 1030q-37 70 -82 184h-4q-12 -109 -29 -184l-176 -911q-25 -119 -141 -119h-158z" />
<glyph unicode="O" d="M92 598q0 229 125 430t328 318.5t428 117.5q272 0 443 -171t171 -437q0 -231 -126 -436t-328.5 -325t-425.5 -120q-272 0 -443.5 175.5t-171.5 447.5zM242 602q0 -215 134 -353t345 -138q272 0 493.5 222t221.5 517q0 211 -133.5 345t-344.5 134q-178 0 -343.5 -97 t-269 -267t-103.5 -363z" />
<glyph unicode="P" horiz-adv-x="1191" d="M94 0l258 1313h-133l25 127h592q174 0 280.5 -95.5t106.5 -267.5q0 -156 -85 -279.5t-212 -181.5q-109 -51 -230 -51h-346l-112 -565h-144zM375 692h313q160 0 272.5 105.5t112.5 269.5q0 123 -68.5 184.5t-193.5 61.5h-315z" />
<glyph unicode="Q" d="M92 598q0 229 125 430t325.5 318.5t422.5 117.5q274 0 448 -171t174 -437q0 -178 -76.5 -343t-207.5 -288l135 -172l-99 -88l-139 178q-225 -168 -485 -168q-274 0 -448.5 175.5t-174.5 447.5zM242 602q0 -215 134 -353t345 -138q209 0 395 137l-145 186l96 88l147 -190 q221 221 222 518q0 211 -133.5 345t-344.5 134q-178 0 -343.5 -97t-269 -267t-103.5 -363z" />
<glyph unicode="R" horiz-adv-x="1249" d="M94 0l258 1313h-133l25 127h600q160 0 256 -89t96 -247q0 -178 -108.5 -304t-256.5 -153v-4q20 -18 33 -59l127 -408q14 -49 70 -49h59l-24 -127h-84q-68 0 -98.5 23.5t-51.5 87.5l-127 409q-18 55 -41.5 70.5t-85.5 15.5h-250l-120 -606h-144zM383 733h319 q143 0 245 102.5t102 251.5q0 225 -232 226h-321z" />
<glyph unicode="S" horiz-adv-x="1062" d="M-4 178l94 101q4 -6 13.5 -18.5t42 -41.5t69.5 -51.5t95.5 -40.5t121.5 -18q150 0 250 82.5t100 209.5q0 88 -60 150.5t-147 103.5l-172 85q-86 44 -146 122t-60 191q0 178 141 294.5t352 116.5q143 0 256 -54t113 -155q0 -20 -4 -53l-19 -88h-133l10 53q6 25 7 43 q0 57 -69 89t-165 32q-162 0 -253 -80t-91 -192q0 -68 44 -120t108.5 -82l141.5 -68.5t141.5 -79.5t108.5 -117t44 -176q0 -190 -138.5 -315.5t-359.5 -125.5q-133 0 -241.5 51.5t-151.5 100.5z" />
<glyph unicode="T" horiz-adv-x="1263" d="M440 0l256 1313h-356q-45 0 -53 -45l-19 -97h-133l33 162q10 59 37.5 83t91.5 24h973q104 0 104 -84q0 -33 -10 -80l-21 -105h-131l11 62q8 41 8 49q0 31 -39 31h-352l-256 -1313h-144z" />
<glyph unicode="U" horiz-adv-x="1480" d="M174 385q0 55 12 117l142 725q8 45 8 55q0 31 -39 31h-86l27 127h147q106 0 107 -84q0 -8 -11 -80l-153 -778q-8 -43 -9 -95q0 -137 84 -214.5t236 -77.5q180 0 307 106.5t162 286.5l160 821q12 61 46 88t95 27h160l-27 -127h-92q-41 0 -49 -45l-154 -789 q-45 -229 -210 -366.5t-402 -137.5q-213 0 -337 111t-124 299z" />
<glyph unicode="V" horiz-adv-x="1331" d="M459 0l-228 1268q-8 45 -51 45h-33l27 127h86q55 0 80 -25.5t35 -93.5l166 -969q12 -63 18 -186h4q49 106 92 186l543 969q41 74 75 96.5t99 22.5h86l-24 -127h-27q-49 0 -76 -45l-719 -1268h-153z" />
<glyph unicode="W" horiz-adv-x="1925" d="M330 0l-84 1264q-2 49 -51 49h-39l26 127h80q66 0 96.5 -25.5t32.5 -93.5l58 -993v-154h4q33 80 69 154l533 1106h141l74 -1106l2 -154h4q29 80 63 154l443 993q53 119 166 119h98l-25 -127h-36q-51 0 -72 -45l-578 -1268h-170l-73 1001l-5 213h-4q-49 -119 -94 -210 l-489 -1004h-170z" />
<glyph unicode="X" horiz-adv-x="1204" d="M-66 0l609 758l-215 502q-25 53 -86 53h-52l25 127h78q70 0 103.5 -23.5t62.5 -91.5l127 -303l63 -160h4q61 86 121 160l240 303q53 70 95 92.5t114 22.5h92l-25 -127h-41q-72 0 -112 -53l-422 -517l325 -743h-155l-213 487l-62 152h-4q-49 -72 -114 -152l-392 -487h-166 z" />
<glyph unicode="Y" horiz-adv-x="1218" d="M412 0l123 627l-263 633q-23 53 -71 53h-47l24 127h64q63 0 95 -23.5t60 -91.5l170 -407l58 -162h4q59 90 116 162l322 407q55 70 95 92.5t106 22.5h82l-25 -127h-41q-55 0 -96 -51l-510 -635l-123 -627h-143z" />
<glyph unicode="Z" horiz-adv-x="1239" d="M-39 0l21 100l966 1082q29 33 62.5 65.5t52.5 48.5l18 17v4q-37 -4 -106 -4h-559q-47 0 -56 -45l-18 -97h-135l26 144q14 66 50 95.5t102 29.5h909l-20 -101l-971 -1081l-63 -65q-33 -33 -52 -50l-18 -16v-4q35 4 106 4h609q45 0 53 45l18 96h138l-29 -143 q-23 -125 -150 -125h-954z" />
<glyph unicode="[" horiz-adv-x="526" d="M39 -70l280 1440q23 125 150 125h152l-23 -115h-102q-45 0 -54 -45l-266 -1370q-8 -45 37 -45h102l-22 -115h-154q-66 0 -89 29.5t-11 95.5z" />
<glyph unicode="\" horiz-adv-x="817" d="M469 -86l-205 1606h125l205 -1606h-125z" />
<glyph unicode="]" horiz-adv-x="528" d="M-55 -80h102q45 0 53 45l267 1370q8 45 -37 45h-105l25 115h151q66 0 90.5 -29.5t10.5 -95.5l-279 -1440q-14 -66 -49 -95.5t-100 -29.5h-152z" />
<glyph unicode="^" horiz-adv-x="1241" d="M31 512l405 928h96l408 -928h-135l-320 758l-319 -758h-135z" />
<glyph unicode="_" horiz-adv-x="1073" d="M-111 0h1057l-22 -119h-1057z" />
<glyph unicode="`" horiz-adv-x="737" d="M365 1540l-134 244h150l98 -244h-114z" />
<glyph unicode="a" horiz-adv-x="1062" d="M-2 244q0 111 62.5 191.5t169 121.5t221 59.5t243.5 18.5h66l4 27q10 61 10 98q0 178 -211 178q-74 0 -146.5 -20.5t-82.5 -69.5l-10 -66h-136l19 99q18 90 132 132t243 42q168 0 249.5 -77t81.5 -208q0 -61 -12 -125l-88 -446q0 -4 -4 -22.5t-4 -24.5q0 -31 37 -31h86 l-23 -121h-131q-111 0 -110 82q0 57 24 127h-4q2 0 -13.5 -23.5t-47 -58.5t-75.5 -69.5t-110.5 -58.5t-140.5 -24q-127 0 -213 69t-86 200zM141 264q0 -82 51.5 -128t135.5 -46q145 0 261 129t140 258l8 47h-57q-84 0 -161 -8t-171 -32.5t-150.5 -81t-56.5 -138.5z" />
<glyph unicode="b" horiz-adv-x="1177" d="M37 0l239 1243q6 25 7 45q0 31 -37 31h-86l24 121h140q111 0 110 -86q0 -14 -8 -60l-68 -352l-26 -94h4q55 92 156.5 149.5t214.5 57.5q180 0 280 -110.5t100 -303.5q0 -285 -169.5 -475.5t-391.5 -190.5q-117 0 -203.5 55.5t-119.5 157.5h-4q0 -43 -11 -92l-18 -96h-133 zM258 391q0 -129 64.5 -210t193.5 -81q162 0 295 147.5t133 383.5q0 139 -69.5 218t-190.5 79q-182 0 -304 -164t-122 -373z" />
<glyph unicode="c" horiz-adv-x="1073" d="M53 424q0 262 186.5 446.5t430.5 184.5q57 0 119.5 -12.5t122 -37t93.5 -70.5q25 -34 24 -76q0 -15 -3 -32l-16 -84h-129l10 52q1 8 1 15q0 56 -67 86q-76 34 -166 34q-180 0 -321 -144.5t-141 -349.5q0 -154 85 -244t242 -90q98 0 184.5 33t122.5 66l37 30l45 -114 l-16 -15.5t-48 -34t-81 -43t-112.5 -34t-143.5 -15.5q-213 0 -336 122t-123 327z" />
<glyph unicode="d" horiz-adv-x="1204" d="M53 389q0 287 169 476.5t392 189.5q115 0 202 -54.5t118 -154.5h4q2 43 10 86l60 311q6 27 6 45q0 31 -37 31h-86l24 121h142q111 0 110 -84q0 -16 -8 -62l-215 -1097q-6 -25 -6 -45q0 -31 35 -31h86l-23 -121h-131q-109 0 -108 82q0 49 24 113h-4q-59 -94 -158.5 -157 t-222.5 -63q-182 0 -282.5 110.5t-100.5 303.5zM197 399q0 -139 69.5 -219t190.5 -80q123 0 222 83t150.5 204t51.5 248q0 129 -64.5 211t-191.5 82q-164 0 -296 -148t-132 -381z" />
<glyph unicode="e" horiz-adv-x="1095" d="M51 410q0 258 173 451.5t429 193.5q184 0 277.5 -102.5t93.5 -270.5q0 -35 -8 -78t-17 -67l-6 -27h-788q-10 -43 -10 -90q0 -141 86 -230.5t243 -89.5q82 0 166 32t127 63l43 30l45 -114q-18 -14 -53 -37t-136.5 -61t-199.5 -38q-211 0 -338 120t-127 315zM233 621h641 q6 35 7 71q0 121 -63.5 183.5t-170.5 62.5q-131 0 -246 -83.5t-168 -233.5z" />
<glyph unicode="f" horiz-adv-x="614" d="M59 0l177 913h-130l23 117h129l8 37q23 121 73 203t116.5 117.5t119 49t105.5 13.5l80 -4l-27 -121q-4 4 -53 4q-37 0 -72 -9t-78 -34.5t-76.5 -82t-47.5 -136.5l-9 -37h265l-23 -117h-264l-176 -913h-140z" />
<glyph unicode="g" horiz-adv-x="1183" d="M59 -233q117 -70 271 -70q168 0 283.5 86t148.5 280q16 90 33 134h-2q-125 -190 -344 -191q-182 0 -287 111.5t-105 298.5q0 152 60.5 294t187.5 243.5t293 101.5q127 0 217 -50.5t113 -138.5h4q-2 14 2 47q20 117 141 117h146l-23 -123h-86q-47 0 -55 -43l-164 -850 q-45 -225 -200.5 -334.5t-354.5 -109.5q-190 0 -346 84zM201 424q0 -137 71.5 -215t200.5 -78q127 0 221 89t136 211t42 247q0 252 -264 252q-184 0 -295.5 -153.5t-111.5 -352.5z" />
<glyph unicode="h" horiz-adv-x="1218" d="M37 0l239 1241q8 33 9 47q0 31 -39 31h-86l24 121h142q111 0 110 -86q0 -14 -8 -60l-82 -411l-20 -88h4q59 94 176 177t272 83q291 0 291 -277q0 -49 -14 -127l-90 -465q-4 -20 -4 -34q0 -31 36 -31h86l-22 -121h-143q-106 0 -107 90q0 14 4 47l94 484q14 72 15 120 q0 182 -185 183q-166 0 -301 -134.5t-168 -300.5l-94 -489h-139z" />
<glyph unicode="i" horiz-adv-x="503" d="M303 1264l35 176h135l-35 -176h-135zM84 90q0 16 6 55l135 689q6 31 6 45q0 31 -36 30h-86l24 121h139q109 0 109 -86q0 -18 -8 -63l-135 -695q-6 -31 -7 -34q0 -31 39 -31h86l-22 -121h-144q-106 0 -106 90z" />
<glyph unicode="j" horiz-adv-x="471" d="M301 1264l35 176h135l-35 -176h-135zM55 -29l168 863q6 31 6 45q0 31 -36 30h-87l25 121h139q109 0 109 -84q0 -14 -8 -63l-178 -922q-25 -123 -77.5 -206t-119 -117.5t-117.5 -47t-104 -12.5l-74 6l25 121q18 -2 43 -2q233 0 286 268z" />
<glyph unicode="k" horiz-adv-x="1013" d="M35 0l241 1243q6 25 7 45q0 31 -37 31h-86l24 121h140q111 0 110 -86q0 -14 -8 -60l-127 -657h104q70 0 117 49l336 344h176l-373 -379q-25 -27 -48 -45t-33 -24l-11 -4l-2 -5q25 -12 49 -73l123 -334q10 -27 28.5 -36t59.5 -9h56l-25 -121h-92q-72 0 -99.5 19.5 t-52.5 82.5l-135 367q-16 47 -98 47h-103l-102 -516h-139z" />
<glyph unicode="l" horiz-adv-x="499" d="M80 90q0 23 6 47l213 1106q6 31 6 45q0 31 -37 31h-86l25 121h141q109 0 109 -86q0 -14 -8 -60l-216 -1108q-6 -31 -6 -34q0 -31 39 -31h86l-22 -121h-144q-106 0 -106 90z" />
<glyph unicode="m" horiz-adv-x="1906" d="M61 0l160 829q6 25 6 48q0 33 -39 32h-82l23 121h139q106 0 107 -88q0 -49 -27 -147h4q55 92 168 176t260 84q260 0 267 -260h4q55 94 170.5 177t263.5 83q270 0 270 -271q0 -47 -14 -129l-90 -469q-6 -31 -6 -34q0 -31 36 -31h86l-22 -121h-143q-106 0 -107 90 q0 23 6 47l94 484q14 80 15 124q0 178 -164 179q-154 0 -283 -136.5t-162 -302.5l-94 -485h-139l121 621q14 63 14 124q0 178 -162 179q-160 0 -287.5 -136.5t-158.5 -304.5l-94 -483h-140z" />
<glyph unicode="n" horiz-adv-x="1243" d="M61 0l160 829q6 25 6 48q0 33 -39 32h-82l23 121h139q106 0 107 -86q0 -39 -29 -153h4q59 96 176 180t277 84q291 0 291 -277q0 -49 -15 -127l-90 -465q-4 -20 -4 -34q0 -31 37 -31h86l-23 -121h-143q-106 0 -106 90q0 14 4 47l94 484q14 72 14 120q0 182 -184 183 q-166 0 -301 -134.5t-168 -300.5l-94 -489h-140z" />
<glyph unicode="o" horiz-adv-x="1245" d="M51 426q0 260 194.5 444.5t450.5 184.5q205 0 333 -124t128 -321q0 -262 -196.5 -448.5t-448.5 -186.5q-205 0 -333 126t-128 325zM195 430q0 -145 92 -237.5t237 -92.5q186 0 338 148.5t152 355.5q0 143 -92.5 234.5t-237.5 91.5q-190 0 -339.5 -147.5t-149.5 -352.5z " />
<glyph unicode="p" horiz-adv-x="1206" d="M-18 -410l241 1239q6 31 6 48q0 33 -36 32h-87l23 121h143q102 0 103 -76q0 -47 -25 -114h4q133 215 383 215q178 0 277.5 -112t99.5 -312q0 -276 -170 -466t-391 -190q-111 0 -198 54.5t-122 152.5h-4q-4 -47 -14 -98l-94 -494h-139zM287 403q0 -133 65.5 -218 t188.5 -85q164 0 297 146.5t133 371.5q0 150 -67.5 230t-190.5 80q-182 0 -304 -164t-122 -361z" />
<glyph unicode="q" horiz-adv-x="1200" d="M53 387q0 287 170 477.5t395 190.5q117 0 200 -52.5t116 -148.5h4q8 47 14 70.5t21.5 52.5t43 41t70.5 12h148l-23 -121h-86q-45 0 -53 -45l-248 -1274h-139l96 496l29 98h-4q-55 -88 -150.5 -148.5t-222.5 -60.5q-180 0 -280.5 111t-100.5 301zM197 397 q0 -137 70.5 -217t191.5 -80q182 0 303 167t121 370q0 127 -65.5 209t-192.5 82q-162 0 -295 -147.5t-133 -383.5z" />
<glyph unicode="r" horiz-adv-x="720" d="M61 0l166 864q1 7 2 13q0 32 -39 32h-86l25 121h143q104 0 105 -84q0 -23 -14.5 -89t-26.5 -99h4q59 121 159.5 201.5t221.5 80.5q33 0 57 -6l-26 -137q-29 4 -52 4q-104 0 -196 -79t-147.5 -191.5t-80.5 -237.5l-75 -393h-140z" />
<glyph unicode="s" horiz-adv-x="901" d="M-18 147l77 97q4 -6 12.5 -16.5t36 -35t60.5 -44t87 -36t114 -16.5q106 0 176.5 48.5t70.5 129.5q0 49 -32.5 87t-65.5 54.5t-102 45.5q-63 25 -102.5 45t-87.5 55t-71.5 84t-23.5 111q0 137 109.5 218t269.5 81q131 0 236 -55q88 -45 89 -123q0 -15 -4 -31l-12 -66h-129 l8 43q1 6 1 13q0 39 -44 67q-51 33 -147 33q-106 0 -171 -46t-65 -122q0 -39 16.5 -69.5t53.5 -55.5t63.5 -38t81.5 -36q63 -25 101.5 -44t83.5 -53t66.5 -80t21.5 -105q0 -135 -106.5 -223.5t-284.5 -88.5q-236 0 -367 146z" />
<glyph unicode="t" horiz-adv-x="647" d="M131 270q0 49 12 109l105 534h-135l22 117h137l56 285h137l-55 -285h258l-23 -117h-258l-100 -520q-10 -45 -11 -96q0 -180 187 -180l49 4l-25 -125q-25 -4 -59 -4q-47 0 -92 11t-94 39t-80 86t-31 142z" />
<glyph unicode="u" horiz-adv-x="1251" d="M131 250q0 61 12 129l90 465q6 31 7 37q0 29 -39 28h-86l24 121h144q106 0 106 -90q0 -23 -6 -49l-92 -481q-14 -57 -15 -123q0 -180 181 -181q164 0 298 139.5t167 309.5l92 475h139l-162 -831q-6 -23 -6 -45q0 -33 39 -33h84l-23 -121h-141q-104 0 -104 86q0 39 28 154 h-4q-55 -96 -172 -180.5t-272 -84.5q-289 1 -289 275z" />
<glyph unicode="v" horiz-adv-x="1054" d="M326 0l-168 854q-12 55 -56 55h-26l22 121h68q53 0 81.5 -26.5t41.5 -88.5l121 -641l14 -120h4q27 72 57 120l371 644q41 72 71.5 92t102.5 20h74l-25 -121h-26q-47 0 -74 -47l-502 -862h-151z" />
<glyph unicode="w" horiz-adv-x="1720" d="M295 0l-127 862q-8 47 -53 47h-37l24 121h91q51 0 78.5 -26.5t35.5 -90.5l84 -651l10 -110h5q25 59 51 110l401 764h139l105 -764l10 -110h4q25 59 53 110l338 653q37 72 69 93.5t105 21.5h86l-22 -121h-29q-53 0 -80 -47l-462 -862h-156l-109 733l-10 113h-4 q-27 -61 -53 -113l-391 -733h-156z" />
<glyph unicode="x" horiz-adv-x="1013" d="M-59 0l471 547l-166 321q-23 41 -88 41h-43l22 121h88q59 0 88 -22.5t62 -92.5l110 -223l25 -61h4q23 37 45 61l186 223q61 74 95 94.5t108 20.5h94l-22 -121h-43q-72 0 -105 -41l-297 -340l263 -528h-150l-186 379l-25 57h-4q-18 -29 -45 -57l-324 -379h-163z" />
<glyph unicode="y" horiz-adv-x="1087" d="M35 -430q-57 0 -109.5 24.5t-75.5 49.5l-22 24l66 103l4 -4q4 -4 8 -9.5t12 -12.5t17.5 -14l20.5 -14.5t24.5 -12.5t29 -8t31.5 -3q115 0 219 170l92 145l-194 854q-10 47 -64 47h-20l24 121h90q49 0 68.5 -25.5t34.5 -86.5l139 -644l14 -110h5q27 59 57 110l379 644 q39 70 74.5 91t107.5 21h70l-25 -121h-20q-53 0 -82 -47l-652 -1079q-130 -213 -323 -213z" />
<glyph unicode="z" horiz-adv-x="1048" d="M-31 0l21 106l704 701l107 100v4q-41 -4 -101 -4h-376q-47 0 -56 -45l-14 -80h-129l25 123q23 125 149 125h715l-23 -106l-706 -703l-109 -98v-4q39 4 107 4h424q43 0 53 45l14 80h129l-24 -123q-23 -125 -150 -125h-760z" />
<glyph unicode="{" horiz-adv-x="608" d="M129 61q0 39 14 115l35 189q6 33 6 61q0 131 -112 168l-21 4l25 127q6 0 18 3t45 18.5t60.5 38t55.5 69.5t40 107l35 174q74 373 405 360l-22 -115q-29 2 -58.5 -5t-71.5 -28.5t-76 -79t-50 -143.5l-41 -206q-12 -59 -38 -107.5t-55.5 -74t-57 -43t-46.5 -23.5l-18 -6v-5 q12 -6 32.5 -19t53 -66.5t32.5 -120.5q0 -27 -6 -60l-43 -217q-10 -57 -10 -92q0 -172 170 -166l-24 -115q-12 -2 -31 -2q-31 0 -65 9.5t-79 33t-73.5 79.5t-28.5 138z" />
<glyph unicode="|" horiz-adv-x="610" d="M246 -322v1936h129v-1936h-129z" />
<glyph unicode="}" horiz-adv-x="608" d="M-90 -82q29 -2 59.5 5t72.5 29.5t76 79t50 142.5l43 229q18 98 72.5 163t97.5 81l45 17v4l-12 6q-8 4 -28.5 21.5t-36 39t-28 57t-12.5 76.5q0 25 6 60l37 196q10 43 10 90q0 172 -167 166l22 115h61q34 0 71.5 -17.5t70.5 -43t53.5 -77.5t20.5 -120q0 -29 -13 -115 l-32 -164q-6 -37 -7 -63q0 -70 34 -113t69 -51l33 -8l-25 -127q-8 0 -20.5 -3t-45 -17.5t-60.5 -38t-55.5 -69.5t-39.5 -108l-37 -196q-20 -98 -58 -169t-80 -109t-94.5 -58.5t-91.5 -23.5t-82 -1z" />
<glyph unicode="~" horiz-adv-x="1173" d="M115 428q0 162 69.5 239.5t190.5 77.5q61 0 110.5 -21.5t80.5 -52.5l62 -64q30 -32 68.5 -53.5t85.5 -21.5q82 0 114 63.5t32 141.5h121q0 -162 -70 -239.5t-191 -77.5q-76 0 -134 33.5t-88.5 72.5t-79 73t-105.5 34q-82 0 -113.5 -63.5t-31.5 -141.5h-121z" />
<glyph unicode="&#xa1;" horiz-adv-x="473" d="M207 872l31 158h157l-30 -158h-158zM-35 -410l215 1063h131l-202 -1063h-144z" />
<glyph unicode="&#xa2;" horiz-adv-x="1110" d="M397 -27l33 179q-156 23 -245 136t-89 298q0 258 157 474t400 232l33 172h117l-35 -176q78 -12 138.5 -47t93 -77t54 -82t27.5 -66l6 -27l-129 -49q-2 8 -5 23.5t-22.5 53.5t-46 67.5t-77.5 53t-115 23.5q-199 0 -324.5 -169t-125.5 -404q0 -141 69.5 -224t208.5 -83 q186 0 324 180l26 39l123 -51q-6 -12 -17 -32t-53 -70t-90.5 -89t-126 -73.5t-161.5 -39.5l-33 -172h-115z" />
<glyph unicode="&#xa3;" horiz-adv-x="1173" d="M-14 0l24 127h127l105 541h-95l21 112h94l64 318q29 156 162 261t309 105q92 0 171 -30.5t113 -61.5l33 -31l-98 -92q-8 10 -26.5 23.5t-76 37t-118.5 23.5q-129 0 -219.5 -73.5t-110.5 -182.5l-57 -297h391l-21 -112h-393l-104 -541h538q45 0 53 45l19 96h135l-29 -143 q-23 -125 -149 -125h-862z" />
<glyph unicode="&#xa5;" horiz-adv-x="1327" d="M467 0l88 436h-334l21 107h333l17 84l-41 94h-283l21 104h217l-178 435q-23 53 -72 53h-47l24 127h66q63 0 94 -23.5t60 -91.5l170 -407l57 -162h4q59 90 117 162l321 407q55 70 95 92.5t108 22.5h82l-27 -127h-41q-55 0 -96 -51l-348 -437h205l-21 -104h-268l-76 -94 l-18 -84h325l-18 -107h-328l-86 -436h-143z" />
<glyph unicode="&#xa7;" horiz-adv-x="827" d="M197 174l34 885q2 172 111 288.5t287 116.5q68 0 127 -22.5t86 -44.5l26 -23l-86 -88q-57 55 -155 55q-121 0 -195 -79.5t-78 -200.5l-37 -887h-120zM-16 -37l84 88q59 -55 157 -55q121 0 195 80t78 200l37 887h120l-34 -884q-2 -172 -111 -289t-287 -117 q-68 0 -127 22.5t-86 45.5z" />
<glyph unicode="&#xa8;" horiz-adv-x="1009" d="M610 1608l35 176h121l-35 -176h-121zM303 1608l35 176h121l-35 -176h-121z" />
<glyph unicode="&#xa9;" horiz-adv-x="1658" d="M123 721q0 309 212 526t513 217q305 0 518 -216t213 -527q0 -313 -213 -529.5t-518 -216.5q-301 0 -513 216.5t-212 529.5zM244 721q0 -268 174 -451.5t430 -183.5q260 0 436 183.5t176 451.5q0 266 -177 449.5t-435 183.5q-254 0 -429 -183.5t-175 -449.5zM444 717 q0 172 115 297t309 125q63 0 121 -19.5t94.5 -47.5t65.5 -56.5t41 -48.5l12 -19l-96 -63l-10 15q-6 9 -29 33.5t-48.5 43t-65.5 34t-83 15.5q-141 0 -222 -90t-81 -217t80 -217t223 -90q137 0 226 127l10 14l96 -64q-4 -8 -13 -20t-41 -45t-66.5 -58.5t-93 -46t-120.5 -20.5 q-195 0 -309.5 123t-114.5 295z" />
<glyph unicode="&#xaa;" horiz-adv-x="897" d="M399 782q-82 0 -136 43t-54 129q0 68 39 118t89 73.5t120.5 38t109.5 16.5t80 2h27q6 35 6 60q0 53 -28.5 77.5t-94.5 24.5q-109 0 -115 -43l-8 -49h-108l14 80q8 49 74.5 78.5t163.5 29.5q217 0 217 -178q0 -43 -9 -82l-55 -280q-4 -20 17 -21h57l-21 -104h-94 q-80 0 -63 108h-4q-8 -14 -24.5 -33.5t-74 -53.5t-125.5 -34zM432 881q84 0 145.5 68.5t79.5 164.5h-24q-305 0 -305 -143q0 -90 104 -90zM125 541l18 96h621l-19 -96h-620z" />
<glyph unicode="&#xab;" horiz-adv-x="1003" d="M662 158l-263 424l422 417h162l-438 -428l258 -413h-141zM303 158l-264 424l393 417h160l-408 -428l258 -413h-139z" />
<glyph unicode="&#xac;" horiz-adv-x="1333" d="M188 700v119h955v-495h-123v376h-832z" />
<glyph unicode="&#xad;" horiz-adv-x="858" d="M121 518l22 127h582l-25 -127h-579z" />
<glyph unicode="&#xae;" horiz-adv-x="1658" d="M123 721q0 309 212 526t513 217q305 0 518 -216t213 -527q0 -313 -213 -529.5t-518 -216.5q-301 0 -513 216.5t-212 529.5zM244 721q0 -268 174 -451.5t430 -183.5q260 0 436 183.5t176 451.5q0 266 -177 449.5t-435 183.5q-254 0 -429 -183.5t-175 -449.5zM604 322v798 h285q106 0 172.5 -65.5t66.5 -171.5q0 -84 -44 -140.5t-105 -70.5v-4q8 -10 27 -45l155 -301h-129l-160 323h-151v-323h-117zM721 735h147q66 0 104 39t38 109q0 68 -38 104.5t-102 36.5h-149v-289z" />
<glyph unicode="&#xaf;" horiz-adv-x="944" d="M219 1608l21 110h503l-20 -110h-504z" />
<glyph unicode="&#x2c9;" horiz-adv-x="944" d="M219 1608l21 110h503l-20 -110h-504z" />
<glyph unicode="&#xb0;" horiz-adv-x="743" d="M440 893q-113 0 -183.5 69.5t-70.5 178.5q0 125 101.5 223t230.5 98q111 0 182.5 -70.5t71.5 -177.5q0 -125 -102.5 -223t-229.5 -98zM449 1008q80 0 140 60t60 142q0 59 -38 98.5t-101 39.5q-80 0 -140.5 -61.5t-60.5 -141.5q0 -61 38.5 -99t101.5 -38z" />
<glyph unicode="&#xb1;" horiz-adv-x="1241" d="M80 522v119h473v522h127v-522h469v-119h-469v-522h-127v522h-473zM117 -213h995v-119h-995v119z" />
<glyph unicode="&#xb2;" horiz-adv-x="829" d="M182 543q-45 0 -60.5 15t-15.5 56q0 100 59.5 174t143.5 119t169 86t144.5 98.5t59.5 131.5q0 57 -35 90t-102 33q-59 0 -105.5 -25t-52.5 -57l-10 -54h-109l15 80q14 70 91 118t181 48q111 0 179.5 -58.5t68.5 -164.5q0 -94 -58.5 -168t-143.5 -119t-169 -85t-142.5 -90 t-58.5 -109q0 -14 17 -15h356q16 0 19 15l14 73h108l-18 -102q-14 -90 -106 -90h-439z" />
<glyph unicode="&#xb3;" horiz-adv-x="782" d="M387 528q-174 0 -287 121l-10 13l80 73q8 -12 24.5 -28.5t73 -45t119.5 -28.5q86 0 152.5 62.5t66.5 152.5q0 66 -51 103.5t-121 37.5h-63l-19 60l264 254l52 40v7q-27 -8 -60 -9h-219q-20 0 -27 -20l-12 -66h-104l18 88q10 55 35 76t80 21h448l-14 -76l-299 -289 q78 -10 143.5 -65.5t65.5 -161.5q0 -125 -99.5 -222.5t-236.5 -97.5z" />
<glyph unicode="&#xb4;" horiz-adv-x="759" d="M209 1540l188 244h160l-223 -244h-125z" />
<glyph unicode="&#xb5;" horiz-adv-x="1304" d="M6 -410l248 1270q8 49 -37 49h-86l25 121h143q106 0 107 -90q0 -23 -7 -47l-94 -483q-12 -61 -12 -121q0 -182 180 -183q166 0 298 134.5t163 300.5l96 489h139l-161 -829q-6 -25 -7 -47q0 -33 39 -33h84l-24 -121h-139q-106 0 -107 86q0 39 29 154h-4 q-57 -96 -172 -180.5t-271 -84.5q-160 0 -219 95h-4q-6 -113 -16 -164l-62 -316h-129z" />
<glyph unicode="&#x3bc;" horiz-adv-x="1304" d="M6 -410l248 1270q8 49 -37 49h-86l25 121h143q106 0 107 -90q0 -23 -7 -47l-94 -483q-12 -61 -12 -121q0 -182 180 -183q166 0 298 134.5t163 300.5l96 489h139l-161 -829q-6 -25 -7 -47q0 -33 39 -33h84l-24 -121h-139q-106 0 -107 86q0 39 29 154h-4 q-57 -96 -172 -180.5t-271 -84.5q-160 0 -219 95h-4q-6 -113 -16 -164l-62 -316h-129z" />
<glyph unicode="&#xb6;" horiz-adv-x="1148" d="M426 -102l115 596q-190 0 -309 134t-89 328q31 201 201 342.5t373 141.5h495l-22 -127h-371l-274 -1415h-119zM672 -102l250 1292h116l-250 -1292h-116z" />
<glyph unicode="&#xb7;" horiz-adv-x="436" d="M119 508l31 164h157l-31 -164h-157z" />
<glyph unicode="&#x2219;" horiz-adv-x="436" d="M119 508l31 164h157l-31 -164h-157z" />
<glyph unicode="&#xb8;" horiz-adv-x="845" d="M270 -184l97 225l79 -14l-2 -17l-49 -123q49 -8 84 -41.5t35 -85.5q0 -90 -69.5 -135t-155.5 -45l-105 10l19 99q37 -12 82 -13q119 0 118 82q0 59 -102 60z" />
<glyph unicode="&#xb9;" horiz-adv-x="710" d="M100 543l23 106h192l109 563l16 70h-4q-16 -20 -35 -35l-110 -92l-60 76l250 209h105l-154 -791h191l-23 -106h-500z" />
<glyph unicode="&#xba;" horiz-adv-x="937" d="M508 784q-129 0 -209 79t-80 204q0 160 123 277.5t281 117.5q129 0 209.5 -78.5t80.5 -201.5q0 -164 -123.5 -281t-281.5 -117zM518 889q109 0 195 84t86 203q0 82 -52.5 133t-134.5 51q-109 0 -194.5 -84t-85.5 -201q0 -84 51 -135t135 -51zM145 541l19 96h620l-18 -96 h-621z" />
<glyph unicode="&#xbb;" horiz-adv-x="1009" d="M393 158l416 424l-256 417h149l256 -421l-411 -420h-154zM14 158l426 424l-256 417h150l256 -421l-420 -420h-156z" />
<glyph unicode="&#xbc;" horiz-adv-x="1722" d="M377 0l891 1440h125l-889 -1440h-127zM92 543l23 106h192l109 563l16 70h-4q-16 -20 -35 -35l-110 -92l-60 76l250 209h105l-154 -791h186l-20 -106h-498zM889 240l14 75l539 582h123l-109 -553h137l-18 -104h-137l-49 -240h-115l47 240h-432zM1047 342q29 2 43 2h251 l62 315l18 80h-4q-20 -29 -43 -55l-293 -307l-34 -33v-2z" />
<glyph unicode="&#xbd;" horiz-adv-x="1699" d="M344 0l891 1440h125l-889 -1440h-127zM84 543l20 106h193l109 563l16 70h-4q-14 -20 -35 -35l-109 -92l-59 76l250 209h102l-153 -791h188l-20 -106h-498zM901 72q0 100 59.5 175t143.5 120l168 86q84 41 143.5 97t59.5 130q0 57 -35 90t-101 33q-59 0 -106 -24.5 t-53 -57.5l-9 -51h-110l14 78q14 72 92 118.5t183 46.5q111 0 178 -58t67 -165q0 -94 -58 -167.5t-142 -119t-169 -85t-143.5 -90t-58.5 -109.5q0 -14 16 -15h357q16 0 18 17l15 72h108l-18 -103q-14 -90 -107 -90h-436q-45 0 -60.5 15.5t-15.5 56.5z" />
<glyph unicode="&#xbe;" horiz-adv-x="1730" d="M383 0l891 1440h125l-889 -1440h-127zM391 528q-172 0 -285 121l-10 13l80 73q8 -12 24.5 -28.5t73 -45t119.5 -28.5q84 0 150.5 62.5t66.5 152.5q0 63 -50 102t-120 39h-65l-17 60l263 254l51 40v7q-25 -8 -58 -9h-221q-18 0 -24 -20l-13 -66h-104l16 88q10 55 36 76 t81 21h449l-15 -76l-301 -289q78 -10 143.5 -65.5t65.5 -161.5q0 -125 -99.5 -222.5t-236.5 -97.5zM897 240l14 75l539 582h123l-109 -553h138l-19 -104h-137l-49 -240h-115l47 240h-432zM1055 342q29 2 43 2h252l61 315l19 80h-5q-20 -29 -43 -55l-292 -307l-35 -33v-2z " />
<glyph unicode="&#xbf;" horiz-adv-x="950" d="M657 651l-18 -92q-18 -94 -75.5 -173t-124.5 -132l-131 -106q-65 -52 -107.5 -117.5t-42.5 -143.5q0 -84 60.5 -138t164.5 -54q63 0 130 21.5t101 41.5l33 23l60 -111q-16 -12 -47 -30.5t-120 -48t-173 -29.5q-162 0 -260.5 86t-98.5 225q0 100 45 183t112.5 140.5 t137.5 109.5t127 117.5t72 139.5l18 88h137zM741 1028l-32 -162h-162l33 162h161z" />
<glyph unicode="&#xc0;" horiz-adv-x="1339" d="M-84 0l25 127h36q27 0 41.5 8t28.5 37l719 1268h154l225 -1274q4 -25 15 -32t36 -7h37l-25 -127h-88q-61 0 -82.5 22.5t-36.5 96.5l-59 340h-571l-193 -340q-41 -74 -72.5 -96.5t-95.5 -22.5h-94zM434 584h494l-92 514l-19 186h-4q-53 -119 -92 -186zM809 1540l-133 244 h149l99 -244h-115z" />
<glyph unicode="&#xc1;" horiz-adv-x="1339" d="M-84 0l25 127h36q27 0 41.5 8t28.5 37l719 1268h154l225 -1274q4 -25 15 -32t36 -7h37l-25 -127h-88q-61 0 -82.5 22.5t-36.5 96.5l-59 340h-571l-193 -340q-41 -74 -72.5 -96.5t-95.5 -22.5h-94zM434 584h494l-92 514l-19 186h-4q-53 -119 -92 -186zM803 1540l188 244 h160l-223 -244h-125z" />
<glyph unicode="&#xc2;" horiz-adv-x="1339" d="M-84 0l25 127h36q27 0 41.5 8t28.5 37l719 1268h154l225 -1274q4 -25 15 -32t36 -7h37l-25 -127h-88q-61 0 -82.5 22.5t-36.5 96.5l-59 340h-571l-193 -340q-41 -74 -72.5 -96.5t-95.5 -22.5h-94zM434 584h494l-92 514l-19 186h-4q-53 -119 -92 -186zM621 1540l217 244 h141l125 -244h-125l-80 166h-4l-141 -166h-133z" />
<glyph unicode="&#xc3;" horiz-adv-x="1339" d="M-84 0l25 127h36q27 0 41.5 8t28.5 37l719 1268h154l225 -1274q4 -25 15 -32t36 -7h37l-25 -127h-88q-61 0 -82.5 22.5t-36.5 96.5l-59 340h-571l-193 -340q-41 -74 -72.5 -96.5t-95.5 -22.5h-94zM434 584h494l-92 514l-19 186h-4q-53 -119 -92 -186zM541 1546 q43 240 227 240q49 0 86 -22.5t54.5 -51.5t44 -51.5t57.5 -22.5q82 0 108 142h107q-43 -240 -224 -240q-41 0 -73.5 15.5t-50.5 36.5l-35 42q-16 20 -37 36t-47 16q-78 0 -111 -140h-106z" />
<glyph unicode="&#xc4;" horiz-adv-x="1339" d="M-84 0l25 127h36q27 0 41.5 8t28.5 37l719 1268h154l225 -1274q4 -25 15 -32t36 -7h37l-25 -127h-88q-61 0 -82.5 22.5t-36.5 96.5l-59 340h-571l-193 -340q-41 -74 -72.5 -96.5t-95.5 -22.5h-94zM434 584h494l-92 514l-19 186h-4q-53 -119 -92 -186zM967 1608l34 176 h121l-35 -176h-120zM659 1608l35 176h121l-35 -176h-121z" />
<glyph unicode="&#xc5;" horiz-adv-x="1339" d="M-84 0l25 127h36q27 0 41.5 8t28.5 37l719 1268h154l225 -1274q4 -25 15 -32t36 -7h37l-25 -127h-88q-61 0 -82.5 22.5t-36.5 96.5l-59 340h-571l-193 -340q-41 -74 -72.5 -96.5t-95.5 -22.5h-94zM434 584h494l-92 514l-19 186h-4q-53 -119 -92 -186zM870 1518 q-59 0 -99 34.5t-40 89.5q0 72 54.5 120t121.5 48q61 0 101.5 -34.5t40.5 -94.5q0 -70 -54.5 -116.5t-124.5 -46.5zM874 1593q37 0 62 24.5t25 63.5q0 53 -58 54q-33 0 -58.5 -26t-25.5 -62q0 -54 55 -54z" />
<glyph unicode="&#xc6;" horiz-adv-x="1693" d="M-31 0h-73l24 127h27q29 0 43 8t30 37l730 1268h849q106 0 107 -84q0 -8 -10 -80l-21 -105h-135l12 62q8 45 9 49q0 31 -41 31h-471l-103 -525h524l-26 -126h-524l-89 -457q-8 -37 -8 -49q0 -29 39 -29h490q47 0 55 45l16 96h136l-29 -147q-12 -66 -46 -93.5t-98 -27.5 h-608q-109 0 -108 86q0 23 10 74l96 502h-323l-310 -543q-43 -76 -72.5 -97.5t-101.5 -21.5zM526 788h275l104 525h-82z" />
<glyph unicode="&#xc7;" horiz-adv-x="1433" d="M526 -184l72 168q-231 33 -367.5 202.5t-136.5 409.5q0 219 110.5 418.5t308.5 324.5t429 125q115 0 222.5 -27.5t188.5 -93t81 -155.5q0 -29 -11 -76l-12 -72h-135l14 80q14 72 -49 122t-144 68.5t-155 18.5q-279 0 -489.5 -216t-210.5 -511q0 -217 127 -354t350 -137 q297 0 495 182l68 -111q-100 -94 -257 -150.5t-320 -56.5h-19l-35 -88q49 -8 84 -41.5t35 -85.5q0 -90 -69.5 -135t-155.5 -45l-105 10l19 99q37 -12 82 -13q119 0 118 82q0 59 -102 60z" />
<glyph unicode="&#xc8;" horiz-adv-x="1159" d="M119 86q0 23 10 74l225 1153h-133l25 127h819q106 0 106 -84q0 -33 -10 -80l-20 -105h-133l10 62q8 45 8 49q0 31 -39 31h-489l-103 -525h541l-25 -126h-542l-88 -457q-6 -29 -7 -49q0 -29 37 -29h506q47 0 55 45l17 96h135l-29 -147q-12 -66 -46 -93.5t-95 -27.5h-627 q-108 0 -108 86zM723 1540l-133 244h149l99 -244h-115z" />
<glyph unicode="&#xc9;" horiz-adv-x="1159" d="M719 1540l188 244h160l-223 -244h-125zM119 86q0 23 10 74l225 1153h-133l25 127h819q106 0 106 -84q0 -33 -10 -80l-20 -105h-133l10 62q8 45 8 49q0 31 -39 31h-489l-103 -525h541l-25 -126h-542l-88 -457q-6 -29 -7 -49q0 -29 37 -29h506q47 0 55 45l17 96h135 l-29 -147q-12 -66 -46 -93.5t-95 -27.5h-627q-108 0 -108 86z" />
<glyph unicode="&#xca;" horiz-adv-x="1159" d="M535 1540l217 244h141l125 -244h-125l-80 166h-4l-141 -166h-133zM119 86q0 23 10 74l225 1153h-133l25 127h819q106 0 106 -84q0 -33 -10 -80l-20 -105h-133l10 62q8 45 8 49q0 31 -39 31h-489l-103 -525h541l-25 -126h-542l-88 -457q-6 -29 -7 -49q0 -29 37 -29h506 q47 0 55 45l17 96h135l-29 -147q-12 -66 -46 -93.5t-95 -27.5h-627q-108 0 -108 86z" />
<glyph unicode="&#xcb;" horiz-adv-x="1159" d="M881 1608l34 176h121l-35 -176h-120zM573 1608l35 176h121l-35 -176h-121zM119 86q0 23 10 74l225 1153h-133l25 127h819q106 0 106 -84q0 -33 -10 -80l-20 -105h-133l10 62q8 45 8 49q0 31 -39 31h-489l-103 -525h541l-25 -126h-542l-88 -457q-6 -29 -7 -49 q0 -29 37 -29h506q47 0 55 45l17 96h135l-29 -147q-12 -66 -46 -93.5t-95 -27.5h-627q-108 0 -108 86z" />
<glyph unicode="&#xcc;" horiz-adv-x="616" d="M-14 0l24 127h133l232 1186h-135l24 127h412l-25 -127h-137l-231 -1186h137l-27 -127h-407zM430 1540l-133 244h149l99 -244h-115z" />
<glyph unicode="&#xcd;" horiz-adv-x="616" d="M-14 0l24 127h133l232 1186h-135l24 127h412l-25 -127h-137l-231 -1186h137l-27 -127h-407zM424 1540l188 244h160l-223 -244h-125z" />
<glyph unicode="&#xce;" horiz-adv-x="616" d="M-14 0l24 127h133l232 1186h-135l24 127h412l-25 -127h-137l-231 -1186h137l-27 -127h-407zM242 1540l217 244h141l125 -244h-125l-80 166h-4l-141 -166h-133z" />
<glyph unicode="&#xcf;" horiz-adv-x="616" d="M-14 0l24 127h133l232 1186h-135l24 127h412l-25 -127h-137l-231 -1186h137l-27 -127h-407zM590 1608l35 176h120l-34 -176h-121zM283 1608l34 176h121l-35 -176h-120z" />
<glyph unicode="&#xd0;" horiz-adv-x="1480" d="M121 86q0 23 10 74l96 502h-100l25 122h100l104 529h-133l25 127h563q289 0 452.5 -148.5t163.5 -427.5q0 -227 -105 -423.5t-306 -318.5t-455 -122h-332q-108 0 -108 86zM276 156q0 -29 37 -29h242q217 0 385 104.5t253 269.5t85 355q0 227 -128 342t-364 115h-286 l-105 -529h338l-24 -122h-338l-88 -457q-7 -29 -7 -49z" />
<glyph unicode="&#xd1;" horiz-adv-x="1546" d="M-39 0l27 127h86q45 0 53 45l248 1268h125l534 -1030l86 -187h4q10 111 27 187l176 915q23 115 143 115h158l-24 -127h-93q-43 0 -51 -45l-246 -1268h-127l-536 1030q-37 70 -82 184h-4q-12 -109 -29 -184l-176 -911q-25 -119 -141 -119h-158zM651 1546q43 240 228 240 q49 0 85.5 -22.5t54 -51.5t44.5 -51.5t57 -22.5q82 0 109 142h106q-43 -240 -223 -240q-41 0 -73.5 15.5t-51.5 36.5l-35 42q-16 20 -36.5 36t-47.5 16q-78 0 -110 -140h-107z" />
<glyph unicode="&#xd2;" d="M92 598q0 229 125 430t328 318.5t428 117.5q272 0 443 -171t171 -437q0 -231 -126 -436t-328.5 -325t-425.5 -120q-272 0 -443.5 175.5t-171.5 447.5zM242 602q0 -215 134 -353t345 -138q272 0 493.5 222t221.5 517q0 211 -133.5 345t-344.5 134q-178 0 -343.5 -97 t-269 -267t-103.5 -363zM936 1540l-133 244h149l99 -244h-115z" />
<glyph unicode="&#xd3;" d="M932 1540l188 244h160l-223 -244h-125zM92 598q0 229 125 430t328 318.5t428 117.5q272 0 443 -171t171 -437q0 -231 -126 -436t-328.5 -325t-425.5 -120q-272 0 -443.5 175.5t-171.5 447.5zM242 602q0 -215 134 -353t345 -138q272 0 493.5 222t221.5 517 q0 211 -133.5 345t-344.5 134q-178 0 -343.5 -97t-269 -267t-103.5 -363z" />
<glyph unicode="&#xd4;" d="M748 1540l217 244h141l125 -244h-125l-80 166h-4l-141 -166h-133zM92 598q0 229 125 430t328 318.5t428 117.5q272 0 443 -171t171 -437q0 -231 -126 -436t-328.5 -325t-425.5 -120q-272 0 -443.5 175.5t-171.5 447.5zM242 602q0 -215 134 -353t345 -138q272 0 493.5 222 t221.5 517q0 211 -133.5 345t-344.5 134q-178 0 -343.5 -97t-269 -267t-103.5 -363z" />
<glyph unicode="&#xd5;" d="M92 598q0 229 125 430t328 318.5t428 117.5q272 0 443 -171t171 -437q0 -231 -126 -436t-328.5 -325t-425.5 -120q-272 0 -443.5 175.5t-171.5 447.5zM242 602q0 -215 134 -353t345 -138q272 0 493.5 222t221.5 517q0 211 -133.5 345t-344.5 134q-178 0 -343.5 -97 t-269 -267t-103.5 -363zM668 1546q43 240 227 240q49 0 86 -22.5t54.5 -51.5t44 -51.5t57.5 -22.5q82 0 108 142h107q-43 -240 -224 -240q-41 0 -73.5 15.5t-50.5 36.5l-35 42q-16 20 -37 36t-47 16q-78 0 -111 -140h-106z" />
<glyph unicode="&#xd6;" d="M1094 1608l34 176h121l-35 -176h-120zM786 1608l35 176h121l-35 -176h-121zM92 598q0 229 125 430t328 318.5t428 117.5q272 0 443 -171t171 -437q0 -231 -126 -436t-328.5 -325t-425.5 -120q-272 0 -443.5 175.5t-171.5 447.5zM242 602q0 -215 134 -353t345 -138 q272 0 493.5 222t221.5 517q0 211 -133.5 345t-344.5 134q-178 0 -343.5 -97t-269 -267t-103.5 -363z" />
<glyph unicode="&#xd7;" horiz-adv-x="1392" d="M174 84l442 498l-442 497l84 84l438 -493l441 493l84 -84l-445 -497l445 -498l-84 -84l-441 494l-438 -494z" />
<glyph unicode="&#xd8;" d="M127 10l131 144q-166 172 -166 444q0 229 125 430t328 318.5t428 117.5q215 0 375 -114l127 141l75 -66l-129 -139q166 -166 166 -430q0 -231 -126 -436t-328.5 -325t-425.5 -120q-217 0 -373 115l-131 -143zM360 266l887 975q-125 88 -289 88q-178 0 -343.5 -97 t-269 -267t-103.5 -363q-1 -201 118 -336zM432 199q125 -88 289 -88q272 0 493.5 222t221.5 517q0 197 -117 324z" />
<glyph unicode="&#xd9;" horiz-adv-x="1480" d="M174 385q0 55 12 117l142 725q8 45 8 55q0 31 -39 31h-86l27 127h147q106 0 107 -84q0 -8 -11 -80l-153 -778q-8 -43 -9 -95q0 -137 84 -214.5t236 -77.5q180 0 307 106.5t162 286.5l160 821q12 61 46 88t95 27h160l-27 -127h-92q-41 0 -49 -45l-154 -789 q-45 -229 -210 -366.5t-402 -137.5q-213 0 -337 111t-124 299zM864 1540l-133 244h150l98 -244h-115z" />
<glyph unicode="&#xda;" horiz-adv-x="1480" d="M860 1540l189 244h159l-223 -244h-125zM174 385q0 55 12 117l142 725q8 45 8 55q0 31 -39 31h-86l27 127h147q106 0 107 -84q0 -8 -11 -80l-153 -778q-8 -43 -9 -95q0 -137 84 -214.5t236 -77.5q180 0 307 106.5t162 286.5l160 821q12 61 46 88t95 27h160l-27 -127h-92 q-41 0 -49 -45l-154 -789q-45 -229 -210 -366.5t-402 -137.5q-213 0 -337 111t-124 299z" />
<glyph unicode="&#xdb;" horiz-adv-x="1480" d="M676 1540l217 244h141l125 -244h-125l-80 166h-4l-141 -166h-133zM174 385q0 55 12 117l142 725q8 45 8 55q0 31 -39 31h-86l27 127h147q106 0 107 -84q0 -8 -11 -80l-153 -778q-8 -43 -9 -95q0 -137 84 -214.5t236 -77.5q180 0 307 106.5t162 286.5l160 821q12 61 46 88 t95 27h160l-27 -127h-92q-41 0 -49 -45l-154 -789q-45 -229 -210 -366.5t-402 -137.5q-213 0 -337 111t-124 299z" />
<glyph unicode="&#xdc;" horiz-adv-x="1480" d="M1022 1608l35 176h121l-35 -176h-121zM715 1608l35 176h120l-34 -176h-121zM174 385q0 55 12 117l142 725q8 45 8 55q0 31 -39 31h-86l27 127h147q106 0 107 -84q0 -8 -11 -80l-153 -778q-8 -43 -9 -95q0 -137 84 -214.5t236 -77.5q180 0 307 106.5t162 286.5l160 821 q12 61 46 88t95 27h160l-27 -127h-92q-41 0 -49 -45l-154 -789q-45 -229 -210 -366.5t-402 -137.5q-213 0 -337 111t-124 299z" />
<glyph unicode="&#xdd;" horiz-adv-x="1218" d="M412 0l123 627l-263 633q-23 53 -71 53h-47l24 127h64q63 0 95 -23.5t60 -91.5l170 -407l58 -162h4q59 90 116 162l322 407q55 70 95 92.5t106 22.5h82l-25 -127h-41q-55 0 -96 -51l-510 -635l-123 -627h-143zM721 1540l188 244h160l-223 -244h-125z" />
<glyph unicode="&#xde;" horiz-adv-x="1189" d="M94 0l248 1268q8 45 -35 45h-88l25 127h151q104 0 105 -82q0 -23 -6 -43l-25 -131h317q176 0 280.5 -95.5t104.5 -259.5q0 -227 -158.5 -373.5t-373.5 -146.5h-340l-61 -309h-144zM324 436h315q160 0 271.5 107.5t111.5 279.5q0 111 -69.5 172.5t-192.5 61.5h-316z" />
<glyph unicode="&#xdf;" horiz-adv-x="1167" d="M-70 0l25 121h80q43 0 53 43l182 940q33 166 167 263t290 97q154 0 242 -75.5t88 -192.5q0 -68 -32 -126t-78 -98t-92 -76t-78 -75t-32 -80q0 -43 49.5 -92t108 -90t107.5 -108.5t49 -141.5q0 -133 -110.5 -228t-258.5 -95q-88 0 -167 16t-113 33l-35 16l26 129 q111 -70 281 -69q88 0 160.5 51t72.5 145q0 47 -32.5 92t-78.5 81l-93 73q-47 37 -80 84t-33 96q0 57 33 108.5t79 90.5l92 77q46 38 78.5 83t32.5 94q0 63 -49 108t-141 45q-106 0 -199.5 -70.5t-117.5 -191.5l-185 -954q-14 -63 -47 -93t-98 -30h-146z" />
<glyph unicode="&#xe0;" horiz-adv-x="1062" d="M-2 244q0 111 62.5 191.5t169 121.5t221 59.5t243.5 18.5h66l4 27q10 61 10 98q0 178 -211 178q-74 0 -146.5 -20.5t-82.5 -69.5l-10 -66h-136l19 99q18 90 132 132t243 42q168 0 249.5 -77t81.5 -208q0 -61 -12 -125l-88 -446q0 -4 -4 -22.5t-4 -24.5q0 -31 37 -31h86 l-23 -121h-131q-111 0 -110 82q0 57 24 127h-4q2 0 -13.5 -23.5t-47 -58.5t-75.5 -69.5t-110.5 -58.5t-140.5 -24q-127 0 -213 69t-86 200zM141 264q0 -82 51.5 -128t135.5 -46q145 0 261 129t140 258l8 47h-57q-84 0 -161 -8t-171 -32.5t-150.5 -81t-56.5 -138.5zM571 1198 l-133 244h150l98 -244h-115z" />
<glyph unicode="&#xe1;" horiz-adv-x="1062" d="M-2 244q0 111 62.5 191.5t169 121.5t221 59.5t243.5 18.5h66l4 27q10 61 10 98q0 178 -211 178q-74 0 -146.5 -20.5t-82.5 -69.5l-10 -66h-136l19 99q18 90 132 132t243 42q168 0 249.5 -77t81.5 -208q0 -61 -12 -125l-88 -446q0 -4 -4 -22.5t-4 -24.5q0 -31 37 -31h86 l-23 -121h-131q-111 0 -110 82q0 57 24 127h-4q2 0 -13.5 -23.5t-47 -58.5t-75.5 -69.5t-110.5 -58.5t-140.5 -24q-127 0 -213 69t-86 200zM141 264q0 -82 51.5 -128t135.5 -46q145 0 261 129t140 258l8 47h-57q-84 0 -161 -8t-171 -32.5t-150.5 -81t-56.5 -138.5zM567 1198 l189 244h159l-223 -244h-125z" />
<glyph unicode="&#xe2;" horiz-adv-x="1062" d="M-2 244q0 111 62.5 191.5t169 121.5t221 59.5t243.5 18.5h66l4 27q10 61 10 98q0 178 -211 178q-74 0 -146.5 -20.5t-82.5 -69.5l-10 -66h-136l19 99q18 90 132 132t243 42q168 0 249.5 -77t81.5 -208q0 -61 -12 -125l-88 -446q0 -4 -4 -22.5t-4 -24.5q0 -31 37 -31h86 l-23 -121h-131q-111 0 -110 82q0 57 24 127h-4q2 0 -13.5 -23.5t-47 -58.5t-75.5 -69.5t-110.5 -58.5t-140.5 -24q-127 0 -213 69t-86 200zM141 264q0 -82 51.5 -128t135.5 -46q145 0 261 129t140 258l8 47h-57q-84 0 -161 -8t-171 -32.5t-150.5 -81t-56.5 -138.5zM383 1198 l217 244h141l125 -244h-125l-79 166h-5l-141 -166h-133z" />
<glyph unicode="&#xe3;" horiz-adv-x="1062" d="M-2 244q0 111 62.5 191.5t169 121.5t221 59.5t243.5 18.5h66l4 27q10 61 10 98q0 178 -211 178q-74 0 -146.5 -20.5t-82.5 -69.5l-10 -66h-136l19 99q18 90 132 132t243 42q168 0 249.5 -77t81.5 -208q0 -61 -12 -125l-88 -446q0 -4 -4 -22.5t-4 -24.5q0 -31 37 -31h86 l-23 -121h-131q-111 0 -110 82q0 57 24 127h-4q2 0 -13.5 -23.5t-47 -58.5t-75.5 -69.5t-110.5 -58.5t-140.5 -24q-127 0 -213 69t-86 200zM141 264q0 -82 51.5 -128t135.5 -46q145 0 261 129t140 258l8 47h-57q-84 0 -161 -8t-171 -32.5t-150.5 -81t-56.5 -138.5zM303 1204 q43 240 227 240q49 0 86 -23.5t54.5 -50.5t44 -50.5t57.5 -23.5q82 0 109 142h106q-43 -240 -223 -240q-41 0 -74 15.5t-51 36t-34.5 42t-37 36.5t-47.5 15q-78 0 -110 -139h-107z" />
<glyph unicode="&#xe4;" horiz-adv-x="1062" d="M-2 244q0 111 62.5 191.5t169 121.5t221 59.5t243.5 18.5h66l4 27q10 61 10 98q0 178 -211 178q-74 0 -146.5 -20.5t-82.5 -69.5l-10 -66h-136l19 99q18 90 132 132t243 42q168 0 249.5 -77t81.5 -208q0 -61 -12 -125l-88 -446q0 -4 -4 -22.5t-4 -24.5q0 -31 37 -31h86 l-23 -121h-131q-111 0 -110 82q0 57 24 127h-4q2 0 -13.5 -23.5t-47 -58.5t-75.5 -69.5t-110.5 -58.5t-140.5 -24q-127 0 -213 69t-86 200zM141 264q0 -82 51.5 -128t135.5 -46q145 0 261 129t140 258l8 47h-57q-84 0 -161 -8t-171 -32.5t-150.5 -81t-56.5 -138.5zM729 1266 l35 176h121l-35 -176h-121zM422 1266l35 176h121l-35 -176h-121z" />
<glyph unicode="&#xe5;" horiz-adv-x="1062" d="M-2 244q0 111 62.5 191.5t169 121.5t221 59.5t243.5 18.5h66l4 27q10 61 10 98q0 178 -211 178q-74 0 -146.5 -20.5t-82.5 -69.5l-10 -66h-136l19 99q18 90 132 132t243 42q168 0 249.5 -77t81.5 -208q0 -61 -12 -125l-88 -446q0 -4 -4 -22.5t-4 -24.5q0 -31 37 -31h86 l-23 -121h-131q-111 0 -110 82q0 57 24 127h-4q2 0 -13.5 -23.5t-47 -58.5t-75.5 -69.5t-110.5 -58.5t-140.5 -24q-127 0 -213 69t-86 200zM141 264q0 -82 51.5 -128t135.5 -46q145 0 261 129t140 258l8 47h-57q-84 0 -161 -8t-171 -32.5t-150.5 -81t-56.5 -138.5zM633 1176 q-59 0 -99 34.5t-40 89.5q0 72 54 120t122 48q61 0 101 -34.5t40 -94.5q0 -70 -54 -116.5t-124 -46.5zM637 1251q37 0 61.5 24.5t24.5 63.5q0 53 -57 54q-33 0 -58.5 -26t-25.5 -62q0 -54 55 -54z" />
<glyph unicode="&#xe6;" horiz-adv-x="1744" d="M-2 240q0 96 44 167.5t108.5 112.5t155.5 65.5t170 33t165 8.5h113q16 90 16 121q0 190 -207 190q-76 0 -148.5 -20.5t-82.5 -69.5l-10 -66h-136l19 99q18 94 133 134t242 40q262 0 301 -199h4q160 199 411 199q184 0 280.5 -101.5t96.5 -273.5q0 -33 -7 -74t-13 -65 l-6 -25h-779q-8 -43 -8 -92q0 -152 81 -239t233 -87q84 0 167.5 31t126.5 64l43 30l43 -112q-18 -14 -52 -37t-134 -61t-197 -38q-164 0 -275.5 76t-145.5 207h-5q-12 -29 -40.5 -68.5t-81 -92t-136.5 -87.5t-180 -35q-133 0 -221 70t-88 195zM899 627h629q4 39 4 69 q0 121 -66.5 181.5t-171.5 60.5q-131 0 -236.5 -80.5t-158.5 -230.5zM141 254q0 -70 50.5 -116t146.5 -46q137 0 245.5 120t141.5 265l8 39h-119q-473 0 -473 -262z" />
<glyph unicode="&#xe7;" horiz-adv-x="1075" d="M332 -184l71 170q-164 29 -256 145.5t-92 292.5q0 262 186.5 446.5t430.5 184.5q57 0 119.5 -12.5t122 -37t93 -70.5t21.5 -108l-16 -84h-129l10 52q10 68 -65.5 101.5t-165.5 33.5q-180 0 -321.5 -144.5t-141.5 -349.5q0 -154 85 -244t242 -90q98 0 184.5 33t123.5 66 l36 30l45 -114l-16 -15.5t-48 -34t-81 -43t-112.5 -34t-143.5 -15.5h-22l-35 -88q49 -8 83.5 -41.5t34.5 -85.5q0 -90 -69.5 -135t-155.5 -45l-104 10l18 99q37 -12 82 -13q119 0 119 82q0 59 -103 60z" />
<glyph unicode="&#xe8;" horiz-adv-x="1095" d="M51 410q0 258 173 451.5t429 193.5q184 0 277.5 -102.5t93.5 -270.5q0 -35 -8 -78t-17 -67l-6 -27h-788q-10 -43 -10 -90q0 -141 86 -230.5t243 -89.5q82 0 166 32t127 63l43 30l45 -114q-18 -14 -53 -37t-136.5 -61t-199.5 -38q-211 0 -338 120t-127 315zM233 621h641 q6 35 7 71q0 121 -63.5 183.5t-170.5 62.5q-131 0 -246 -83.5t-168 -233.5zM633 1198l-133 244h149l99 -244h-115z" />
<glyph unicode="&#xe9;" horiz-adv-x="1095" d="M629 1198l188 244h160l-223 -244h-125zM51 410q0 258 173 451.5t429 193.5q184 0 277.5 -102.5t93.5 -270.5q0 -35 -8 -78t-17 -67l-6 -27h-788q-10 -43 -10 -90q0 -141 86 -230.5t243 -89.5q82 0 166 32t127 63l43 30l45 -114q-18 -14 -53 -37t-136.5 -61t-199.5 -38 q-211 0 -338 120t-127 315zM233 621h641q6 35 7 71q0 121 -63.5 183.5t-170.5 62.5q-131 0 -246 -83.5t-168 -233.5z" />
<glyph unicode="&#xea;" horiz-adv-x="1095" d="M444 1198l218 244h141l125 -244h-125l-80 166h-4l-141 -166h-134zM51 410q0 258 173 451.5t429 193.5q184 0 277.5 -102.5t93.5 -270.5q0 -35 -8 -78t-17 -67l-6 -27h-788q-10 -43 -10 -90q0 -141 86 -230.5t243 -89.5q82 0 166 32t127 63l43 30l45 -114q-18 -14 -53 -37 t-136.5 -61t-199.5 -38q-211 0 -338 120t-127 315zM233 621h641q6 35 7 71q0 121 -63.5 183.5t-170.5 62.5q-131 0 -246 -83.5t-168 -233.5z" />
<glyph unicode="&#xeb;" horiz-adv-x="1095" d="M791 1266l34 176h121l-35 -176h-120zM483 1266l35 176h121l-35 -176h-121zM51 410q0 258 173 451.5t429 193.5q184 0 277.5 -102.5t93.5 -270.5q0 -35 -8 -78t-17 -67l-6 -27h-788q-10 -43 -10 -90q0 -141 86 -230.5t243 -89.5q82 0 166 32t127 63l43 30l45 -114 q-18 -14 -53 -37t-136.5 -61t-199.5 -38q-211 0 -338 120t-127 315zM233 621h641q6 35 7 71q0 121 -63.5 183.5t-170.5 62.5q-131 0 -246 -83.5t-168 -233.5z" />
<glyph unicode="&#xec;" horiz-adv-x="503" d="M84 90q0 16 6 55l135 689q6 31 6 45q0 31 -36 30h-86l24 121h139q109 0 109 -86q0 -18 -8 -63l-135 -695q-6 -31 -7 -34q0 -31 39 -31h86l-22 -121h-144q-106 0 -106 90zM289 1198l-133 244h149l98 -244h-114z" />
<glyph unicode="&#xed;" horiz-adv-x="503" d="M283 1198l188 244h160l-223 -244h-125zM84 90q0 16 6 55l135 689q6 31 6 45q0 31 -36 30h-86l24 121h139q109 0 109 -86q0 -18 -8 -63l-135 -695q-6 -31 -7 -34q0 -31 39 -31h86l-22 -121h-144q-106 0 -106 90z" />
<glyph unicode="&#xee;" horiz-adv-x="503" d="M100 1198l217 244h142l125 -244h-125l-80 166h-4l-142 -166h-133zM84 90q0 16 6 55l135 689q6 31 6 45q0 31 -36 30h-86l24 121h139q109 0 109 -86q0 -18 -8 -63l-135 -695q-6 -31 -7 -34q0 -31 39 -31h86l-22 -121h-144q-106 0 -106 90z" />
<glyph unicode="&#xef;" horiz-adv-x="503" d="M446 1266l35 176h121l-35 -176h-121zM139 1266l35 176h121l-35 -176h-121zM84 90q0 16 6 55l135 689q6 31 6 45q0 31 -36 30h-86l24 121h139q109 0 109 -86q0 -18 -8 -63l-135 -695q-6 -31 -7 -34q0 -31 39 -31h86l-22 -121h-144q-106 0 -106 90z" />
<glyph unicode="&#xf0;" horiz-adv-x="1155" d="M49 383q0 221 161 397t419 176q184 0 282 -108l9 -10h4q-35 205 -197 338l-389 -162l-10 92l311 131q-127 72 -274 113l57 108q221 -61 362 -162l301 123l13 -92l-236 -96q213 -199 213 -508q0 -90 -21.5 -188.5t-69.5 -198.5t-116.5 -180t-174 -130.5t-230.5 -50.5 q-199 0 -306.5 117t-107.5 291zM193 387q0 -123 70.5 -205t201.5 -82q188 0 318 163t130 333q0 109 -75.5 175.5t-206.5 66.5q-180 0 -309 -133.5t-129 -317.5z" />
<glyph unicode="&#xf1;" horiz-adv-x="1243" d="M61 0l160 829q6 25 6 48q0 33 -39 32h-82l23 121h139q106 0 107 -86q0 -39 -29 -153h4q59 96 176 180t277 84q291 0 291 -277q0 -49 -15 -127l-90 -465q-4 -20 -4 -34q0 -31 37 -31h86l-23 -121h-143q-106 0 -106 90q0 14 4 47l94 484q14 72 14 120q0 182 -184 183 q-166 0 -301 -134.5t-168 -300.5l-94 -489h-140zM438 1204q43 240 228 240q49 0 85.5 -23.5t54 -50.5t44.5 -50.5t57 -23.5q82 0 109 142h106q-43 -240 -223 -240q-41 0 -73.5 15.5t-51 36t-35 42t-37 36.5t-47.5 15q-78 0 -110 -139h-107z" />
<glyph unicode="&#xf2;" horiz-adv-x="1245" d="M51 426q0 260 194.5 444.5t450.5 184.5q205 0 333 -124t128 -321q0 -262 -196.5 -448.5t-448.5 -186.5q-205 0 -333 126t-128 325zM195 430q0 -145 92 -237.5t237 -92.5q186 0 338 148.5t152 355.5q0 143 -92.5 234.5t-237.5 91.5q-190 0 -339.5 -147.5t-149.5 -352.5z M684 1198l-133 244h149l99 -244h-115z" />
<glyph unicode="&#xf3;" horiz-adv-x="1245" d="M678 1198l188 244h160l-223 -244h-125zM51 426q0 260 194.5 444.5t450.5 184.5q205 0 333 -124t128 -321q0 -262 -196.5 -448.5t-448.5 -186.5q-205 0 -333 126t-128 325zM195 430q0 -145 92 -237.5t237 -92.5q186 0 338 148.5t152 355.5q0 143 -92.5 234.5t-237.5 91.5 q-190 0 -339.5 -147.5t-149.5 -352.5z" />
<glyph unicode="&#xf4;" horiz-adv-x="1245" d="M496 1198l217 244h141l125 -244h-125l-80 166h-4l-141 -166h-133zM51 426q0 260 194.5 444.5t450.5 184.5q205 0 333 -124t128 -321q0 -262 -196.5 -448.5t-448.5 -186.5q-205 0 -333 126t-128 325zM195 430q0 -145 92 -237.5t237 -92.5q186 0 338 148.5t152 355.5 q0 143 -92.5 234.5t-237.5 91.5q-190 0 -339.5 -147.5t-149.5 -352.5z" />
<glyph unicode="&#xf5;" horiz-adv-x="1245" d="M51 426q0 260 194.5 444.5t450.5 184.5q205 0 333 -124t128 -321q0 -262 -196.5 -448.5t-448.5 -186.5q-205 0 -333 126t-128 325zM195 430q0 -145 92 -237.5t237 -92.5q186 0 338 148.5t152 355.5q0 143 -92.5 234.5t-237.5 91.5q-190 0 -339.5 -147.5t-149.5 -352.5z M416 1204q43 240 227 240q49 0 86 -23.5t54.5 -50.5t44 -50.5t57.5 -23.5q82 0 108 142h107q-43 -240 -223 -240q-41 0 -74 15.5t-51.5 36t-35 42t-37 36.5t-46.5 15q-78 0 -111 -139h-106z" />
<glyph unicode="&#xf6;" horiz-adv-x="1245" d="M842 1266l35 176h120l-34 -176h-121zM535 1266l34 176h121l-35 -176h-120zM51 426q0 260 194.5 444.5t450.5 184.5q205 0 333 -124t128 -321q0 -262 -196.5 -448.5t-448.5 -186.5q-205 0 -333 126t-128 325zM195 430q0 -145 92 -237.5t237 -92.5q186 0 338 148.5 t152 355.5q0 143 -92.5 234.5t-237.5 91.5q-190 0 -339.5 -147.5t-149.5 -352.5z" />
<glyph unicode="&#xf7;" horiz-adv-x="1241" d="M537 887v151h153v-151h-153zM113 522v119h1003v-119h-1003zM537 125v151h153v-151h-153z" />
<glyph unicode="&#xf8;" horiz-adv-x="1249" d="M80 -4l102 110q-127 131 -127 320q0 258 192.5 443.5t440.5 185.5q164 0 289 -82l106 114l68 -61l-107 -117q117 -131 117 -299q0 -260 -194.5 -447.5t-438.5 -187.5q-154 0 -274 74l-107 -115zM279 211l604 659q-88 59 -195 60q-190 0 -339.5 -147.5t-149.5 -352.5 q0 -125 80 -219zM346 150q84 -49 182 -50q186 0 338 148.5t152 355.5q0 109 -74 201z" />
<glyph unicode="&#xf9;" horiz-adv-x="1251" d="M131 250q0 61 12 129l90 465q6 31 7 37q0 29 -39 28h-86l24 121h144q106 0 106 -90q0 -23 -6 -49l-92 -481q-14 -57 -15 -123q0 -180 181 -181q164 0 298 139.5t167 309.5l92 475h139l-162 -831q-6 -23 -6 -45q0 -33 39 -33h84l-23 -121h-141q-104 0 -104 86q0 39 28 154 h-4q-55 -96 -172 -180.5t-272 -84.5q-289 1 -289 275zM672 1198l-133 244h149l98 -244h-114z" />
<glyph unicode="&#xfa;" horiz-adv-x="1251" d="M668 1198l188 244h160l-223 -244h-125zM131 250q0 61 12 129l90 465q6 31 7 37q0 29 -39 28h-86l24 121h144q106 0 106 -90q0 -23 -6 -49l-92 -481q-14 -57 -15 -123q0 -180 181 -181q164 0 298 139.5t167 309.5l92 475h139l-162 -831q-6 -23 -6 -45q0 -33 39 -33h84 l-23 -121h-141q-104 0 -104 86q0 39 28 154h-4q-55 -96 -172 -180.5t-272 -84.5q-289 1 -289 275z" />
<glyph unicode="&#xfb;" horiz-adv-x="1251" d="M485 1198l217 244h142l125 -244h-125l-80 166h-4l-142 -166h-133zM131 250q0 61 12 129l90 465q6 31 7 37q0 29 -39 28h-86l24 121h144q106 0 106 -90q0 -23 -6 -49l-92 -481q-14 -57 -15 -123q0 -180 181 -181q164 0 298 139.5t167 309.5l92 475h139l-162 -831 q-6 -23 -6 -45q0 -33 39 -33h84l-23 -121h-141q-104 0 -104 86q0 39 28 154h-4q-55 -96 -172 -180.5t-272 -84.5q-289 1 -289 275z" />
<glyph unicode="&#xfc;" horiz-adv-x="1251" d="M829 1266l35 176h121l-35 -176h-121zM522 1266l35 176h121l-35 -176h-121zM131 250q0 61 12 129l90 465q6 31 7 37q0 29 -39 28h-86l24 121h144q106 0 106 -90q0 -23 -6 -49l-92 -481q-14 -57 -15 -123q0 -180 181 -181q164 0 298 139.5t167 309.5l92 475h139l-162 -831 q-6 -23 -6 -45q0 -33 39 -33h84l-23 -121h-141q-104 0 -104 86q0 39 28 154h-4q-55 -96 -172 -180.5t-272 -84.5q-289 1 -289 275z" />
<glyph unicode="&#xfd;" horiz-adv-x="1087" d="M35 -430q-57 0 -109.5 24.5t-75.5 49.5l-22 24l66 103l4 -4q4 -4 8 -9.5t12 -12.5t17.5 -14l20.5 -14.5t24.5 -12.5t29 -8t31.5 -3q115 0 219 170l92 145l-194 854q-10 47 -64 47h-20l24 121h90q49 0 68.5 -25.5t34.5 -86.5l139 -644l14 -110h5q27 59 57 110l379 644 q39 70 74.5 91t107.5 21h70l-25 -121h-20q-53 0 -82 -47l-652 -1079q-130 -213 -323 -213zM575 1198l189 244h160l-224 -244h-125z" />
<glyph unicode="&#xfe;" horiz-adv-x="1179" d="M-45 -410l321 1653q6 31 7 45q0 31 -37 31h-86l24 121h142q109 0 108 -86q0 -14 -8 -60l-61 -315q-29 -123 -31 -129h4q131 205 375 205q178 0 276 -112t98 -312q0 -276 -168.5 -466t-392.5 -190q-111 0 -197.5 54.5t-119.5 152.5h-4q-4 -47 -15 -98l-96 -494h-139z M260 403q0 -133 65.5 -218t188.5 -85q164 0 297 146.5t133 371.5q0 150 -67.5 230t-190.5 80q-182 0 -304 -164t-122 -361z" />
<glyph unicode="&#xff;" horiz-adv-x="1087" d="M35 -430q-57 0 -109.5 24.5t-75.5 49.5l-22 24l66 103l4 -4q4 -4 8 -9.5t12 -12.5t17.5 -14l20.5 -14.5t24.5 -12.5t29 -8t31.5 -3q115 0 219 170l92 145l-194 854q-10 47 -64 47h-20l24 121h90q49 0 68.5 -25.5t34.5 -86.5l139 -644l14 -110h5q27 59 57 110l379 644 q39 70 74.5 91t107.5 21h70l-25 -121h-20q-53 0 -82 -47l-652 -1079q-130 -213 -323 -213zM737 1266l35 176h121l-35 -176h-121zM430 1266l35 176h121l-35 -176h-121z" />
<glyph unicode="&#x152;" horiz-adv-x="1906" d="M92 588q0 231 119 433t317.5 320.5t423.5 118.5q51 0 144.5 -10t128.5 -10h587q106 0 107 -84q0 -23 -12 -80l-19 -105h-135l12 62q8 45 9 49q0 31 -41 31h-490l-100 -525h540l-26 -126h-541l-88 -455q-8 -41 -8 -51q0 -29 39 -29h506q45 0 53 45l18 96h136l-29 -147 q-12 -66 -47 -93.5t-97 -27.5h-630q-31 0 -118 -10t-132 -10q-285 0 -456 170t-171 438zM240 582q0 -213 130 -344.5t353 -131.5l145 17l232 1194q-61 16 -142 16q-293 0 -505.5 -221t-212.5 -530z" />
<glyph unicode="&#x153;" horiz-adv-x="2039" d="M51 426q0 258 193.5 443.5t443.5 185.5q154 0 263.5 -76t156.5 -203h4q80 127 206 203t275 76q184 0 279.5 -102.5t95.5 -270.5q0 -35 -7 -78t-15 -67l-9 -27h-788q-10 -41 -10 -92q0 -137 86 -227.5t243 -90.5q82 0 166 32t127 63l43 30l45 -114q-18 -14 -52 -37 t-134 -61t-199 -38q-162 0 -275.5 75t-156.5 208h-4q-86 -129 -225 -206t-285 -77q-209 0 -338 126t-129 325zM1176 621h645q6 35 6 71q0 121 -64.5 183.5t-171.5 62.5q-131 0 -245.5 -83.5t-169.5 -233.5zM195 430q0 -145 91 -237.5t238 -92.5q184 0 336 149.5t152 354.5 q0 143 -92.5 233.5t-237.5 90.5q-193 0 -340 -146.5t-147 -351.5z" />
<glyph unicode="&#x178;" horiz-adv-x="1218" d="M412 0l123 627l-263 633q-23 53 -71 53h-47l24 127h64q63 0 95 -23.5t60 -91.5l170 -407l58 -162h4q59 90 116 162l322 407q55 70 95 92.5t106 22.5h82l-25 -127h-41q-55 0 -96 -51l-510 -635l-123 -627h-143zM883 1608l35 176h120l-34 -176h-121zM575 1608l35 176h121 l-35 -176h-121z" />
<glyph unicode="&#x2c6;" horiz-adv-x="962" d="M211 1540l217 244h141l125 -244h-125l-80 166h-4l-141 -166h-133z" />
<glyph unicode="&#x2dc;" horiz-adv-x="1007" d="M158 1546q43 240 227 240q49 0 86 -22.5t54.5 -51.5t44 -51.5t57.5 -22.5q82 0 108 142h107q-43 -240 -224 -240q-41 0 -73.5 15.5t-50.5 36.5l-35 42q-16 20 -37 36t-47 16q-78 0 -111 -140h-106z" />
<glyph unicode="&#x2000;" horiz-adv-x="905" />
<glyph unicode="&#x2001;" horiz-adv-x="1810" />
<glyph unicode="&#x2002;" horiz-adv-x="905" />
<glyph unicode="&#x2003;" horiz-adv-x="1810" />
<glyph unicode="&#x2004;" horiz-adv-x="603" />
<glyph unicode="&#x2005;" horiz-adv-x="452" />
<glyph unicode="&#x2006;" horiz-adv-x="301" />
<glyph unicode="&#x2007;" horiz-adv-x="301" />
<glyph unicode="&#x2008;" horiz-adv-x="226" />
<glyph unicode="&#x2009;" horiz-adv-x="362" />
<glyph unicode="&#x200a;" horiz-adv-x="100" />
<glyph unicode="&#x2010;" horiz-adv-x="858" d="M121 518l22 127h582l-25 -127h-579z" />
<glyph unicode="&#x2011;" horiz-adv-x="858" d="M121 518l22 127h582l-25 -127h-579z" />
<glyph unicode="&#x2012;" horiz-adv-x="858" d="M121 518l22 127h582l-25 -127h-579z" />
<glyph unicode="&#x2013;" horiz-adv-x="1310" d="M125 522l22 119h1022l-20 -119h-1024z" />
<glyph unicode="&#x2014;" horiz-adv-x="1720" d="M125 522l22 119h1432l-20 -119h-1434z" />
<glyph unicode="&#x2018;" horiz-adv-x="403" d="M190 1106l183 352h110l-147 -352h-146z" />
<glyph unicode="&#x2019;" horiz-adv-x="389" d="M193 1110l147 350h145l-182 -350h-110z" />
<glyph unicode="&#x201a;" horiz-adv-x="452" d="M-61 -184l147 352h145l-182 -352h-110z" />
<glyph unicode="&#x201c;" horiz-adv-x="645" d="M432 1106l182 352h111l-147 -352h-146zM190 1106l183 352h110l-147 -352h-146z" />
<glyph unicode="&#x201d;" horiz-adv-x="630" d="M434 1110l148 350h145l-182 -350h-111zM193 1110l147 350h145l-182 -350h-110z" />
<glyph unicode="&#x201e;" horiz-adv-x="694" d="M180 -184l148 352h145l-182 -352h-111zM-61 -184l147 352h145l-182 -352h-110z" />
<glyph unicode="&#x2022;" horiz-adv-x="790" d="M389 303q-121 0 -206 86t-85 207t85 207t206 86t207 -86t86 -207t-86 -207t-207 -86z" />
<glyph unicode="&#x2026;" horiz-adv-x="1402" d="M989 0l31 164h158l-31 -164h-158zM508 0l31 164h157l-30 -164h-158zM27 0l30 164h158l-31 -164h-157z" />
<glyph unicode="&#x202f;" horiz-adv-x="362" />
<glyph unicode="&#x2039;" horiz-adv-x="624" d="M301 158l-262 424l393 417h160l-410 -428l260 -413h-141z" />
<glyph unicode="&#x203a;" horiz-adv-x="628" d="M25 158l409 428l-260 413h141l263 -424l-394 -417h-159z" />
<glyph unicode="&#x205f;" horiz-adv-x="452" />
<glyph unicode="&#x20ac;" horiz-adv-x="1204" d="M72 535l18 102h115q6 100 31 190h-111l20 103h123q104 238 316.5 386t459.5 148q53 0 106.5 -7t78.5 -15l26 -6l-57 -123q-72 20 -158 20q-193 0 -359.5 -109.5t-254.5 -293.5h625l-41 -103h-627q-27 -86 -33 -190h584l-39 -102h-541q10 -188 126 -308.5t325 -120.5 q47 0 94 7.5t72 13.5l24 8l6 -131q-88 -29 -204 -29q-258 0 -420 155t-172 405h-133z" />
<glyph unicode="&#x2122;" horiz-adv-x="2177" d="M1022 543v104h51q20 0 23 21l59 772h107l235 -514q18 -39 29 -84h4q10 45 29 84l235 514h107l59 -772q2 -20 22 -21h52v-104h-88q-55 0 -75 19.5t-24 74.5l-41 514l2 59h-4l-229 -499h-94l-230 499h-4l2 -59l-41 -514q-4 -55 -23.5 -74.5t-74.5 -19.5h-88zM571 543v790 h-192q-20 0 -21 -20v-62h-106v95q0 53 20.5 73.5t75.5 20.5h565q55 0 76 -20.5t21 -73.5v-95h-107v62q0 20 -20 20h-195v-790h-117z" />
<glyph unicode="&#xe000;" horiz-adv-x="1030" d="M0 1030h1030v-1030h-1030v1030z" />
<glyph unicode="&#xfb01;" horiz-adv-x="1114" d="M59 0l177 913h-130l23 117h129l8 37q23 121 73 203t116.5 117.5t119 49t105.5 13.5l80 -4l-27 -121q-4 4 -53 4q-37 0 -72 -9t-78 -34.5t-76.5 -82t-47.5 -136.5l-9 -37h486q109 0 108 -86q0 -18 -8 -63l-135 -695q-6 -31 -6 -34q0 -31 39 -31h86l-23 -121h-143 q-106 0 -107 90q0 29 6 55l136 693q6 31 6 45q0 31 -37 30h-430l-176 -913h-140zM913 1264l35 176h135l-34 -176h-136z" />
<glyph unicode="&#xfb02;" horiz-adv-x="1101" d="M59 0l177 913h-130l23 117h129l8 37q23 117 73 196.5t116.5 114.5t119 48.5t105.5 13.5h270q109 0 109 -86q0 -14 -8 -60l-215 -1108q-6 -31 -7 -34q0 -31 39 -31h86l-22 -121h-144q-106 0 -106 90q0 23 6 47l215 1106q6 31 6 47q0 31 -37 31h-192q-37 0 -72 -9t-78 -34 t-76.5 -79t-47.5 -132l-9 -37h265l-23 -117h-264l-176 -913h-140z" />
<glyph unicode="&#xfb03;" horiz-adv-x="1716" d="M59 0l177 913h-130l23 117h129l8 37q23 121 73 203t116.5 117.5t119 49t105.5 13.5l80 -4l-27 -121q-4 4 -53 4q-37 0 -72 -9t-78 -34.5t-76.5 -82t-47.5 -136.5l-9 -37h465l8 37q23 121 73 203t116.5 117.5t118 49t104.5 13.5l82 -4l-27 -121q-4 4 -53 4 q-53 0 -100 -15.5t-101.5 -77.5t-74.5 -169l-7 -37h484q109 0 108 -86q0 -18 -8 -63l-135 -695q-6 -31 -6 -34q0 -31 39 -31h86l-23 -121h-143q-106 0 -107 90q0 16 7 55l135 693q6 31 6 45q0 31 -37 30h-428l-178 -913h-139l178 913h-465l-176 -913h-140zM1516 1264l34 176 h136l-35 -176h-135z" />
<glyph unicode="&#xfb04;" horiz-adv-x="1705" d="M59 0l177 913h-130l23 117h129l8 37q23 121 73 203t116.5 117.5t119 49t105.5 13.5l80 -4l-27 -121q-4 4 -53 4q-37 0 -72 -9t-78 -34.5t-76.5 -82t-47.5 -136.5l-9 -37h465l6 37q23 117 74 196.5t117.5 114.5t118 48.5t104.5 13.5h270q111 0 111 -86q0 -14 -8 -60 l-215 -1108q-6 -31 -6 -34q0 -31 36 -31h89l-25 -121h-143q-104 0 -105 90q0 23 6 47l213 1106q6 31 6 47q0 31 -36 31h-191q-86 0 -166 -54.5t-110 -199.5l-7 -37h265l-23 -117h-264l-178 -913h-139l178 913h-465l-176 -913h-140z" />
</font>
</defs>
</svg>
