<?xml version="1.0" standalone="no"?>
<!DOCTYPE svg PUBLIC "-//W3C//DTD SVG 1.1//EN" "http://www.w3.org/Graphics/SVG/1.1/DTD/svg11.dtd" >
<svg xmlns="http://www.w3.org/2000/svg">
<metadata>
This is a custom SVG webfont generated by Fontspring.
</metadata>
<defs>
<font id="webfontLf32wQra" horiz-adv-x="1091" >
<font-face units-per-em="2048" ascent="1536" descent="-512" />
<missing-glyph horiz-adv-x="550" />
<glyph unicode=" "  horiz-adv-x="550" />
<glyph unicode="&#x09;" horiz-adv-x="550" />
<glyph unicode="&#xa0;" horiz-adv-x="550" />
<glyph unicode="!" horiz-adv-x="550" d="M143 397l191 1049h207l-219 -1049h-179zM55 0l39 199h203l-39 -199h-203z" />
<glyph unicode="&#x22;" horiz-adv-x="667" d="M489 1085l76 385h156l-76 -385h-156zM203 1085l73 385h158l-76 -385h-155z" />
<glyph unicode="#" horiz-adv-x="1449" d="M158 0l143 391h-266l53 152h268l129 344h-266l55 149h265l151 410h166l-151 -410h319l152 410h165l-151 -410h266l-55 -149h-266l-129 -344h266l-55 -152h-267l-143 -391h-166l143 391h-317l-143 -391h-166zM522 543h318l129 344h-318z" />
<glyph unicode="$" horiz-adv-x="1101" d="M-4 186l131 142q4 -6 13.5 -17.5t42 -40t68.5 -50t94 -40t120 -18.5q131 0 217 68.5t86 175.5q0 66 -43 117.5t-107.5 82.5t-139.5 71t-139.5 81t-107.5 114.5t-43 171.5q0 176 131.5 294t329.5 130l39 189h150l-39 -195q123 -18 209 -73.5t86 -143.5q0 -33 -7 -61 l-20 -99h-182l8 48q6 23 6 43q0 51 -59.5 79.5t-145.5 28.5q-139 0 -218 -66.5t-79 -160.5q0 -74 59.5 -125t145.5 -89t171 -82t144.5 -128t59.5 -205q0 -184 -129 -310t-338 -141l-35 -186h-149l36 195q-111 16 -202.5 66t-126.5 91z" />
<glyph unicode="%" horiz-adv-x="1546" d="M463 864q-125 0 -201 74t-76 195q0 129 108.5 233t246.5 104q123 0 199.5 -75.5t76.5 -194.5q0 -131 -109.5 -233.5t-244.5 -102.5zM10 0l1366 1446h205l-1368 -1446h-203zM477 1016q70 0 125 54t55 126q0 55 -35.5 90t-93.5 35q-70 0 -126 -55.5t-56 -128.5 q0 -53 36 -87t95 -34zM770 244q0 129 109.5 233.5t246.5 104.5q123 0 200 -76t77 -195q0 -131 -109.5 -233.5t-246.5 -102.5q-125 0 -201 74t-76 195zM932 248q0 -53 34.5 -87t94.5 -34q72 0 126 53t54 127q0 55 -36 90t-93 35q-70 0 -125 -56t-55 -128z" />
<glyph unicode="&#x26;" horiz-adv-x="1298" d="M33 356q0 139 95 260t245 162v4q-6 2 -15.5 7.5t-34 25t-44 45t-35 70.5t-15.5 100q0 199 147.5 319.5t354.5 120.5l193 -28l-78 -158q-55 14 -113 14q-119 0 -209 -74.5t-90 -199.5q0 -178 225 -178h271l39 201h198l-39 -201h191l-33 -168h-192l-37 -197 q-47 -256 -193.5 -381t-374.5 -125q-213 0 -334.5 105.5t-121.5 275.5zM244 375q0 -100 66.5 -159.5t185.5 -59.5q141 0 236 83t128 250l37 189h-276q-154 0 -265.5 -80t-111.5 -223z" />
<glyph unicode="'" horiz-adv-x="382" d="M203 1085l73 385h160l-76 -385h-157z" />
<glyph unicode="(" horiz-adv-x="565" d="M195 -195q-106 268 -107 549q0 655 424 1151h180q-426 -532 -426 -1155q0 -287 94 -545h-165z" />
<glyph unicode=")" horiz-adv-x="567" d="M-109 -195q426 537 426 1156q0 287 -94 544h168q104 -268 105 -549q0 -649 -422 -1151h-183z" />
<glyph unicode="*" horiz-adv-x="966" d="M332 674l-133 108l227 230v4l-258 74l88 167l252 -102l41 291h186l-73 -291l294 102l25 -174l-301 -79l-2 -5l135 -221l-156 -106l-116 243h-4z" />
<glyph unicode="+" horiz-adv-x="1255" d="M426 0l98 504h-458l30 160h457l100 503h168l-100 -503h457l-29 -160h-457l-98 -504h-168z" />
<glyph unicode="," horiz-adv-x="495" d="M-111 -207l209 422h199l-254 -422h-154z" />
<glyph unicode="-" horiz-adv-x="860" d="M109 496l32 176h598l-32 -176h-598z" />
<glyph unicode="." horiz-adv-x="466" d="M16 0l39 211h205l-41 -211h-203z" />
<glyph unicode="/" horiz-adv-x="866" d="M-55 -86l831 1610h189l-834 -1610h-186z" />
<glyph unicode="0" horiz-adv-x="1249" d="M102 453q0 119 20.5 248.5t70 269t122 249t188 180t257.5 70.5q428 0 428 -477q0 -119 -20.5 -249t-69.5 -269t-122 -248.5t-188.5 -180.5t-259.5 -71q-426 1 -426 478zM311 457q0 -299 224 -299q115 0 204.5 87t139 219t74 267t24.5 254q0 303 -223 303q-111 0 -200 -84 t-139 -213t-77 -268t-27 -266z" />
<glyph unicode="1" horiz-adv-x="946" d="M-20 0l30 176h320l180 934l20 88h-4q-23 -31 -86 -82l-159 -133l-99 127l412 336h188l-247 -1270h313l-35 -176h-833z" />
<glyph unicode="2" horiz-adv-x="1175" d="M106 0q-66 0 -90 29.5t-24 97.5q0 125 68.5 228.5t170 169t221.5 132.5l221 124q101 56 169.5 136t68.5 175q0 90 -58 140t-161 50q-96 0 -164.5 -41t-81.5 -104l-12 -56h-188l22 111q27 135 159 206.5t294 71.5q182 0 291.5 -95t109.5 -263q0 -104 -49 -196.5t-128 -158 t-174 -124t-191.5 -108.5t-175 -97t-128 -101.5t-49.5 -113.5q0 -20 9.5 -28.5t35.5 -8.5h506q43 0 53 45l19 92h186l-35 -182q-14 -70 -51 -100.5t-106 -30.5h-738z" />
<glyph unicode="3" horiz-adv-x="1138" d="M-12 168l121 139q14 -16 39.5 -40.5t110.5 -66.5t173 -42q147 0 256 94t109 229q0 104 -77 161.5t-198 57.5l-92 -4l-27 107l412 407l72 62v4q-45 -6 -74 -6h-340q-45 0 -53 -45l-19 -92h-182l35 182q14 70 49 100.5t105 30.5h761l-28 -141l-471 -463q57 -8 111.5 -28.5 t107.5 -58.5t86 -104.5t33 -152.5q0 -209 -165 -366t-411 -157q-244 0 -416 162z" />
<glyph unicode="4" horiz-adv-x="1204" d="M-6 383l22 131l830 932h237l-172 -887h226l-35 -176h-225l-76 -383h-199l74 383h-682zM262 559h451l102 526l31 125h-4q-45 -66 -80 -104l-500 -543v-4z" />
<glyph unicode="5" horiz-adv-x="1124" d="M-4 164l119 133q4 -6 13 -15.5t39 -33t62.5 -42t85 -33.5t107.5 -15q154 0 269.5 100t115.5 246q0 115 -77 180.5t-202 65.5q-66 0 -131 -17.5t-98 -36.5l-31 -16l-116 45l174 594q20 68 55 97.5t102 29.5h496q72 0 97.5 -33t10.5 -102l-34 -178h-183l19 92q6 45 -37 45 h-307q-41 0 -53 -45l-80 -267l-29 -81h4q82 41 201 41q186 0 308 -113t122 -293q0 -223 -178 -380t-422 -157q-82 0 -155 19.5t-120 47.5t-81.5 55.5t-49.5 45.5z" />
<glyph unicode="6" horiz-adv-x="1191" d="M88 502q0 115 33 243.5t102.5 258t163.5 232.5t228.5 168.5t285.5 65.5q176 0 287 -61l-86 -166q-84 47 -205 47q-190 0 -331.5 -144.5t-207.5 -346.5h4q57 63 148.5 100t183.5 37q184 0 291 -109.5t107 -281.5q0 -221 -152 -395.5t-391 -174.5q-209 0 -335 142.5 t-126 384.5zM295 479q0 -127 72.5 -224t191.5 -97q137 0 231.5 110.5t94.5 263.5q0 106 -64.5 170t-185.5 64q-127 0 -233.5 -83t-106.5 -204z" />
<glyph unicode="7" horiz-adv-x="1073" d="M59 0l815 1182q47 66 74 90v4q-25 -6 -78 -6h-454q-47 0 -56 -45l-18 -92h-186l34 182q14 70 49 100.5t105 30.5h873l-27 -139l-907 -1307h-224z" />
<glyph unicode="8" horiz-adv-x="1202" d="M49 356q0 250 324 451q-133 98 -133 244q0 164 139 291.5t366 127.5q193 0 304.5 -89t111.5 -240q0 -215 -258 -439q160 -106 160 -266q0 -188 -162 -324.5t-399 -136.5q-203 0 -328 104.5t-125 276.5zM762 778q31 25 67.5 63t82.5 119.5t46 155.5q0 82 -58 130t-161 48 q-127 0 -212 -70.5t-85 -170.5q0 -41 15.5 -74t57.5 -63.5t65.5 -45t94.5 -49.5zM260 379q0 -104 71.5 -164.5t182.5 -60.5q131 0 234.5 76.5t103.5 199.5q0 43 -19.5 79t-60.5 65.5t-77 49t-98 49t-93 46.5q-244 -154 -244 -340z" />
<glyph unicode="9" horiz-adv-x="1189" d="M53 39l82 164q86 -45 203 -45q190 0 331.5 144t207.5 347h-5q-55 -61 -147 -98t-186 -37q-184 0 -290 108.5t-106 280.5q0 141 64.5 269t191.5 213t287 85q209 0 335 -142t126 -384q0 -113 -34 -242t-102.5 -258t-162.5 -233.5t-228.5 -170t-285.5 -65.5 q-78 0 -148.5 16.5t-101.5 33.5zM596 684q127 0 235.5 82t108.5 201q0 129 -71.5 226t-190.5 97q-139 0 -233.5 -110.5t-94.5 -266.5q0 -104 63.5 -166.5t182.5 -62.5z" />
<glyph unicode=":" horiz-adv-x="464" d="M174 825l39 211h205l-41 -211h-203zM12 0l39 211h205l-41 -211h-203z" />
<glyph unicode=";" horiz-adv-x="555" d="M242 825l41 211h202l-41 -211h-202zM-66 -207l185 422h198l-231 -422h-152z" />
<glyph unicode="&#x3c;" horiz-adv-x="1255" d="M102 516v135l955 426v-182l-731 -309v-4l731 -310v-182z" />
<glyph unicode="=" horiz-adv-x="1255" d="M131 696v160h977v-160h-977zM131 309v160h977v-160h-977z" />
<glyph unicode="&#x3e;" horiz-adv-x="1255" d="M197 90v182l731 310v4l-731 309v182l954 -426v-135z" />
<glyph unicode="?" horiz-adv-x="964" d="M264 397l19 97q18 90 72.5 165.5t118.5 125.5l127 100q62 49 104.5 108.5t42.5 128.5q0 74 -53.5 120t-143.5 46q-131 -2 -250 -86l-88 154l51 33q33 20 128 53t186 33q166 0 273 -89.5t107 -238.5q0 -100 -45 -184t-111.5 -140.5t-135 -105.5t-124 -109.5t-67.5 -126.5 l-18 -84h-193zM182 0l41 201h205l-39 -201h-207z" />
<glyph unicode="@" horiz-adv-x="1609" d="M61 373q0 231 125 434t337 323.5t456 120.5q223 0 335.5 -97t112.5 -253q0 -43 -10 -94l-106 -551h147l-28 -150h-537q-174 0 -276.5 95.5t-102.5 236.5q0 176 144.5 307.5t371.5 131.5h211q2 20 2 36q0 74 -76.5 124t-208.5 50q-184 0 -345.5 -102t-256 -267t-94.5 -345 q0 -209 129 -340t352 -131l-32 -158q-285 0 -467.5 175t-182.5 454zM717 449q0 -86 53 -139.5t143 -53.5h207l94 483h-202q-119 0 -207 -88.5t-88 -201.5z" />
<glyph unicode="A" horiz-adv-x="1359" d="M-86 0l35 176h37q43 0 67 45l690 1225h218l213 -1229q4 -25 14 -33t35 -8h39l-35 -176h-123q-68 0 -93.5 23.5t-37.5 95.5l-49 297h-533l-166 -297q-39 -72 -73.5 -95.5t-100.5 -23.5h-137zM475 588h432l-73 440l-17 203h-4q-57 -127 -96 -203z" />
<glyph unicode="B" horiz-adv-x="1259" d="M115 92q0 25 10 76l213 1102h-133l35 176h606q168 0 267 -83t99 -228q0 -127 -72.5 -226.5t-178.5 -144.5v-4q84 -33 133 -110t49 -187q0 -160 -98.5 -276.5t-239.5 -161.5q-80 -25 -182 -25h-392q-116 0 -116 92zM459 838h293q104 0 179 76.5t75 183.5q0 82 -48.5 127 t-140.5 45h-274zM338 207q0 -31 39 -31h260q66 0 108 19q84 31 135.5 106.5t51.5 169.5q0 96 -56.5 147.5t-156.5 51.5h-293l-80 -416q-8 -37 -8 -47z" />
<glyph unicode="C" horiz-adv-x="1437" d="M86 604q0 221 111.5 420t310.5 322.5t434 123.5q115 0 225.5 -27.5t193.5 -95t83 -159.5q0 -35 -12 -90l-17 -82h-186l14 78q2 12 2 23q0 51 -45 87q-55 45 -124.5 60.5t-137.5 15.5q-256 0 -447.5 -194.5t-191.5 -469.5q0 -201 118 -324.5t320 -123.5q129 0 254 46 t217 128l92 -160q-104 -94 -262.5 -150.5t-322.5 -56.5q-276 0 -452.5 177.5t-176.5 451.5z" />
<glyph unicode="D" horiz-adv-x="1478" d="M115 92q0 25 10 76l213 1102h-133l35 176h567q297 0 463 -150.5t166 -433.5q0 -358 -247 -610t-626 -252h-330q-118 0 -118 92zM338 207q0 -31 39 -31h186q291 0 474.5 196.5t183.5 475.5q0 211 -115 316.5t-330 105.5h-233l-197 -1016q-8 -37 -8 -47z" />
<glyph unicode="E" horiz-adv-x="1175" d="M115 92q0 25 10 76l213 1102h-133l35 176h839q119 0 119 -92q0 -20 -8 -74l-29 -147h-188l12 57q6 35 6 49q0 31 -41 31h-407l-88 -453h508l-35 -176h-508l-74 -387q-8 -37 -8 -47q0 -31 39 -31h422q43 0 53 45l18 92h187l-35 -186q-14 -70 -49 -98.5t-101 -28.5h-639 q-118 0 -118 92z" />
<glyph unicode="F" horiz-adv-x="1064" d="M90 0l248 1270h-133l35 176h786q121 0 121 -92q0 -29 -10 -74l-29 -147h-186l10 57q8 45 8 49q0 31 -43 31h-354l-92 -475h493l-33 -177h-495l-121 -618h-205z" />
<glyph unicode="G" horiz-adv-x="1497" d="M84 590q0 229 114.5 431t317.5 325.5t442 123.5q274 0 455 -151l29 -27l-119 -149l-15 15q-9 9 -45 32.5t-75 42t-102.5 34t-129.5 15.5q-266 0 -462.5 -200.5t-196.5 -475.5q0 -205 117.5 -323.5t310.5 -118.5q74 0 147.5 19.5t126 48t94.5 56t62 48.5l21 18l22 117 q6 29 6 45q0 31 -39 31h-92l33 168h186q119 0 119 -94q0 -18 -8 -72l-109 -549h-178l19 94l14 60h-4q-66 -68 -192 -123.5t-279 -55.5q-260 0 -425 170.5t-165 444.5z" />
<glyph unicode="H" horiz-adv-x="1562" d="M90 0l232 1188q8 41 8 51q0 31 -41 31h-84l35 176h196q119 0 119 -92q0 -29 -10 -74l-92 -471h735l100 512q14 70 49 97.5t101 27.5h215l-35 -176h-92q-43 0 -51 -45l-238 -1225h-205l123 635h-737l-123 -635h-205z" />
<glyph unicode="I" horiz-adv-x="673" d="M-18 0l32 176h140l213 1094h-140l33 176h477l-32 -176h-142l-213 -1094h139l-32 -176h-475z" />
<glyph unicode="J" horiz-adv-x="1054" d="M-10 311q0 35 12 113l10 63h205l-10 -55q-8 -61 -8 -84q0 -94 52 -137t132 -43q96 0 173 62.5t101 193.5l150 770q8 41 8 45q0 31 -41 31h-350l35 176h461q119 0 118 -92q0 -18 -8 -72l-172 -885q-43 -217 -178 -319.5t-303 -102.5q-164 0 -275.5 88t-111.5 248z" />
<glyph unicode="K" horiz-adv-x="1271" d="M90 0l232 1188q8 41 8 49q0 33 -41 33h-84l35 176h196q119 0 119 -92q0 -29 -10 -74l-86 -442h139q82 0 119 51l430 557h237l-466 -600q-53 -70 -99 -94v-4q33 -27 51 -91l136 -432q14 -49 75 -49h66l-35 -176h-133q-68 0 -103.5 25.5t-52.5 85.5l-153 499 q-16 53 -111 54h-135l-129 -664h-205z" />
<glyph unicode="L" horiz-adv-x="1112" d="M117 92q0 25 10 76l197 1020q8 41 8 51q0 31 -41 31h-84l35 176h196q119 0 119 -92q0 -29 -10 -74l-199 -1026q-8 -37 -8 -47q0 -31 39 -31h397q45 0 55 45l17 92h188l-37 -186q-12 -70 -46.5 -98.5t-100.5 -28.5h-616q-119 0 -119 92z" />
<glyph unicode="M" horiz-adv-x="1787" d="M-61 0l32 176h68q43 0 55 45l336 1225h207l188 -768l35 -182h4q53 98 107 182l489 768h219l-135 -1190q-4 -37 -4 -49q0 -31 35 -31h70l-35 -176h-168q-66 0 -94.5 23.5t-28.5 76.5q0 6 6 56l86 739l37 213h-4q-70 -139 -119 -213l-416 -635h-172l-168 635l-34 215h-5 q-25 -131 -47 -215l-209 -772q-18 -68 -51 -95.5t-96 -27.5h-188z" />
<glyph unicode="N" horiz-adv-x="1558" d="M-45 0l35 176h86q47 0 55 45l238 1225h180l467 -924l84 -196h4q10 115 26 196l156 799q12 70 47 97.5t101 27.5h215l-35 -176h-92q-43 0 -52 -45l-237 -1225h-180l-469 924q-37 78 -80 194h-4q-12 -113 -29 -194l-156 -801q-23 -123 -147 -123h-213z" />
<glyph unicode="O" horiz-adv-x="1636" d="M84 606q0 348 267 606t616 258q281 0 455.5 -172t174.5 -444q0 -231 -124.5 -436t-329.5 -324t-430 -119q-279 0 -454 177.5t-175 453.5zM299 616q0 -199 120 -323.5t312 -124.5q248 0 449.5 201.5t201.5 472.5q0 195 -120.5 316.5t-311.5 121.5q-252 0 -451.5 -198 t-199.5 -466z" />
<glyph unicode="P" horiz-adv-x="1216" d="M90 0l248 1270h-133l35 176h618q176 0 285.5 -101.5t109.5 -277.5q0 -160 -86 -287t-213 -190q-115 -55 -239 -55h-314l-106 -535h-205zM434 711h266q143 0 242.5 95t99.5 243q0 221 -231 221h-268z" />
<glyph unicode="Q" horiz-adv-x="1636" d="M84 606q0 229 124 430t325.5 317.5t427.5 116.5q283 0 459.5 -172t176.5 -444q0 -172 -71.5 -332t-196.5 -280l127 -156l-137 -127l-135 168q-221 -152 -465 -152q-281 0 -458 177.5t-177 453.5zM299 616q0 -199 120 -323.5t312 -124.5q174 0 330 106l-150 183l138 127 l151 -193q182 197 182 451q0 195 -120.5 316.5t-311.5 121.5q-252 0 -451.5 -198t-199.5 -466z" />
<glyph unicode="R" horiz-adv-x="1288" d="M90 0l248 1270h-133l35 176h618q168 0 270.5 -92t102.5 -256q0 -180 -107.5 -305t-242.5 -152v-4q27 -23 41 -68l106 -340q16 -53 74 -53h59l-35 -176h-110q-72 0 -107 24.5t-55 90.5l-123 383q-16 49 -39.5 63t-81.5 14h-200l-115 -575h-205zM442 752h269q127 0 218 91 t91 226q0 201 -207 201h-270z" />
<glyph unicode="S" d="M-8 186l129 142q4 -6 13 -17.5t42 -40t70 -50t95 -40t120 -18.5q131 0 216 68.5t85 175.5q0 78 -59.5 134t-144.5 96t-170 85t-144.5 127t-59.5 196q0 188 147.5 307t364.5 119q152 0 273 -59t121 -166q0 -33 -7 -61l-20 -99h-184l10 48q6 23 6 43q0 51 -59.5 79.5 t-147.5 28.5q-137 0 -217 -66.5t-80 -160.5q0 -72 59.5 -124t144.5 -90t171 -82t145.5 -129t59.5 -204q0 -195 -142.5 -324t-369.5 -129q-264 0 -434 175z" />
<glyph unicode="T" horiz-adv-x="1290" d="M424 0l248 1270h-291q-47 0 -55 -45l-17 -92h-184l39 196q12 66 42 91.5t97 25.5h987q115 0 115 -92q0 -29 -10 -74l-29 -147h-182l12 57q6 35 6 49q0 31 -41 31h-284l-248 -1270h-205z" />
<glyph unicode="U" horiz-adv-x="1511" d="M172 403q0 55 12 117l131 668q8 41 9 51q0 31 -41 31h-84l34 176h195q121 0 121 -92q0 -6 -10 -74l-150 -768q-10 -39 -10 -86q0 -123 75.5 -190.5t211.5 -67.5q160 0 272.5 93t144.5 255l156 805q14 70 49 97.5t101 27.5h215l-35 -176h-92q-43 0 -52 -45l-143 -738 q-45 -231 -213 -371.5t-414 -140.5q-223 0 -353 116.5t-130 311.5z" />
<glyph unicode="V" horiz-adv-x="1363" d="M442 0l-215 1225q-8 45 -51 45h-37l35 176h133q61 0 88 -25.5t37 -93.5l146 -891l14 -198h4q49 117 96 198l490 891q39 72 74.5 95.5t103.5 23.5h135l-35 -176h-35q-47 0 -71 -45l-692 -1225h-220z" />
<glyph unicode="W" horiz-adv-x="1970" d="M315 0l-77 1221q-2 49 -50 49h-43l35 176h131q70 0 102.5 -25.5t35.5 -93.5l45 -930l-2 -153h4q27 74 63 153l496 1045h184l66 -1045v-153h4q25 76 59 153l406 930q51 119 176 119h145l-35 -176h-41q-49 0 -69 -45l-555 -1225h-240l-65 913q-5 63 -6 131q0 34 1 68h-4 q-39 -104 -84 -197l-442 -915h-240z" />
<glyph unicode="X" horiz-adv-x="1251" d="M-74 0l602 752l-202 467q-25 51 -86 51h-52l35 176h111q72 0 107.5 -22.5t62.5 -88.5l114 -268l60 -168h4q59 88 123 168l211 268q49 63 91 87t112 24h137l-33 -176h-51q-63 0 -105 -49l-395 -484l322 -737h-222l-186 432l-61 160h-4q-51 -78 -117 -160l-342 -432h-236z " />
<glyph unicode="Y" horiz-adv-x="1234" d="M391 0l123 631l-252 588q-18 51 -72 51h-47l33 176h92q66 0 99.5 -22.5t62.5 -88.5l154 -364l57 -162h4q59 90 115 162l289 364q49 66 91 88.5t107 22.5h125l-35 -176h-47q-53 0 -90 -47l-481 -592l-123 -631h-205z" />
<glyph unicode="Z" horiz-adv-x="1257" d="M-39 0l27 135l891 1004q29 33 61.5 65.5t50.5 48.5l21 19v4q-39 -6 -107 -6h-448q-47 0 -56 -45l-18 -92h-188l36 182q23 131 158 131h926l-27 -133l-897 -1006q-29 -33 -62.5 -65.5t-52.5 -48.5l-18 -17v-4q39 4 107 4h497q47 0 56 45l16 92h188l-35 -182 q-14 -70 -51 -100.5t-106 -30.5h-969z" />
<glyph unicode="[" horiz-adv-x="567" d="M33 -63l278 1437q14 70 51 100.5t107 30.5h209l-31 -149h-119q-45 0 -53 -45l-256 -1309q-8 -45 37 -45h121l-31 -152h-207q-70 0 -95 31t-11 101z" />
<glyph unicode="\" horiz-adv-x="856" d="M469 -86l-209 1610h170l207 -1610h-168z" />
<glyph unicode="]" horiz-adv-x="565" d="M-63 -43h118q45 0 54 45l253 1309q8 45 -36 45h-121l31 149h208q70 0 94.5 -30.5t10.5 -100.5l-279 -1437q-14 -70 -51 -101t-106 -31h-205z" />
<glyph unicode="^" horiz-adv-x="1255" d="M23 506l409 940h129l410 -940h-180l-295 721l-293 -721h-180z" />
<glyph unicode="_" horiz-adv-x="1101" d="M-119 0h1102l-31 -160h-1099z" />
<glyph unicode="`" horiz-adv-x="776" d="M356 1546l-149 260h194l103 -260h-148z" />
<glyph unicode="a" d="M-10 248q0 143 107.5 236.5t256 127t330.5 33.5h51l4 21q8 57 9 84q0 154 -187 153q-66 0 -125 -18.5t-67 -61.5l-11 -59h-188l20 102q20 102 136 148.5t262 46.5q182 0 270 -77t88 -216q0 -55 -12 -121l-78 -401q-8 -33 -8 -45q0 -31 37 -31h84l-33 -170h-174 q-113 0 -113 84q0 47 21 113h-4q2 0 -12.5 -22.5t-45 -55.5t-72.5 -66t-108 -55.5t-137 -22.5q-129 0 -215 71t-86 202zM190 276.5q0 -67.5 43 -107.5t115 -40q123 0 226.5 114.5t125.5 219.5l9 37h-50q-78 0 -149.5 -9.5t-148 -31t-124 -68.5t-47.5 -114.5z" />
<glyph unicode="b" horiz-adv-x="1208" d="M29 0l231 1200q6 25 6 45q0 31 -37 31h-82l33 170h189q117 0 116 -92q0 -14 -8 -60l-61 -317l-25 -94h4q55 80 148.5 129t195.5 49q184 0 285.5 -115t101.5 -311q0 -283 -171 -471.5t-392 -188.5q-111 0 -195.5 49.5t-121.5 143.5h-4q0 -39 -9 -82l-16 -86h-188zM309 410 q0 -115 59.5 -189t174.5 -74q145 0 263 131.5t118 342.5q0 125 -62.5 195.5t-171.5 70.5q-158 0 -269.5 -144.5t-111.5 -332.5z" />
<glyph unicode="c" horiz-adv-x="1083" d="M45 434q0 256 184.5 441.5t440.5 185.5q61 0 125.5 -12.5t128 -38t96.5 -75.5q24 -36 24 -82q0 -17 -4 -36l-16 -90h-176l8 43q1 8 1 15q0 46 -55 74q-65 32 -145 32q-164 0 -286.5 -130t-122.5 -308q0 -135 76.5 -218t224.5 -83q92 0 175 30.5t120 63.5l37 30l57 -157 q-16 -16 -46 -40t-136.5 -64t-227.5 -40q-227 0 -355 127t-128 332z" />
<glyph unicode="d" horiz-adv-x="1241" d="M45 401q0 285 171 472.5t396 187.5q104 0 188.5 -47t117.5 -135h4q2 39 8 73l49 248q6 29 6 45q0 31 -37 31h-84l35 170h188q117 0 117 -90q0 -16 -8 -62l-205 -1048q-6 -29 -6 -45q0 -31 37 -31h84l-33 -170h-174q-111 0 -111 84q0 43 21 98h-4q-139 -207 -371 -207 q-184 0 -286.5 114.5t-102.5 311.5zM248 418q0 -127 61.5 -199t169.5 -72q162 0 272.5 147.5t110.5 328.5q0 117 -58.5 190.5t-172.5 73.5q-145 0 -264 -132t-119 -337z" />
<glyph unicode="e" horiz-adv-x="1105" d="M45 418q0 262 174 452.5t430 190.5q193 0 293 -104.5t100 -278.5q0 -37 -9 -83t-17 -75l-10 -26h-752q-6 -35 -6 -68q0 -123 77.5 -201t217.5 -78q80 0 161.5 30t124.5 61l43 28l58 -155l-56 -37q-35 -23 -139 -61t-205 -38q-223 0 -354 123t-131 320zM291 639h547 q6 27 6 55q0 100 -55.5 154.5t-145.5 54.5q-115 0 -210 -69.5t-142 -194.5z" />
<glyph unicode="f" horiz-adv-x="653" d="M57 0l170 877h-129l31 159h129l6 35q23 121 77 205t125 119t126 48t115 13l98 -6l-33 -166q-12 6 -57 6q-49 0 -94.5 -14t-93.5 -68.5t-64 -140.5l-6 -31h245l-32 -159h-244l-170 -877h-199z" />
<glyph unicode="g" horiz-adv-x="1220" d="M78 -186q111 -68 272 -68q332 0 391 320l31 116h-4q-125 -170 -319 -170q-186 0 -292 116t-106 304q0 150 61.5 291t190.5 239.5t297 98.5q131 0 216 -51.5t104 -122.5h4q-2 14 2 43q20 106 139 106h195l-35 -170h-84q-43 0 -54 -43l-153 -790q-31 -160 -124 -267.5 t-207 -151.5t-245 -44q-215 0 -368 88zM254 446q0 -121 63.5 -191.5t178.5 -70.5q166 0 261 151.5t95 330.5q0 223 -238 223q-164 0 -262 -133.5t-98 -309.5z" />
<glyph unicode="h" horiz-adv-x="1253" d="M29 0l233 1198q0 6 2 16.5t3 18.5t1 12q0 31 -37 31h-84l33 170h191q117 0 116 -92q0 -14 -8 -60l-73 -379l-23 -90h4q61 88 171 162t253 74q145 0 220 -73t75 -208q0 -59 -12 -127l-82 -420q-4 -20 -4 -32q0 -31 36 -31h84l-32 -170h-191q-117 0 -117 94q0 23 7 47 l94 480q10 55 10 100q0 158 -160 158q-150 0 -269.5 -122t-147.5 -274l-95 -483h-198z" />
<glyph unicode="i" horiz-adv-x="559" d="M305 1239l41 207h178l-41 -207h-178zM84 94q0 29 4 51l127 646q6 31 6 45q0 31 -37 30h-84l33 170h189q117 0 116 -92q0 -16 -8 -61l-127 -650q-4 -20 -4 -32q0 -31 37 -31h84l-33 -170h-190q-113 0 -113 94z" />
<glyph unicode="j" horiz-adv-x="522" d="M303 1239l41 207h178l-39 -207h-180zM57 -10l156 801q6 31 6 45q0 31 -37 30h-84l35 170h189q117 0 116 -90q0 -10 -8 -63l-178 -920q-18 -100 -62.5 -174t-92.5 -112.5t-109.5 -62.5t-103.5 -30t-87 -6l-84 4l33 170q18 -2 43 -2q221 0 268 240z" />
<glyph unicode="k" horiz-adv-x="1073" d="M29 0l231 1200q6 25 6 45q0 31 -37 31h-82l33 170h189q117 0 116 -92q0 -14 -8 -60l-123 -639h90q66 0 105 45l307 336h240l-359 -387q-25 -25 -48 -44t-36 -27l-12 -7v-4q25 -12 49 -78l105 -278q8 -25 26.5 -33t57.5 -8h63l-33 -170h-135q-68 0 -95.5 18.5t-49.5 77.5 l-127 344q-16 47 -90 47h-90l-97 -487h-196z" />
<glyph unicode="l" horiz-adv-x="548" d="M72 94q0 23 6 47l205 1059q6 31 6 45q0 31 -37 31h-84l35 170h188q117 0 117 -92q0 -14 -8 -60l-207 -1061q-6 -31 -6 -32q0 -31 39 -31h84l-33 -170h-191q-114 0 -114 94z" />
<glyph unicode="m" horiz-adv-x="1923" d="M59 0l154 793q6 23 6 41q0 33 -39 32h-80l31 170h188q111 0 111 -92q0 -41 -22 -123h4q57 90 163.5 165t245.5 75q121 0 186.5 -61.5t75.5 -176.5h4q59 90 171 164t249 74q270 0 271 -268q0 -47 -15 -129l-84 -431q-4 -20 -4 -32q0 -31 37 -31h84l-33 -170h-190 q-117 0 -117 94q0 23 6 47l94 482q12 55 13 106q0 150 -139 150q-137 0 -249 -125t-143 -283l-92 -471h-198l122 623q12 55 13 106q0 150 -140 150q-143 0 -252.5 -125t-140.5 -283l-92 -471h-199z" />
<glyph unicode="n" horiz-adv-x="1284" d="M59 0l154 793q6 23 6 41q0 33 -39 32h-80l31 170h188q111 0 111 -92q0 -31 -24 -129h4q61 92 171.5 169t260.5 77q145 0 220 -73t75 -208q0 -59 -13 -127l-82 -420q-4 -20 -4 -32q0 -31 37 -31h84l-33 -170h-190q-117 0 -117 94q0 23 6 47l95 480q10 55 10 100 q0 158 -160 158q-150 0 -269.5 -122t-148.5 -274l-94 -483h-199z" />
<glyph unicode="o" horiz-adv-x="1257" d="M43 432q0 262 197.5 445.5t457.5 183.5q213 0 346.5 -126t133.5 -327q0 -264 -199 -448.5t-457 -184.5q-213 0 -346 127t-133 330zM246 440q0 -131 81 -212t212 -81q166 0 301 132.5t135 318.5q0 129 -82 210t-211 81q-168 0 -302 -131.5t-134 -317.5z" />
<glyph unicode="p" horiz-adv-x="1241" d="M-23 -410l234 1194q6 35 6 52q0 31 -35 30h-84l33 170h184q109 0 109 -75q0 -41 -21 -99h5q129 199 366 199q180 0 282.5 -116t102.5 -318q0 -276 -172 -464t-395 -188q-102 0 -185 47.5t-122 133.5h-4q-4 -43 -15 -97l-90 -469h-199zM342 418q0 -119 58.5 -195 t168.5 -76q147 0 267 130.5t120 334.5q0 133 -61 204t-172 71q-156 0 -268.5 -143.5t-112.5 -325.5z" />
<glyph unicode="q" horiz-adv-x="1239" d="M47 397q0 289 170 476.5t401 187.5q236 0 308 -178h4q14 78 45 115.5t102 37.5h197l-31 -170h-84q-47 0 -55 -45l-240 -1231h-198l92 473l26 97h-4q-49 -76 -138 -130.5t-206 -54.5q-184 0 -286.5 113.5t-102.5 308.5zM250 414q0 -125 62.5 -196t170.5 -71 q158 0 269.5 146.5t111.5 331.5q0 115 -58 188.5t-173 73.5q-145 0 -264 -131t-119 -342z" />
<glyph unicode="r" horiz-adv-x="774" d="M59 0l158 821q1 7 1 13q0 32 -38 32h-82l33 170h191q111 0 110 -88q0 -70 -37 -176h4q57 117 160 197t223 80q27 0 52 -5l-39 -196q-25 6 -56 6q-139 0 -253.5 -133t-151.5 -326l-76 -395h-199z" />
<glyph unicode="s" horiz-adv-x="927" d="M-25 152l103 131q12 -16 35.5 -41t103.5 -65t170 -40t147.5 40t57.5 106q0 31 -13.5 55t-45 44.5t-53 31t-68.5 28.5q-66 25 -107 46.5t-90 57.5t-73.5 87t-24.5 117q0 147 117.5 229t285.5 82q145 0 257 -59q93 -49 93 -131q0 -17 -4 -35l-16 -74h-174l6 39q1 7 1 13 q0 35 -38 58q-45 29 -129 29q-90 0 -144.5 -38t-54.5 -99q0 -29 13.5 -52.5t28 -38t50 -32.5t50 -24.5t61.5 -24.5q63 -27 100 -45.5t84.5 -53t70 -83t22.5 -109.5q0 -143 -116 -234.5t-298 -91.5q-80 0 -150.5 18.5t-115.5 44t-79 51.5t-48 44z" />
<glyph unicode="t" horiz-adv-x="702" d="M131 283q0 49 12 104l95 490h-136l33 159h139l56 285h194l-55 -285h248l-31 -159h-250l-90 -467q-8 -57 -8 -78q0 -164 178 -164l51 4l-35 -176q-29 -4 -71 -4q-51 0 -102.5 12t-105.5 41t-88 90.5t-34 147.5z" />
<glyph unicode="u" horiz-adv-x="1294" d="M131 256q0 59 12 129l82 418q6 31 6 35q0 29 -38 28h-84l32 170h193q115 0 115 -94q0 -20 -7 -47l-92 -477q-12 -53 -12 -103q0 -156 156 -155q147 0 267 132t150 292l88 452h199l-154 -792q-6 -18 -6 -41q0 -33 39 -33h82l-33 -170h-188q-111 0 -111 92q0 29 25 131h-4 q-57 -92 -168 -170t-258 -78q-141 0 -216 73t-75 208z" />
<glyph unicode="v" horiz-adv-x="1087" d="M303 0l-158 819q-8 47 -49 47h-26l32 170h101q106 0 127 -110l106 -590l13 -135h4q31 80 61 135l338 596q35 61 67.5 82.5t100.5 21.5h119l-35 -170h-27q-43 0 -67 -41l-478 -825h-229z" />
<glyph unicode="w" horiz-adv-x="1720" d="M266 0l-112 825q-6 41 -50 41h-34l34 170h132q104 0 116 -114l64 -613l4 -110h4q23 57 49 110l363 723h186l82 -723l6 -110h4q20 57 47 110l303 617q33 68 66 89t100 21h139l-32 -170h-29q-49 0 -72 -41l-434 -825h-223l-86 666l-8 112h-4q-23 -59 -50 -112l-339 -666 h-226z" />
<glyph unicode="x" horiz-adv-x="1060" d="M-61 0l458 541l-145 286q-23 39 -82 39h-59l32 170h127q59 0 89 -22.5t61 -85.5l94 -197l23 -63h4q27 39 47 65l157 195q55 68 89 88t102 20h149l-34 -170h-58q-63 0 -96 -37l-274 -315l274 -514h-213l-174 330l-25 57h-4q-16 -29 -41 -57l-272 -330h-229z" />
<glyph unicode="y" horiz-adv-x="1110" d="M57 -430q-61 0 -118.5 25.5t-83.5 52.5l-27 24l86 142q74 -74 149 -74q113 0 207 151l74 117l-194 817q-10 41 -58 41h-24l32 170h133q47 0 69 -24.5t34 -79.5l121 -584l14 -125h4q29 72 57 125l330 584q35 59 72 81.5t100 22.5h127l-33 -170h-26q-49 0 -74 -41 l-608 -1018q-140 -237 -363 -237z" />
<glyph unicode="z" horiz-adv-x="1073" d="M-35 0l29 145l637 617l112 104v4q-43 -4 -92 -4h-289q-45 0 -55 -45l-14 -69h-176l28 153q14 70 51 100.5t107 30.5h739l-28 -145l-641 -619l-115 -102v-4q39 4 107 4h329q43 0 54 47l12 68h178l-31 -154q-14 -70 -51 -100.5t-106 -30.5h-785z" />
<glyph unicode="{" horiz-adv-x="649" d="M129 66q0 39 10 104l35 184q6 35 6 60q0 68 -33.5 108.5t-68.5 46.5l-33 9l35 176q6 0 18.5 2t45 16t60 36.5t54.5 68t39 104.5l37 184q72 367 444 342l-28 -151q-29 2 -61 -4t-70.5 -24.5t-70.5 -67t-46 -119.5l-43 -226q-35 -170 -185 -235l-32 -12v-4l12 -7 q8 -4 29.5 -21.5t37 -40t28.5 -60t13 -82.5q0 -27 -6 -60l-43 -219q-8 -53 -8 -76q0 -49 18.5 -80.5t48 -45t54.5 -16.5t51 -1l-28 -152q-20 -4 -50 -4q-27 0 -55.5 5.5t-69.5 21.5t-71.5 44t-52 78t-21.5 118z" />
<glyph unicode="|" horiz-adv-x="643" d="M240 -326v1948h176v-1948h-176z" />
<glyph unicode="}" horiz-adv-x="649" d="M-82 -45q41 -6 85 5t94 64.5t67 145.5l49 244q10 59 36.5 107t56.5 74t58.5 43t47.5 24l18 6v4q-14 6 -33.5 18t-53.5 64.5t-34 122.5q0 29 6 61l39 203q8 53 8 71q0 49 -18 81t-49 45.5t-55.5 16.5t-51.5 1l31 151q45 6 96.5 -2t103.5 -33.5t86 -84t34 -142.5 q0 -49 -13 -104l-30 -164q-6 -35 -7 -59q0 -129 115 -160l23 -4l-35 -176q-6 0 -18.5 -2.5t-45 -16.5t-60.5 -36.5t-54.5 -67.5t-38.5 -105l-41 -205q-74 -375 -447 -344z" />
<glyph unicode="~" horiz-adv-x="1193" d="M104 418q0 174 75 260t210 86q74 0 131.5 -32t88 -68.5t76.5 -68.5t97 -32q74 0 106 57.5t32 135.5h161q0 -174 -74.5 -260t-209.5 -86q-74 0 -131.5 30.5t-89 68.5t-77.5 68.5t-98 30.5q-72 0 -103.5 -57t-31.5 -133h-162z" />
<glyph unicode="&#xa1;" horiz-adv-x="516" d="M199 838l39 198h204l-41 -198h-202zM-45 -410l219 1049h178l-190 -1049h-207z" />
<glyph unicode="&#xa2;" horiz-adv-x="1146" d="M397 -27l35 181q-156 31 -245 148.5t-89 299.5q0 262 162 469t395 227l33 172h146l-35 -180q78 -14 138 -51t93 -80t54.5 -84t27.5 -67l6 -27l-180 -68l-5 22q-3 13 -19.5 48t-40 61.5t-69.5 48t-106 21.5q-170 0 -283.5 -149.5t-113.5 -358.5q0 -125 63.5 -198.5 t182.5 -73.5q90 0 170 50t114 99l33 49l172 -71q-6 -12 -17 -31.5t-54 -72t-92.5 -93.5t-129 -77.5t-168.5 -43.5l-32 -170h-146z" />
<glyph unicode="&#xa3;" horiz-adv-x="1187" d="M-14 0l34 176h121l95 477h-99l29 144h96l57 293q33 164 170.5 272t321.5 108q98 0 182 -34.5t121 -69.5l35 -35l-129 -125q-8 8 -25.5 22.5t-74 37t-113.5 22.5q-111 0 -189.5 -63.5t-97.5 -157.5l-53 -270h377l-27 -144h-377l-94 -477h445q43 0 53 45l18 92h187 l-35 -182q-14 -70 -51 -100.5t-107 -30.5h-870z" />
<glyph unicode="&#xa5;" horiz-adv-x="1347" d="M449 0l81 418h-329l22 129h332l16 84l-39 90h-280l27 129h196l-153 369q-23 51 -74 51h-47l35 176h90q66 0 99.5 -22.5t61.5 -88.5l154 -364q14 -33 29 -73l22 -64l6 -25h4q59 90 117 162l287 364q51 66 92 88.5t107 22.5h125l-35 -176h-45q-53 0 -93 -47l-301 -373h189 l-25 -129h-270l-74 -90l-16 -84h325l-24 -129h-328l-80 -418h-204z" />
<glyph unicode="&#xa7;" horiz-adv-x="872" d="M199 227l12 789q-4 193 110.5 323.5t313.5 130.5q172 0 287 -104l8 -6l-111 -119q-68 63 -184 64q-125 0 -195.5 -81t-68.5 -208l-15 -789h-157zM-35 -16l111 120q68 -63 184 -63q125 0 195.5 80t68.5 207l15 788h157l-12 -788q4 -193 -111.5 -324t-314.5 -131 q-170 0 -287 104z" />
<glyph unicode="&#xa8;" horiz-adv-x="1026" d="M606 1599l41 207h152l-41 -207h-152zM268 1599l41 207h152l-41 -207h-152z" />
<glyph unicode="&#xa9;" horiz-adv-x="1660" d="M121 723q0 311 213 529t514 218q307 0 521 -218t214 -529t-214 -529.5t-521 -218.5q-301 0 -514 218.5t-213 529.5zM272 723q0 -256 166 -432t410 -176q248 0 417 176t169 432t-169 432t-417 176q-244 0 -410 -176t-166 -432zM461 721q0 168 111.5 288.5t291.5 120.5 q195 0 312 -165l22 -37l-125 -68q-8 14 -23.5 36t-68.5 57.5t-113 35.5q-115 0 -184.5 -79t-69.5 -189q0 -115 68 -191.5t186 -76.5q121 0 197 116l8 13l125 -68q-4 -8 -12 -21.5t-38 -49t-64.5 -62.5t-94 -48.5t-125.5 -21.5q-180 0 -291.5 120t-111.5 290z" />
<glyph unicode="&#xaa;" horiz-adv-x="901" d="M391 784q-80 0 -135 45t-55 129q0 66 35.5 114t84 71.5t114 38t107.5 17.5t85 3h26q6 35 6 55q0 88 -104 89q-92 0 -96 -37l-8 -41h-140l17 82q10 55 78.5 85.5t171.5 30.5q231 0 231 -186q0 -45 -8 -80l-47 -244q-6 -27 20 -26h53l-26 -133h-113q-84 0 -74 106h-4 q-8 -12 -24.5 -32.5t-72.5 -53.5t-122 -33zM442 905q72 0 124 57.5t69 141.5h-21q-260 0 -260 -123q0 -76 88 -76zM119 543l22 116h639l-22 -116h-639z" />
<glyph unicode="&#xab;" horiz-adv-x="1087" d="M705 158l-265 424l426 417h211l-446 -430l262 -411h-188zM297 158l-264 424l393 417h209l-412 -430l262 -411h-188z" />
<glyph unicode="&#xac;" horiz-adv-x="1327" d="M170 696v160h977v-547h-166v387h-811z" />
<glyph unicode="&#xad;" horiz-adv-x="860" d="M109 496l32 176h598l-32 -176h-598z" />
<glyph unicode="&#xae;" horiz-adv-x="1660" d="M121 723q0 311 213 529t514 218q307 0 521 -218t214 -529t-214 -529.5t-521 -218.5q-301 0 -514 218.5t-213 529.5zM272 723q0 -256 166 -432t410 -176q248 0 417 176t169 432t-169 432t-417 176q-244 0 -410 -176t-166 -432zM600 340v772h297q111 0 177.5 -64.5 t66.5 -170.5q0 -82 -43 -136.5t-99 -68.5v-4q8 -8 27 -43l148 -285h-160l-144 299h-127v-299h-143zM743 745h123q59 0 92 35t33 97q0 59 -32.5 91.5t-90.5 32.5h-125v-256z" />
<glyph unicode="&#xaf;" horiz-adv-x="950" d="M207 1606l26 139h521l-27 -139h-520z" />
<glyph unicode="&#x2c9;" horiz-adv-x="950" d="M207 1606l26 139h521l-27 -139h-520z" />
<glyph unicode="&#xb0;" horiz-adv-x="772" d="M451 864q-119 0 -198 76t-79 190q0 133 107.5 236.5t246.5 103.5q119 0 198 -75.5t79 -190.5q0 -135 -108.5 -237.5t-245.5 -102.5zM463 1014q74 0 128 54t54 128q0 55 -36 91t-93 36q-74 0 -128 -55.5t-54 -128.5q0 -55 35 -90t94 -35z" />
<glyph unicode="&#xb1;" horiz-adv-x="1255" d="M82 504v160h457v503h168v-503h456v-160h-456v-504h-168v504h-457zM115 -195h1018v-159h-1018v159z" />
<glyph unicode="&#xb2;" horiz-adv-x="837" d="M182 545q-49 0 -64.5 15t-15.5 61q0 106 57.5 185t139.5 124t164 83t139 88t57 116q0 102 -116 102q-53 0 -92 -21.5t-43 -50.5l-11 -49h-139l16 90q14 78 97.5 127t189.5 49q113 0 185.5 -60.5t72.5 -172.5q0 -92 -56 -165t-137 -117t-162 -81t-137.5 -81t-56.5 -95 q0 -14 19 -14h303q18 0 22 18l13 70h141l-25 -127q-14 -94 -112 -94h-449z" />
<glyph unicode="&#xb3;" horiz-adv-x="790" d="M391 530q-92 0 -168 34t-106 69l-31 35l100 100q8 -10 23.5 -26.5t69 -43t112.5 -26.5q78 0 136.5 54t58.5 130q0 55 -46 87t-110 32h-63l-21 72l240 235q25 25 53 43v4q-29 -6 -61 -6h-181q-20 0 -22 -20l-13 -64h-133l23 109q10 55 34.5 76.5t82.5 21.5h473l-19 -98 l-276 -267q76 -14 135 -70.5t59 -154.5q0 -127 -101.5 -226.5t-248.5 -99.5z" />
<glyph unicode="&#xb4;" horiz-adv-x="794" d="M215 1546l199 260h204l-241 -260h-162z" />
<glyph unicode="&#xb5;" horiz-adv-x="1341" d="M0 -410l240 1225q8 51 -35 51h-84l33 170h192q115 0 115 -94q0 -20 -6 -47l-93 -477q-12 -53 -12 -103q0 -156 156 -155q147 0 265 120.5t147 272.5l94 483h198l-153 -792q-6 -18 -6 -41q0 -33 39 -33h81l-32 -170h-189q-111 0 -110 92q0 29 24 131h-4 q-57 -92 -167.5 -170t-258.5 -78q-129 0 -180 72h-4q-4 -109 -17 -168l-57 -289h-176z" />
<glyph unicode="&#x3bc;" horiz-adv-x="1341" d="M0 -410l240 1225q8 51 -35 51h-84l33 170h192q115 0 115 -94q0 -20 -6 -47l-93 -477q-12 -53 -12 -103q0 -156 156 -155q147 0 265 120.5t147 272.5l94 483h198l-153 -792q-6 -18 -6 -41q0 -33 39 -33h81l-32 -170h-189q-111 0 -110 92q0 29 24 131h-4 q-57 -92 -167.5 -170t-258.5 -78q-129 0 -180 72h-4q-4 -109 -17 -168l-57 -289h-176z" />
<glyph unicode="&#xb6;" horiz-adv-x="1212" d="M424 -102l115 596q-180 0 -299 132t-99 322q23 205 193 351.5t375 146.5h569l-33 -176h-401l-269 -1372h-151zM702 -102l244 1255h154l-244 -1255h-154z" />
<glyph unicode="&#xb7;" horiz-adv-x="464" d="M106 489l39 211h205l-41 -211h-203z" />
<glyph unicode="&#x2219;" horiz-adv-x="464" d="M106 489l39 211h205l-41 -211h-203z" />
<glyph unicode="&#xb8;" horiz-adv-x="851" d="M270 -180l103 227l96 -20l-2 -17l-47 -112q49 -8 86 -43t37 -88q0 -96 -74 -143.5t-166 -47.5q-31 0 -60.5 3t-41.5 7l-15 4l23 119q39 -14 84 -14q111 0 110 76q0 53 -94 53z" />
<glyph unicode="&#xb9;" horiz-adv-x="737" d="M96 545l27 137h190l97 494l14 67h-4q-12 -20 -31 -35l-96 -78l-76 101l264 215h137l-149 -764h188l-26 -137h-535z" />
<glyph unicode="&#xba;" horiz-adv-x="931" d="M510 786q-135 0 -218 79t-83 206q0 164 124 280.5t283 116.5q135 0 219.5 -79.5t84.5 -206.5q0 -164 -126 -280t-284 -116zM522 920q94 0 171 73.5t77 180.5q0 72 -47 117.5t-119 45.5q-94 0 -170 -74.5t-76 -179.5q0 -74 45 -118.5t119 -44.5zM133 543l23 116h639 l-23 -116h-639z" />
<glyph unicode="&#xbb;" d="M438 158l416 426l-260 415h194l261 -421l-406 -420h-205zM4 158l436 426l-260 415h195l260 -421l-426 -420h-205z" />
<glyph unicode="&#xbc;" horiz-adv-x="1785" d="M414 0l870 1446h160l-869 -1446h-161zM94 545l29 137h190l95 494l16 67h-4q-14 -20 -33 -35l-96 -78l-74 101l264 215h135l-147 -764h182l-28 -137h-529zM932 231l18 95l506 577h178l-104 -538h135l-27 -134h-135l-45 -231h-155l45 231h-416zM1124 362l41 3h211l56 284 l16 74h-4l-41 -55l-244 -269l-35 -32v-5z" />
<glyph unicode="&#xbd;" horiz-adv-x="1777" d="M383 0l870 1446h160l-868 -1446h-162zM88 545l29 137h190l94 494l17 67h-4q-14 -20 -33 -35l-96 -78l-74 101l264 215h135l-147 -764h184l-29 -137h-530zM958 78q0 106 57.5 184t139.5 123t163 83t138 88t57 116q0 104 -114 104q-53 0 -93 -21.5t-44 -49.5l-9 -50h-141 l16 88q14 78 97.5 127.5t189.5 49.5q113 0 185.5 -60.5t72.5 -173.5q0 -92 -56 -164.5t-137 -117t-162 -81t-137.5 -80.5t-56.5 -96q0 -14 19 -14h305q18 0 20 19l15 69h139l-23 -125q-18 -96 -112 -96h-449q-49 0 -64.5 16.5t-15.5 61.5z" />
<glyph unicode="&#xbe;" horiz-adv-x="1787" d="M412 0l870 1446h160l-869 -1446h-161zM399 530q-57 0 -109 14.5t-86 34t-60.5 40t-37.5 34.5l-12 15l101 100q8 -10 23 -26.5t69.5 -43t113.5 -26.5q76 0 134.5 54t58.5 130q0 55 -45 87t-111 32h-63l-21 72l242 235l51 43v4q-29 -6 -61 -6h-178q-18 0 -25 -20l-12 -64 h-131l22 109q10 55 35 76.5t80 21.5h473l-19 -98l-276 -267q78 -14 137.5 -70.5t59.5 -154.5q0 -127 -103 -226.5t-250 -99.5zM934 231l18 95l506 577h178l-104 -538h135l-27 -134h-135l-45 -231h-155l45 231h-416zM1126 362l41 3h211l56 284l16 74h-4l-41 -55l-244 -269 l-35 -32v-5z" />
<glyph unicode="&#xbf;" horiz-adv-x="964" d="M678 639l-19 -96q-18 -90 -72.5 -166t-118.5 -126l-127 -99q-62 -49 -104 -108.5t-42 -129.5q0 -74 53 -120t143 -46q131 2 250 86l88 -153l-51 -33q-33 -20 -128 -53t-185 -33q-166 0 -273.5 89t-107.5 238q0 100 45 184.5t111.5 140.5t135 105.5t124 109.5t67.5 126 l18 84h193zM760 1036l-41 -200h-205l39 200h207z" />
<glyph unicode="&#xc0;" horiz-adv-x="1359" d="M-86 0l35 176h37q43 0 67 45l690 1225h218l213 -1229q4 -25 14 -33t35 -8h39l-35 -176h-123q-68 0 -93.5 23.5t-37.5 95.5l-49 297h-533l-166 -297q-39 -72 -73.5 -95.5t-100.5 -23.5h-137zM475 588h432l-73 440l-17 203h-4q-57 -127 -96 -203zM803 1546l-150 260h195 l102 -260h-147z" />
<glyph unicode="&#xc1;" horiz-adv-x="1359" d="M-86 0l35 176h37q43 0 67 45l690 1225h218l213 -1229q4 -25 14 -33t35 -8h39l-35 -176h-123q-68 0 -93.5 23.5t-37.5 95.5l-49 297h-533l-166 -297q-39 -72 -73.5 -95.5t-100.5 -23.5h-137zM475 588h432l-73 440l-17 203h-4q-57 -127 -96 -203zM795 1546l198 260h205 l-242 -260h-161z" />
<glyph unicode="&#xc2;" horiz-adv-x="1359" d="M-86 0l35 176h37q43 0 67 45l690 1225h218l213 -1229q4 -25 14 -33t35 -8h39l-35 -176h-123q-68 0 -93.5 23.5t-37.5 95.5l-49 297h-533l-166 -297q-39 -72 -73.5 -95.5t-100.5 -23.5h-137zM475 588h432l-73 440l-17 203h-4q-57 -127 -96 -203zM602 1546l227 260h183 l131 -260h-158l-76 164h-4l-137 -164h-166z" />
<glyph unicode="&#xc3;" horiz-adv-x="1359" d="M-86 0l35 176h37q43 0 67 45l690 1225h218l213 -1229q4 -25 14 -33t35 -8h39l-35 -176h-123q-68 0 -93.5 23.5t-37.5 95.5l-49 297h-533l-166 -297q-39 -72 -73.5 -95.5t-100.5 -23.5h-137zM475 588h432l-73 440l-17 203h-4q-57 -127 -96 -203zM524 1548q45 260 248 260 q53 0 91 -21.5t56.5 -48t44 -48t56.5 -21.5q43 0 70.5 40t37.5 93h136q-47 -260 -248 -260q-53 0 -91 21.5t-56.5 48t-45 48t-57.5 21.5q-43 0 -70.5 -39.5t-38.5 -93.5h-133z" />
<glyph unicode="&#xc4;" horiz-adv-x="1359" d="M-86 0l35 176h37q43 0 67 45l690 1225h218l213 -1229q4 -25 14 -33t35 -8h39l-35 -176h-123q-68 0 -93.5 23.5t-37.5 95.5l-49 297h-533l-166 -297q-39 -72 -73.5 -95.5t-100.5 -23.5h-137zM475 588h432l-73 440l-17 203h-4q-57 -127 -96 -203zM965 1599l41 207h151 l-41 -207h-151zM627 1599l41 207h151l-41 -207h-151z" />
<glyph unicode="&#xc5;" horiz-adv-x="1359" d="M-86 0l35 176h37q43 0 67 45l690 1225h218l213 -1229q4 -25 14 -33t35 -8h39l-35 -176h-123q-68 0 -93.5 23.5t-37.5 95.5l-49 297h-533l-166 -297q-39 -72 -73.5 -95.5t-100.5 -23.5h-137zM475 588h432l-73 440l-17 203h-4q-57 -127 -96 -203zM879 1520 q-63 0 -107.5 36.5t-44.5 96.5q0 78 59.5 127t133.5 49q63 0 108 -37t45 -98q0 -76 -59 -125t-135 -49zM885 1604q37 0 61.5 24.5t24.5 63.5q0 55 -58 55q-33 0 -58.5 -25.5t-25.5 -64.5q1 -53 56 -53z" />
<glyph unicode="&#xc6;" horiz-adv-x="1759" d="M12 0h-114l34 176h31q43 0 70 45l715 1225h915q119 0 119 -92q0 -20 -8 -74l-29 -147h-189l13 57q6 35 6 49q0 31 -41 31h-395l-88 -453h495l-35 -176h-495l-74 -387q-8 -37 -8 -47q0 -31 37 -31h411q43 0 54 45l18 92h186l-34 -186q-14 -70 -49 -98.5t-101 -28.5h-629 q-117 0 -116 92q0 25 10 76l90 473h-324l-297 -522q-41 -74 -73.5 -96.5t-104.5 -22.5zM588 817h258l88 453h-88z" />
<glyph unicode="&#xc7;" horiz-adv-x="1439" d="M520 -180l74 166q-229 39 -367.5 206.5t-138.5 411.5q0 221 111.5 420t310.5 322.5t434 123.5q115 0 225.5 -27.5t193.5 -95t83 -159.5q0 -35 -12 -90l-17 -82h-186l14 78q12 66 -43 110.5t-124.5 60t-137.5 15.5q-256 0 -447.5 -194.5t-191.5 -469.5q0 -201 118 -324.5 t320 -123.5q129 0 254 46t217 128l93 -160q-104 -94 -263 -150.5t-323 -56.5h-15l-32 -77q49 -8 86 -43t37 -88q0 -96 -74 -143.5t-166 -47.5q-31 0 -60.5 3t-41.5 7l-15 4l23 119q39 -14 84 -14q111 0 110 76q0 53 -94 53z" />
<glyph unicode="&#xc8;" horiz-adv-x="1175" d="M115 92q0 25 10 76l213 1102h-133l35 176h839q119 0 119 -92q0 -20 -8 -74l-29 -147h-188l12 57q6 35 6 49q0 31 -41 31h-407l-88 -453h508l-35 -176h-508l-74 -387q-8 -37 -8 -47q0 -31 39 -31h422q43 0 53 45l18 92h187l-35 -186q-14 -70 -49 -98.5t-101 -28.5h-639 q-118 0 -118 92zM713 1546l-150 260h195l102 -260h-147z" />
<glyph unicode="&#xc9;" horiz-adv-x="1175" d="M707 1546l198 260h205l-242 -260h-161zM115 92q0 25 10 76l213 1102h-133l35 176h839q119 0 119 -92q0 -20 -8 -74l-29 -147h-188l12 57q6 35 6 49q0 31 -41 31h-407l-88 -453h508l-35 -176h-508l-74 -387q-8 -37 -8 -47q0 -31 39 -31h422q43 0 53 45l18 92h187l-35 -186 q-14 -70 -49 -98.5t-101 -28.5h-639q-118 0 -118 92z" />
<glyph unicode="&#xca;" horiz-adv-x="1175" d="M512 1546l227 260h183l131 -260h-158l-76 164h-4l-137 -164h-166zM115 92q0 25 10 76l213 1102h-133l35 176h839q119 0 119 -92q0 -20 -8 -74l-29 -147h-188l12 57q6 35 6 49q0 31 -41 31h-407l-88 -453h508l-35 -176h-508l-74 -387q-8 -37 -8 -47q0 -31 39 -31h422 q43 0 53 45l18 92h187l-35 -186q-14 -70 -49 -98.5t-101 -28.5h-639q-118 0 -118 92z" />
<glyph unicode="&#xcb;" horiz-adv-x="1175" d="M874 1599l41 207h152l-41 -207h-152zM537 1599l41 207h151l-41 -207h-151zM115 92q0 25 10 76l213 1102h-133l35 176h839q119 0 119 -92q0 -20 -8 -74l-29 -147h-188l12 57q6 35 6 49q0 31 -41 31h-407l-88 -453h508l-35 -176h-508l-74 -387q-8 -37 -8 -47q0 -31 39 -31 h422q43 0 53 45l18 92h187l-35 -186q-14 -70 -49 -98.5t-101 -28.5h-639q-118 0 -118 92z" />
<glyph unicode="&#xcc;" horiz-adv-x="673" d="M-18 0l32 176h140l213 1094h-140l33 176h477l-32 -176h-142l-213 -1094h139l-32 -176h-475zM444 1546l-149 260h194l103 -260h-148z" />
<glyph unicode="&#xcd;" horiz-adv-x="673" d="M-18 0l32 176h140l213 1094h-140l33 176h477l-32 -176h-142l-213 -1094h139l-32 -176h-475zM436 1546l199 260h205l-242 -260h-162z" />
<glyph unicode="&#xce;" horiz-adv-x="673" d="M-18 0l32 176h140l213 1094h-140l33 176h477l-32 -176h-142l-213 -1094h139l-32 -176h-475zM242 1546l227 260h182l131 -260h-157l-76 164h-4l-137 -164h-166z" />
<glyph unicode="&#xcf;" horiz-adv-x="673" d="M-18 0l32 176h140l213 1094h-140l33 176h477l-32 -176h-142l-213 -1094h139l-32 -176h-475zM608 1599l41 207h152l-41 -207h-152zM270 1599l41 207h152l-41 -207h-152z" />
<glyph unicode="&#xd0;" horiz-adv-x="1480" d="M117 92q0 25 10 76l90 471h-98l31 168h100l90 463h-133l35 176h567q297 0 463 -150.5t166 -433.5q0 -358 -247 -610t-626 -252h-329q-119 0 -119 92zM340 207q0 -31 39 -31h186q291 0 474.5 196.5t183.5 475.5q0 211 -115 316.5t-330 105.5h-233l-90 -463h295l-33 -168 h-295l-74 -385q-8 -37 -8 -47z" />
<glyph unicode="&#xd1;" horiz-adv-x="1558" d="M-45 0l35 176h86q47 0 55 45l238 1225h180l467 -924l84 -196h4q10 115 26 196l156 799q12 70 47 97.5t101 27.5h215l-35 -176h-92q-43 0 -52 -45l-237 -1225h-180l-469 924q-37 78 -80 194h-4q-12 -113 -29 -194l-156 -801q-23 -123 -147 -123h-213zM629 1548 q45 260 248 260q53 0 91 -21.5t56 -48t44 -48t56 -21.5q43 0 71 40t38 93h135q-47 -260 -248 -260q-53 0 -91 21.5t-56.5 48t-45 48t-57.5 21.5q-43 0 -70.5 -39.5t-37.5 -93.5h-133z" />
<glyph unicode="&#xd2;" horiz-adv-x="1636" d="M84 606q0 348 267 606t616 258q281 0 455.5 -172t174.5 -444q0 -231 -124.5 -436t-329.5 -324t-430 -119q-279 0 -454 177.5t-175 453.5zM299 616q0 -199 120 -323.5t312 -124.5q248 0 449.5 201.5t201.5 472.5q0 195 -120.5 316.5t-311.5 121.5q-252 0 -451.5 -198 t-199.5 -466zM920 1546l-150 260h195l102 -260h-147z" />
<glyph unicode="&#xd3;" horiz-adv-x="1636" d="M911 1546l199 260h205l-242 -260h-162zM84 606q0 348 267 606t616 258q281 0 455.5 -172t174.5 -444q0 -231 -124.5 -436t-329.5 -324t-430 -119q-279 0 -454 177.5t-175 453.5zM299 616q0 -199 120 -323.5t312 -124.5q248 0 449.5 201.5t201.5 472.5q0 195 -120.5 316.5 t-311.5 121.5q-252 0 -451.5 -198t-199.5 -466z" />
<glyph unicode="&#xd4;" horiz-adv-x="1636" d="M719 1546l227 260h182l132 -260h-158l-76 164h-4l-137 -164h-166zM84 606q0 348 267 606t616 258q281 0 455.5 -172t174.5 -444q0 -231 -124.5 -436t-329.5 -324t-430 -119q-279 0 -454 177.5t-175 453.5zM299 616q0 -199 120 -323.5t312 -124.5q248 0 449.5 201.5 t201.5 472.5q0 195 -120.5 316.5t-311.5 121.5q-252 0 -451.5 -198t-199.5 -466z" />
<glyph unicode="&#xd5;" horiz-adv-x="1636" d="M84 606q0 348 267 606t616 258q281 0 455.5 -172t174.5 -444q0 -231 -124.5 -436t-329.5 -324t-430 -119q-279 0 -454 177.5t-175 453.5zM299 616q0 -199 120 -323.5t312 -124.5q248 0 449.5 201.5t201.5 472.5q0 195 -120.5 316.5t-311.5 121.5q-252 0 -451.5 -198 t-199.5 -466zM641 1548q45 260 248 260q53 0 91 -21.5t56.5 -48t44 -48t56.5 -21.5q43 0 70.5 40t37.5 93h135q-47 -260 -247 -260q-53 0 -91 21.5t-56.5 48t-45.5 48t-57 21.5q-43 0 -71 -39.5t-38 -93.5h-133z" />
<glyph unicode="&#xd6;" horiz-adv-x="1636" d="M1081 1599l41 207h152l-41 -207h-152zM743 1599l41 207h152l-41 -207h-152zM84 606q0 348 267 606t616 258q281 0 455.5 -172t174.5 -444q0 -231 -124.5 -436t-329.5 -324t-430 -119q-279 0 -454 177.5t-175 453.5zM299 616q0 -199 120 -323.5t312 -124.5 q248 0 449.5 201.5t201.5 472.5q0 195 -120.5 316.5t-311.5 121.5q-252 0 -451.5 -198t-199.5 -466z" />
<glyph unicode="&#xd7;" horiz-adv-x="1394" d="M166 113l422 471l-422 471l113 112l417 -467l420 467l113 -112l-424 -471l424 -471l-113 -113l-420 465l-417 -465z" />
<glyph unicode="&#xd8;" horiz-adv-x="1636" d="M121 18l129 142q-166 176 -166 446q0 348 267 606t616 258q217 0 376 -110l130 139l88 -74l-129 -139q166 -170 165 -432q0 -231 -124.5 -436t-329.5 -324t-430 -119q-213 0 -373 111l-129 -141zM397 319l807 885q-113 76 -254 76q-252 0 -451.5 -197.5t-199.5 -466.5 q0 -180 98 -297zM479 242q109 -74 252 -74q248 0 449.5 201.5t201.5 472.5q0 170 -96 284z" />
<glyph unicode="&#xd9;" horiz-adv-x="1511" d="M172 403q0 55 12 117l131 668q8 41 9 51q0 31 -41 31h-84l34 176h195q121 0 121 -92q0 -6 -10 -74l-150 -768q-10 -39 -10 -86q0 -123 75.5 -190.5t211.5 -67.5q160 0 272.5 93t144.5 255l156 805q14 70 49 97.5t101 27.5h215l-35 -176h-92q-43 0 -52 -45l-143 -738 q-45 -231 -213 -371.5t-414 -140.5q-223 0 -353 116.5t-130 311.5zM864 1546l-149 260h194l103 -260h-148z" />
<glyph unicode="&#xda;" horiz-adv-x="1511" d="M856 1546l199 260h205l-242 -260h-162zM172 403q0 55 12 117l131 668q8 41 9 51q0 31 -41 31h-84l34 176h195q121 0 121 -92q0 -6 -10 -74l-150 -768q-10 -39 -10 -86q0 -123 75.5 -190.5t211.5 -67.5q160 0 272.5 93t144.5 255l156 805q14 70 49 97.5t101 27.5h215 l-35 -176h-92q-43 0 -52 -45l-143 -738q-45 -231 -213 -371.5t-414 -140.5q-223 0 -353 116.5t-130 311.5z" />
<glyph unicode="&#xdb;" horiz-adv-x="1511" d="M664 1546l227 260h182l131 -260h-157l-76 164h-4l-138 -164h-165zM172 403q0 55 12 117l131 668q8 41 9 51q0 31 -41 31h-84l34 176h195q121 0 121 -92q0 -6 -10 -74l-150 -768q-10 -39 -10 -86q0 -123 75.5 -190.5t211.5 -67.5q160 0 272.5 93t144.5 255l156 805 q14 70 49 97.5t101 27.5h215l-35 -176h-92q-43 0 -52 -45l-143 -738q-45 -231 -213 -371.5t-414 -140.5q-223 0 -353 116.5t-130 311.5z" />
<glyph unicode="&#xdc;" horiz-adv-x="1511" d="M1026 1599l41 207h152l-41 -207h-152zM688 1599l41 207h152l-41 -207h-152zM172 403q0 55 12 117l131 668q8 41 9 51q0 31 -41 31h-84l34 176h195q121 0 121 -92q0 -6 -10 -74l-150 -768q-10 -39 -10 -86q0 -123 75.5 -190.5t211.5 -67.5q160 0 272.5 93t144.5 255 l156 805q14 70 49 97.5t101 27.5h215l-35 -176h-92q-43 0 -52 -45l-143 -738q-45 -231 -213 -371.5t-414 -140.5q-223 0 -353 116.5t-130 311.5z" />
<glyph unicode="&#xdd;" horiz-adv-x="1234" d="M391 0l123 631l-252 588q-18 51 -72 51h-47l33 176h92q66 0 99.5 -22.5t62.5 -88.5l154 -364l57 -162h4q59 90 115 162l289 364q49 66 91 88.5t107 22.5h125l-35 -176h-47q-53 0 -90 -47l-481 -592l-123 -631h-205zM709 1546l198 260h205l-242 -260h-161z" />
<glyph unicode="&#xde;" horiz-adv-x="1214" d="M90 0l240 1225q8 45 -37 45h-88l35 176h206q111 0 111 -86q0 -20 -6 -45l-23 -115h281q180 0 287.5 -100.5t107.5 -270.5q0 -233 -162.5 -386.5t-382.5 -153.5h-307l-57 -289h-205zM387 465h266q141 0 239.5 98.5t98.5 253.5q0 98 -59.5 152.5t-167.5 54.5h-268z" />
<glyph unicode="&#xdf;" horiz-adv-x="1206" d="M-68 0l35 170h74q45 0 53 43l174 889q33 172 173.5 270t308.5 98q164 0 263 -80.5t99 -207.5q0 -82 -45 -151.5t-98.5 -107.5t-98.5 -86.5t-45 -91.5q0 -41 44 -89t97.5 -87t97.5 -104.5t44 -136.5q0 -141 -118 -241.5t-271 -100.5q-86 0 -162 14t-108 29l-33 16l35 172 q100 -59 254 -59q76 0 138 43t62 127q0 43 -29.5 84t-71.5 75l-83 70q-41 35 -70.5 81t-29.5 95q0 70 45 132.5t99 102.5t99 92t45 103q0 57 -43 96t-125 39q-98 0 -178 -59t-102 -168l-182 -940q-14 -68 -50 -99.5t-104 -31.5h-193z" />
<glyph unicode="&#xe0;" d="M-10 248q0 143 107.5 236.5t256 127t330.5 33.5h51l4 21q8 57 9 84q0 154 -187 153q-66 0 -125 -18.5t-67 -61.5l-11 -59h-188l20 102q20 102 136 148.5t262 46.5q182 0 270 -77t88 -216q0 -55 -12 -121l-78 -401q-8 -33 -8 -45q0 -31 37 -31h84l-33 -170h-174 q-113 0 -113 84q0 47 21 113h-4q2 0 -12.5 -22.5t-45 -55.5t-72.5 -66t-108 -55.5t-137 -22.5q-129 0 -215 71t-86 202zM190 276.5q0 -67.5 43 -107.5t115 -40q123 0 226.5 114.5t125.5 219.5l9 37h-50q-78 0 -149.5 -9.5t-148 -31t-124 -68.5t-47.5 -114.5zM561 1188 l-149 260h194l103 -260h-148z" />
<glyph unicode="&#xe1;" d="M-10 248q0 143 107.5 236.5t256 127t330.5 33.5h51l4 21q8 57 9 84q0 154 -187 153q-66 0 -125 -18.5t-67 -61.5l-11 -59h-188l20 102q20 102 136 148.5t262 46.5q182 0 270 -77t88 -216q0 -55 -12 -121l-78 -401q-8 -33 -8 -45q0 -31 37 -31h84l-33 -170h-174 q-113 0 -113 84q0 47 21 113h-4q2 0 -12.5 -22.5t-45 -55.5t-72.5 -66t-108 -55.5t-137 -22.5q-129 0 -215 71t-86 202zM190 276.5q0 -67.5 43 -107.5t115 -40q123 0 226.5 114.5t125.5 219.5l9 37h-50q-78 0 -149.5 -9.5t-148 -31t-124 -68.5t-47.5 -114.5zM555 1188 l199 260h204l-241 -260h-162z" />
<glyph unicode="&#xe2;" d="M-10 248q0 143 107.5 236.5t256 127t330.5 33.5h51l4 21q8 57 9 84q0 154 -187 153q-66 0 -125 -18.5t-67 -61.5l-11 -59h-188l20 102q20 102 136 148.5t262 46.5q182 0 270 -77t88 -216q0 -55 -12 -121l-78 -401q-8 -33 -8 -45q0 -31 37 -31h84l-33 -170h-174 q-113 0 -113 84q0 47 21 113h-4q2 0 -12.5 -22.5t-45 -55.5t-72.5 -66t-108 -55.5t-137 -22.5q-129 0 -215 71t-86 202zM190 276.5q0 -67.5 43 -107.5t115 -40q123 0 226.5 114.5t125.5 219.5l9 37h-50q-78 0 -149.5 -9.5t-148 -31t-124 -68.5t-47.5 -114.5zM360 1188 l228 260h182l131 -260h-158l-75 164h-4l-138 -164h-166z" />
<glyph unicode="&#xe3;" d="M-10 248q0 143 107.5 236.5t256 127t330.5 33.5h51l4 21q8 57 9 84q0 154 -187 153q-66 0 -125 -18.5t-67 -61.5l-11 -59h-188l20 102q20 102 136 148.5t262 46.5q182 0 270 -77t88 -216q0 -55 -12 -121l-78 -401q-8 -33 -8 -45q0 -31 37 -31h84l-33 -170h-174 q-113 0 -113 84q0 47 21 113h-4q2 0 -12.5 -22.5t-45 -55.5t-72.5 -66t-108 -55.5t-137 -22.5q-129 0 -215 71t-86 202zM190 276.5q0 -67.5 43 -107.5t115 -40q123 0 226.5 114.5t125.5 219.5l9 37h-50q-78 0 -149.5 -9.5t-148 -31t-124 -68.5t-47.5 -114.5zM285 1190 q45 260 247 260q53 0 91.5 -21.5t56.5 -48t44 -48t56 -21.5q43 0 71 40t38 93h135q-47 -260 -248 -260q-53 0 -91 21.5t-56.5 48t-45 48t-57.5 21.5q-43 0 -70.5 -40t-37.5 -93h-133z" />
<glyph unicode="&#xe4;" d="M-10 248q0 143 107.5 236.5t256 127t330.5 33.5h51l4 21q8 57 9 84q0 154 -187 153q-66 0 -125 -18.5t-67 -61.5l-11 -59h-188l20 102q20 102 136 148.5t262 46.5q182 0 270 -77t88 -216q0 -55 -12 -121l-78 -401q-8 -33 -8 -45q0 -31 37 -31h84l-33 -170h-174 q-113 0 -113 84q0 47 21 113h-4q2 0 -12.5 -22.5t-45 -55.5t-72.5 -66t-108 -55.5t-137 -22.5q-129 0 -215 71t-86 202zM190 276.5q0 -67.5 43 -107.5t115 -40q123 0 226.5 114.5t125.5 219.5l9 37h-50q-78 0 -149.5 -9.5t-148 -31t-124 -68.5t-47.5 -114.5zM723 1241 l41 207h151l-41 -207h-151zM385 1241l41 207h152l-41 -207h-152z" />
<glyph unicode="&#xe5;" d="M-10 248q0 143 107.5 236.5t256 127t330.5 33.5h51l4 21q8 57 9 84q0 154 -187 153q-66 0 -125 -18.5t-67 -61.5l-11 -59h-188l20 102q20 102 136 148.5t262 46.5q182 0 270 -77t88 -216q0 -55 -12 -121l-78 -401q-8 -33 -8 -45q0 -31 37 -31h84l-33 -170h-174 q-113 0 -113 84q0 47 21 113h-4q2 0 -12.5 -22.5t-45 -55.5t-72.5 -66t-108 -55.5t-137 -22.5q-129 0 -215 71t-86 202zM190 276.5q0 -67.5 43 -107.5t115 -40q123 0 226.5 114.5t125.5 219.5l9 37h-50q-78 0 -149.5 -9.5t-148 -31t-124 -68.5t-47.5 -114.5zM639 1161 q-63 0 -107.5 37t-44.5 96q0 78 59.5 127t133.5 49q63 0 108.5 -36.5t45.5 -98.5q0 -76 -59.5 -125t-135.5 -49zM645 1245q37 0 61.5 24.5t24.5 63.5q0 55 -57 56q-33 0 -58.5 -26t-25.5 -65q0 -53 55 -53z" />
<glyph unicode="&#xe6;" horiz-adv-x="1740" d="M-8 248q0 119 63.5 200.5t170 120.5t205.5 54.5t208 15.5h92q12 63 12 98q0 166 -180 166q-182 0 -196 -80l-11 -59h-188l20 102q10 57 53.5 97.5t105 60.5t120.5 28.5t121 8.5q236 0 301 -174h4q154 174 385 174q193 0 295 -104.5t102 -280.5q0 -37 -8 -82t-16 -74 l-6 -26h-748q-6 -31 -6 -66q0 -131 74.5 -208t212.5 -77q80 0 161.5 30t122.5 60l43 29l58 -151l-55 -37t-138.5 -61t-202.5 -38q-160 0 -271.5 69t-154.5 187h-4q-12 -27 -39.5 -62.5t-78 -82.5t-131 -79t-175.5 -32q-137 0 -229 73t-92 200zM934 639h541q2 33 2 57 q0 100 -56.5 153.5t-146.5 53.5q-115 0 -205 -68.5t-135 -195.5zM195 270q0 -59 42 -97t123 -38q119 0 215.5 102.5t122.5 227.5l7 29h-95q-415 -1 -415 -224z" />
<glyph unicode="&#xe7;" horiz-adv-x="1085" d="M319 -180l76 170q-166 35 -257 153.5t-91 290.5q0 256 184.5 441.5t440.5 185.5q61 0 125.5 -12.5t128 -38t96.5 -75.5t20 -118l-16 -90h-176l8 43q10 57 -54.5 89t-144.5 32q-164 0 -286.5 -130t-122.5 -308q0 -135 76.5 -218t224.5 -83q92 0 175 30.5t120 63.5l37 30 l57 -157q-16 -16 -46 -40t-136.5 -64t-227.5 -40h-28l-33 -77q49 -8 86 -43t37 -88q0 -96 -74 -143.5t-166 -47.5q-31 0 -60.5 3t-41.5 7l-14 4l22 119q39 -14 84 -14q111 0 111 76q0 53 -95 53z" />
<glyph unicode="&#xe8;" horiz-adv-x="1105" d="M45 418q0 262 174 452.5t430 190.5q193 0 293 -104.5t100 -278.5q0 -37 -9 -83t-17 -75l-10 -26h-752q-6 -35 -6 -68q0 -123 77.5 -201t217.5 -78q80 0 161.5 30t124.5 61l43 28l58 -155l-56 -37q-35 -23 -139 -61t-205 -38q-223 0 -354 123t-131 320zM291 639h547 q6 27 6 55q0 100 -55.5 154.5t-145.5 54.5q-115 0 -210 -69.5t-142 -194.5zM618 1188l-149 260h195l102 -260h-148z" />
<glyph unicode="&#xe9;" horiz-adv-x="1105" d="M610 1188l199 260h205l-242 -260h-162zM45 418q0 262 174 452.5t430 190.5q193 0 293 -104.5t100 -278.5q0 -37 -9 -83t-17 -75l-10 -26h-752q-6 -35 -6 -68q0 -123 77.5 -201t217.5 -78q80 0 161.5 30t124.5 61l43 28l58 -155l-56 -37q-35 -23 -139 -61t-205 -38 q-223 0 -354 123t-131 320zM291 639h547q6 27 6 55q0 100 -55.5 154.5t-145.5 54.5q-115 0 -210 -69.5t-142 -194.5z" />
<glyph unicode="&#xea;" horiz-adv-x="1105" d="M416 1188l227 260h182l131 -260h-157l-76 164h-4l-137 -164h-166zM45 418q0 262 174 452.5t430 190.5q193 0 293 -104.5t100 -278.5q0 -37 -9 -83t-17 -75l-10 -26h-752q-6 -35 -6 -68q0 -123 77.5 -201t217.5 -78q80 0 161.5 30t124.5 61l43 28l58 -155l-56 -37 q-35 -23 -139 -61t-205 -38q-223 0 -354 123t-131 320zM291 639h547q6 27 6 55q0 100 -55.5 154.5t-145.5 54.5q-115 0 -210 -69.5t-142 -194.5z" />
<glyph unicode="&#xeb;" horiz-adv-x="1105" d="M780 1241l41 207h152l-41 -207h-152zM442 1241l41 207h152l-41 -207h-152zM45 418q0 262 174 452.5t430 190.5q193 0 293 -104.5t100 -278.5q0 -37 -9 -83t-17 -75l-10 -26h-752q-6 -35 -6 -68q0 -123 77.5 -201t217.5 -78q80 0 161.5 30t124.5 61l43 28l58 -155l-56 -37 q-35 -23 -139 -61t-205 -38q-223 0 -354 123t-131 320zM291 639h547q6 27 6 55q0 100 -55.5 154.5t-145.5 54.5q-115 0 -210 -69.5t-142 -194.5z" />
<glyph unicode="&#xec;" horiz-adv-x="559" d="M84 94q0 29 4 51l127 646q6 31 6 45q0 31 -37 30h-84l33 170h189q117 0 116 -92q0 -16 -8 -61l-127 -650q-4 -20 -4 -32q0 -31 37 -31h84l-33 -170h-190q-113 0 -113 94zM299 1188l-149 260h194l102 -260h-147z" />
<glyph unicode="&#xed;" horiz-adv-x="559" d="M289 1188l198 260h205l-241 -260h-162zM84 94q0 29 4 51l127 646q6 31 6 45q0 31 -37 30h-84l33 170h189q117 0 116 -92q0 -16 -8 -61l-127 -650q-4 -20 -4 -32q0 -31 37 -31h84l-33 -170h-190q-113 0 -113 94z" />
<glyph unicode="&#xee;" horiz-adv-x="559" d="M96 1188l228 260h182l131 -260h-158l-76 164h-4l-137 -164h-166zM84 94q0 29 4 51l127 646q6 31 6 45q0 31 -37 30h-84l33 170h189q117 0 116 -92q0 -16 -8 -61l-127 -650q-4 -20 -4 -32q0 -31 37 -31h84l-33 -170h-190q-113 0 -113 94z" />
<glyph unicode="&#xef;" horiz-adv-x="559" d="M461 1241l41 207h151l-41 -207h-151zM123 1241l41 207h151l-41 -207h-151zM84 94q0 29 4 51l127 646q6 31 6 45q0 31 -37 30h-84l33 170h189q117 0 116 -92q0 -16 -8 -61l-127 -650q-4 -20 -4 -32q0 -31 37 -31h84l-33 -170h-190q-113 0 -113 94z" />
<glyph unicode="&#xf0;" horiz-adv-x="1163" d="M41 391q0 217 160.5 390t416.5 173q76 0 139.5 -23.5t90.5 -45.5l24 -25h5q-37 174 -183 291l-397 -160l2 111l291 119q-123 70 -256 104l82 148q225 -59 383 -173l315 127v-110l-229 -92q205 -201 205 -506q0 -90 -20.5 -187.5t-69 -198t-118 -179t-175 -129 t-230.5 -50.5q-209 0 -322.5 119t-113.5 297zM244 395q0 -109 59 -178.5t174 -69.5q166 0 278.5 141.5t112.5 295.5q0 96 -64.5 153.5t-176.5 57.5q-164 0 -273.5 -118t-109.5 -282z" />
<glyph unicode="&#xf1;" horiz-adv-x="1284" d="M59 0l154 793q6 23 6 41q0 33 -39 32h-80l31 170h188q111 0 111 -92q0 -31 -24 -129h4q61 92 171.5 169t260.5 77q145 0 220 -73t75 -208q0 -59 -13 -127l-82 -420q-4 -20 -4 -32q0 -31 37 -31h84l-33 -170h-190q-117 0 -117 94q0 23 6 47l95 480q10 55 10 100 q0 158 -160 158q-150 0 -269.5 -122t-148.5 -274l-94 -483h-199zM426 1190q45 260 248 260q53 0 91 -21.5t56.5 -48t44 -48t56.5 -21.5q43 0 70.5 40t37.5 93h135q-47 -260 -247 -260q-53 0 -91.5 21.5t-56.5 48t-45 48t-57 21.5q-43 0 -71 -40t-38 -93h-133z" />
<glyph unicode="&#xf2;" horiz-adv-x="1257" d="M43 432q0 262 197.5 445.5t457.5 183.5q213 0 346.5 -126t133.5 -327q0 -264 -199 -448.5t-457 -184.5q-213 0 -346 127t-133 330zM246 440q0 -131 81 -212t212 -81q166 0 301 132.5t135 318.5q0 129 -82 210t-211 81q-168 0 -302 -131.5t-134 -317.5zM668 1188l-150 260 h195l102 -260h-147z" />
<glyph unicode="&#xf3;" horiz-adv-x="1257" d="M662 1188l198 260h205l-242 -260h-161zM43 432q0 262 197.5 445.5t457.5 183.5q213 0 346.5 -126t133.5 -327q0 -264 -199 -448.5t-457 -184.5q-213 0 -346 127t-133 330zM246 440q0 -131 81 -212t212 -81q166 0 301 132.5t135 318.5q0 129 -82 210t-211 81 q-168 0 -302 -131.5t-134 -317.5z" />
<glyph unicode="&#xf4;" horiz-adv-x="1257" d="M467 1188l227 260h183l131 -260h-158l-76 164h-4l-137 -164h-166zM43 432q0 262 197.5 445.5t457.5 183.5q213 0 346.5 -126t133.5 -327q0 -264 -199 -448.5t-457 -184.5q-213 0 -346 127t-133 330zM246 440q0 -131 81 -212t212 -81q166 0 301 132.5t135 318.5 q0 129 -82 210t-211 81q-168 0 -302 -131.5t-134 -317.5z" />
<glyph unicode="&#xf5;" horiz-adv-x="1257" d="M43 432q0 262 197.5 445.5t457.5 183.5q213 0 346.5 -126t133.5 -327q0 -264 -199 -448.5t-457 -184.5q-213 0 -346 127t-133 330zM246 440q0 -131 81 -212t212 -81q166 0 301 132.5t135 318.5q0 129 -82 210t-211 81q-168 0 -302 -131.5t-134 -317.5zM391 1190 q45 260 248 260q53 0 91 -21.5t56.5 -48t44 -48t56.5 -21.5q43 0 70.5 40t37.5 93h135q-47 -260 -247 -260q-53 0 -91 21.5t-56.5 48t-45 48t-57.5 21.5q-43 0 -70.5 -40t-38.5 -93h-133z" />
<glyph unicode="&#xf6;" horiz-adv-x="1257" d="M829 1241l41 207h152l-41 -207h-152zM492 1241l40 207h152l-41 -207h-151zM43 432q0 262 197.5 445.5t457.5 183.5q213 0 346.5 -126t133.5 -327q0 -264 -199 -448.5t-457 -184.5q-213 0 -346 127t-133 330zM246 440q0 -131 81 -212t212 -81q166 0 301 132.5t135 318.5 q0 129 -82 210t-211 81q-168 0 -302 -131.5t-134 -317.5z" />
<glyph unicode="&#xf7;" horiz-adv-x="1255" d="M522 891v186h193v-186h-193zM102 504v160h1035v-160h-1035zM522 90v186h193v-186h-193z" />
<glyph unicode="&#xf8;" horiz-adv-x="1255" d="M66 -4l106 115q-129 135 -129 321q0 260 195.5 444.5t445.5 184.5q166 0 293 -78l110 119l80 -70l-110 -119q119 -133 119 -305q0 -262 -196 -447.5t-443 -185.5q-156 0 -279 70l-111 -119zM309 258l537 584q-72 47 -164 47q-168 0 -302 -131t-134 -318q0 -100 63 -182z M387 186q72 -39 152 -39q166 0 300 132.5t134 318.5q0 86 -55 164z" />
<glyph unicode="&#xf9;" horiz-adv-x="1294" d="M131 256q0 59 12 129l82 418q6 31 6 35q0 29 -38 28h-84l32 170h193q115 0 115 -94q0 -20 -7 -47l-92 -477q-12 -53 -12 -103q0 -156 156 -155q147 0 267 132t150 292l88 452h199l-154 -792q-6 -18 -6 -41q0 -33 39 -33h82l-33 -170h-188q-111 0 -111 92q0 29 25 131h-4 q-57 -92 -168 -170t-258 -78q-141 0 -216 73t-75 208zM680 1188l-150 260h195l102 -260h-147z" />
<glyph unicode="&#xfa;" horiz-adv-x="1294" d="M672 1188l198 260h205l-241 -260h-162zM131 256q0 59 12 129l82 418q6 31 6 35q0 29 -38 28h-84l32 170h193q115 0 115 -94q0 -20 -7 -47l-92 -477q-12 -53 -12 -103q0 -156 156 -155q147 0 267 132t150 292l88 452h199l-154 -792q-6 -18 -6 -41q0 -33 39 -33h82 l-33 -170h-188q-111 0 -111 92q0 29 25 131h-4q-57 -92 -168 -170t-258 -78q-141 0 -216 73t-75 208z" />
<glyph unicode="&#xfb;" horiz-adv-x="1294" d="M477 1188l228 260h182l131 -260h-158l-76 164h-4l-137 -164h-166zM131 256q0 59 12 129l82 418q6 31 6 35q0 29 -38 28h-84l32 170h193q115 0 115 -94q0 -20 -7 -47l-92 -477q-12 -53 -12 -103q0 -156 156 -155q147 0 267 132t150 292l88 452h199l-154 -792 q-6 -18 -6 -41q0 -33 39 -33h82l-33 -170h-188q-111 0 -111 92q0 29 25 131h-4q-57 -92 -168 -170t-258 -78q-141 0 -216 73t-75 208z" />
<glyph unicode="&#xfc;" horiz-adv-x="1294" d="M842 1241l41 207h151l-41 -207h-151zM504 1241l41 207h151l-41 -207h-151zM131 256q0 59 12 129l82 418q6 31 6 35q0 29 -38 28h-84l32 170h193q115 0 115 -94q0 -20 -7 -47l-92 -477q-12 -53 -12 -103q0 -156 156 -155q147 0 267 132t150 292l88 452h199l-154 -792 q-6 -18 -6 -41q0 -33 39 -33h82l-33 -170h-188q-111 0 -111 92q0 29 25 131h-4q-57 -92 -168 -170t-258 -78q-141 0 -216 73t-75 208z" />
<glyph unicode="&#xfd;" horiz-adv-x="1110" d="M57 -430q-61 0 -118.5 25.5t-83.5 52.5l-27 24l86 142q74 -74 149 -74q113 0 207 151l74 117l-194 817q-10 41 -58 41h-24l32 170h133q47 0 69 -24.5t34 -79.5l121 -584l14 -125h4q29 72 57 125l330 584q35 59 72 81.5t100 22.5h127l-33 -170h-26q-49 0 -74 -41 l-608 -1018q-140 -237 -363 -237zM567 1188l199 260h205l-242 -260h-162z" />
<glyph unicode="&#xfe;" horiz-adv-x="1210" d="M-51 -410l313 1610q6 31 6 45q0 31 -37 31h-84l33 170h191q115 0 114 -92q0 -14 -8 -60l-53 -278q-25 -109 -33 -131h4q133 176 348 176q182 0 283.5 -116t101.5 -318q0 -276 -171 -464t-394 -188q-104 0 -186 46.5t-121 134.5h-4q-4 -43 -14 -97l-91 -469h-198zM311 418 q0 -119 58.5 -195t171.5 -76q147 0 266 130.5t119 334.5q0 133 -61.5 204t-172.5 71q-156 0 -268.5 -143.5t-112.5 -325.5z" />
<glyph unicode="&#xff;" horiz-adv-x="1110" d="M57 -430q-61 0 -118.5 25.5t-83.5 52.5l-27 24l86 142q74 -74 149 -74q113 0 207 151l74 117l-194 817q-10 41 -58 41h-24l32 170h133q47 0 69 -24.5t34 -79.5l121 -584l14 -125h4q29 72 57 125l330 584q35 59 72 81.5t100 22.5h127l-33 -170h-26q-49 0 -74 -41 l-608 -1018q-140 -237 -363 -237zM737 1241l41 207h152l-41 -207h-152zM399 1241l41 207h152l-41 -207h-152z" />
<glyph unicode="&#x152;" horiz-adv-x="1937" d="M84 598q0 229 121 431t320.5 318.5t422.5 116.5q63 0 157.5 -9t133.5 -9h600q121 0 121 -92q0 -6 -10 -74l-29 -147h-188l12 57q8 45 8 49q0 31 -43 31h-405l-88 -453h505l-34 -176h-508l-74 -385q-8 -41 -8 -49q0 -31 39 -31h422q43 0 53 45l18 92h187l-35 -186 q-12 -70 -48 -98.5t-102 -28.5h-649q-33 0 -118 -9t-138 -9q-289 0 -466 172t-177 444zM295 598q0 -199 120 -321.5t322 -122.5q37 0 74 4t55 8l19 4l215 1108q-61 14 -144 14q-268 0 -464.5 -204.5t-196.5 -489.5z" />
<glyph unicode="&#x153;" horiz-adv-x="2021" d="M45 432q0 262 194.5 445.5t448.5 183.5q145 0 252 -65.5t162 -180.5h4q80 115 197.5 180.5t257.5 65.5q195 0 296 -104.5t101 -278.5q0 -37 -8 -83t-17 -75l-10 -26h-756q-6 -33 -6 -70q0 -121 79 -199t218 -78q80 0 162 31t125 60l43 30l57 -157q-18 -14 -53 -37 t-139.5 -61t-204.5 -38q-154 0 -264.5 67t-159.5 185h-4q-88 -117 -218 -184.5t-267 -67.5q-217 0 -353.5 127t-136.5 330zM1204 639h551q4 27 4 55q0 100 -55 154.5t-145 54.5q-115 0 -211.5 -69.5t-143.5 -194.5zM248 440q0 -131 81 -212t212 -81q166 0 300 132.5 t134 318.5q0 129 -82 210t-211 81q-172 0 -303 -131.5t-131 -317.5z" />
<glyph unicode="&#x178;" horiz-adv-x="1234" d="M391 0l123 631l-252 588q-18 51 -72 51h-47l33 176h92q66 0 99.5 -22.5t62.5 -88.5l154 -364l57 -162h4q59 90 115 162l289 364q49 66 91 88.5t107 22.5h125l-35 -176h-47q-53 0 -90 -47l-481 -592l-123 -631h-205zM879 1599l41 207h151l-41 -207h-151zM541 1599l41 207 h151l-41 -207h-151z" />
<glyph unicode="&#x2c6;" horiz-adv-x="993" d="M197 1546l227 260h182l131 -260h-157l-76 164h-4l-138 -164h-165z" />
<glyph unicode="&#x2dc;" horiz-adv-x="1062" d="M164 1548q45 260 248 260q53 0 91 -21.5t56.5 -48t44 -48t55.5 -21.5q43 0 71 40t38 93h135q-47 -260 -248 -260q-53 0 -91 21.5t-56.5 48t-45 48t-56.5 21.5q-43 0 -71 -39.5t-38 -93.5h-133z" />
<glyph unicode="&#x2000;" horiz-adv-x="914" />
<glyph unicode="&#x2001;" horiz-adv-x="1829" />
<glyph unicode="&#x2002;" horiz-adv-x="914" />
<glyph unicode="&#x2003;" horiz-adv-x="1829" />
<glyph unicode="&#x2004;" horiz-adv-x="609" />
<glyph unicode="&#x2005;" horiz-adv-x="457" />
<glyph unicode="&#x2006;" horiz-adv-x="304" />
<glyph unicode="&#x2007;" horiz-adv-x="304" />
<glyph unicode="&#x2008;" horiz-adv-x="228" />
<glyph unicode="&#x2009;" horiz-adv-x="365" />
<glyph unicode="&#x200a;" horiz-adv-x="101" />
<glyph unicode="&#x2010;" horiz-adv-x="860" d="M109 496l32 176h598l-32 -176h-598z" />
<glyph unicode="&#x2011;" horiz-adv-x="860" d="M109 496l32 176h598l-32 -176h-598z" />
<glyph unicode="&#x2012;" horiz-adv-x="860" d="M109 496l32 176h598l-32 -176h-598z" />
<glyph unicode="&#x2013;" horiz-adv-x="1353" d="M117 504l30 160h1078l-31 -160h-1077z" />
<glyph unicode="&#x2014;" horiz-adv-x="1763" d="M117 504l30 160h1487l-30 -160h-1487z" />
<glyph unicode="&#x2018;" horiz-adv-x="434" d="M174 1069l211 399h143l-166 -399h-188z" />
<glyph unicode="&#x2019;" horiz-adv-x="415" d="M176 1071l166 399h188l-211 -399h-143z" />
<glyph unicode="&#x201a;" horiz-adv-x="477" d="M-78 -184l166 399h188l-210 -399h-144z" />
<glyph unicode="&#x201c;" horiz-adv-x="716" d="M459 1069l211 399h141l-164 -399h-188zM174 1069l211 399h143l-166 -399h-188z" />
<glyph unicode="&#x201d;" horiz-adv-x="700" d="M461 1071l164 399h188l-209 -399h-143zM176 1071l166 399h188l-211 -399h-143z" />
<glyph unicode="&#x201e;" horiz-adv-x="759" d="M207 -184l164 399h188l-209 -399h-143zM-78 -184l166 399h188l-210 -399h-144z" />
<glyph unicode="&#x2022;" horiz-adv-x="819" d="M405.5 279q-131.5 0 -224.5 92t-93 225t93 225t224.5 92t223.5 -93t92 -224t-92 -224t-223.5 -93z" />
<glyph unicode="&#x2026;" horiz-adv-x="1529" d="M1079 0l39 211h203l-39 -211h-203zM547 0l39 211h205l-41 -211h-203zM14 0l41 211h203l-39 -211h-205z" />
<glyph unicode="&#x202f;" horiz-adv-x="365" />
<glyph unicode="&#x2039;" horiz-adv-x="659" d="M297 158l-262 424l391 417h209l-410 -430l260 -411h-188z" />
<glyph unicode="&#x203a;" horiz-adv-x="663" d="M16 158l410 430l-260 411h188l262 -424l-391 -417h-209z" />
<glyph unicode="&#x205f;" horiz-adv-x="457" />
<glyph unicode="&#x20ac;" horiz-adv-x="1218" d="M63 518l25 125h115q2 72 26 176h-108l24 127h125q104 233 314.5 378.5t457.5 145.5l232 -32l-78 -168q-76 20 -160 20q-170 0 -315.5 -93t-224.5 -251h573l-51 -127h-578q-25 -76 -30 -176h540l-51 -125h-477q16 -162 119.5 -261t283.5 -99l193 28l4 -180 q-90 -31 -211 -31q-254 0 -420 149.5t-186 393.5h-142z" />
<glyph unicode="&#x2122;" horiz-adv-x="2203" d="M1036 545v137h47q20 0 23 18l59 746h142l213 -471l28 -86h4q12 49 27 86l213 471h143l60 -746q0 -18 20 -18h49v-137h-120q-55 0 -76 18.5t-25 73.5l-35 446l2 62h-4l-194 -434h-125l-195 434h-4l2 -62l-35 -446q-2 -55 -23.5 -73.5t-76.5 -18.5h-119zM561 545v764h-155 q-18 0 -19 -19v-61h-137v125q0 53 19.5 72.5t76.5 19.5h586q55 0 75.5 -19.5t20.5 -72.5v-125h-135v61q0 18 -19 19h-157v-764h-156z" />
<glyph unicode="&#xe000;" horiz-adv-x="1035" d="M0 1035h1035v-1035h-1035v1035z" />
<glyph unicode="&#xfb01;" horiz-adv-x="1208" d="M57 0l170 877h-129l31 159h129l6 35q23 121 77 205t125 119t126 48t115 13l98 -6l-33 -166q-12 6 -57 6q-49 0 -94.5 -14t-93.5 -68.5t-64 -140.5l-6 -31h516q117 0 117 -92q0 -16 -9 -61l-127 -650q-4 -20 -4 -32q0 -31 37 -31h84l-33 -170h-190q-115 0 -115 94 q0 16 6 51l127 654q6 31 6 45q0 33 -36 33h-410l-170 -877h-199zM956 1239l41 207h179l-41 -207h-179z" />
<glyph unicode="&#xfb02;" horiz-adv-x="1196" d="M57 0l170 877h-129l31 159h129l6 35q18 96 59.5 168t88.5 109.5t105 61.5t101.5 30t88.5 6h333q115 0 115 -92q0 -14 -8 -60l-205 -1061q-6 -31 -6 -32q0 -31 37 -31h86l-33 -170h-192q-113 0 -113 94q0 14 4 47l207 1063q6 31 6 45q0 31 -37 31h-186q-49 0 -94.5 -14.5 t-93.5 -64.5t-64 -134l-6 -31h245l-32 -159h-244l-170 -877h-199z" />
<glyph unicode="&#xfb03;" horiz-adv-x="1851" d="M57 0l170 877h-129l31 159h129l6 35q23 121 77 205t125 119t126 48t115 13l98 -6l-33 -166q-12 6 -57 6q-49 0 -94.5 -14t-93.5 -68.5t-64 -140.5l-6 -31h446l6 35q18 98 59.5 172t87.5 114t105.5 63.5t102.5 29.5t88 6l98 -6l-35 -166q-10 6 -55 6q-82 0 -156 -49 t-96 -174l-6 -31h514q117 0 117 -92q0 -16 -9 -61l-127 -650q-4 -20 -4 -32q0 -31 37 -31h84l-33 -170h-190q-115 0 -115 94q0 16 6 51l127 654q6 31 7 45q0 33 -37 33h-410l-168 -877h-199l170 877h-446l-170 -877h-199zM1599 1239l41 207h179l-41 -207h-179z" />
<glyph unicode="&#xfb04;" horiz-adv-x="1841" d="M57 0l170 877h-129l31 159h129l6 35q23 121 77 205t125 119t126 48t115 13l98 -6l-33 -166q-12 6 -57 6q-49 0 -94.5 -14t-93.5 -68.5t-64 -140.5l-6 -31h446l6 35q18 96 58.5 168t87.5 109.5t105.5 61.5t102.5 30t89 6h331q117 0 117 -92q0 -14 -8 -60l-207 -1061 q-6 -31 -6 -32q0 -31 39 -31h84l-33 -170h-190q-115 0 -115 94q0 23 6 47l207 1063q6 31 6 45q0 31 -37 31h-188q-49 0 -94 -14.5t-93.5 -64.5t-64.5 -134l-6 -31h246l-33 -159h-244l-170 -877h-199l170 877h-444l-170 -877h-199z" />
</font>
</defs>
</svg>
